<svg xmlns="http://www.w3.org/2000/svg" width="36" height="36" viewBox="0 0 36 36" fill="none">
  <g clip-path="url(#clip0_354_535)">
    <path d="M16.2711 4.1743C15.4004 4.29162 14.0913 4.61889 13.3071 4.90912C12.6649 5.14377 11.4731 5.74274 10.9915 6.07001C10.0591 6.70603 9.20074 7.6014 8.63882 8.52764C7.8793 9.78733 7.34826 11.8127 7.32973 13.5108L7.31738 14.2642L9.28102 14.2827L11.2508 14.2951L11.4299 14.4988C11.6707 14.7643 11.6707 15.0175 11.4299 15.2583L11.2508 15.4374H9.33042H7.41001V15.6474C7.41001 16.0426 7.8052 17.8827 7.93488 18.0926C7.95958 18.1359 9.42304 18.1544 12.3994 18.1544C14.8385 18.1482 16.8762 18.1667 16.938 18.1914C17.08 18.2408 17.2282 18.5311 17.2282 18.7595C17.2282 18.8769 17.1664 18.9942 17.0368 19.1177L16.8515 19.2968H12.5908C10.2505 19.2968 8.33625 19.3153 8.33625 19.34C8.33625 19.3585 8.42887 19.5993 8.5462 19.8649C8.8179 20.5009 9.23162 21.2666 9.65769 21.9026L9.78737 22.1064H13.7764H17.7654L17.926 22.2607C18.1174 22.4522 18.1606 22.6559 18.0556 22.8968C17.8889 23.2981 18.0556 23.2796 14.1839 23.2796H10.6704L10.8742 23.539C11.2261 23.9897 12.6155 25.342 13.128 25.7249C15.2893 27.3489 17.4628 28.2937 19.9452 28.695C20.8591 28.8371 22.835 28.8432 23.7428 28.695C25.9719 28.3431 27.6886 27.5156 29.0594 26.1386C30.6217 24.5764 31.5726 22.4398 31.9246 19.729C32.2395 17.3084 31.9122 15.0052 30.9242 12.6587C30.4179 11.4607 29.7942 10.4728 28.7692 9.25011C28.6395 9.08956 28.5284 8.94136 28.5284 8.91049C28.5284 8.88579 28.2011 8.53999 27.7997 8.1448C27.0896 7.44703 26.046 6.62576 25.2556 6.13794C23.7736 5.23022 22.0076 4.5695 20.2539 4.26075C19.2227 4.08167 17.2467 4.03845 16.2711 4.1743ZM18.9819 7.8484C19.1609 7.92867 19.2844 8.21889 19.2289 8.43502C19.1424 8.77464 18.6237 8.87962 18.4076 8.60792C18.2347 8.38562 18.2409 8.1201 18.4323 7.93485C18.5929 7.76812 18.7472 7.74342 18.9819 7.8484ZM24.1133 8.15715C24.4591 8.32387 24.7863 8.65114 24.9778 9.04016C25.5026 10.0961 24.6443 11.4237 23.4402 11.4237C22.9153 11.4237 22.6251 11.3125 22.2546 10.9729C21.6495 10.4234 21.5136 9.65149 21.9026 8.90432C22.3225 8.08922 23.2796 7.76812 24.1133 8.15715ZM13.4244 11.3002C13.622 11.4978 13.5911 11.8312 13.3503 12.0474C12.8995 12.4549 12.3006 12.0906 12.4488 11.504C12.5537 11.0779 13.091 10.9668 13.4244 11.3002ZM26.1078 14.2333C26.5832 14.3753 27.034 14.7705 27.2934 15.2769C27.4786 15.6412 27.5033 15.7523 27.5033 16.1414C27.5033 16.9441 27.0711 17.6048 26.3054 17.963C25.8114 18.1976 25.1198 18.1914 24.6258 17.9506C23.4772 17.3887 23.1438 15.9376 23.9342 14.9002C24.422 14.2642 25.2927 13.9925 26.1078 14.2333ZM16.8639 14.4988C17.08 14.7335 17.0985 14.9805 16.9194 15.2089C16.8453 15.3016 16.7033 15.3942 16.5922 15.4251C16.3328 15.493 15.0917 15.4559 14.9373 15.3695C14.6841 15.2336 14.6224 14.752 14.82 14.4927C14.9805 14.2889 15.0731 14.2704 15.95 14.2827L16.6848 14.2951L16.8639 14.4988ZM23.7428 21.0134C23.8601 21.1307 23.9712 21.2975 23.9959 21.3901C24.033 21.5568 23.9095 22.0014 23.823 21.989C23.7922 21.9829 23.7181 22.0384 23.6563 22.1002C23.4772 22.2793 23.0944 22.2546 22.8412 22.0508C22.6807 21.9149 22.6436 21.8285 22.6127 21.563C22.588 21.2604 22.6004 21.2295 22.8042 21.0258C22.9832 20.8467 23.0635 20.8096 23.2796 20.8096C23.4896 20.8096 23.576 20.8467 23.7428 21.0134ZM28.1764 22.73C28.4975 22.8782 28.5469 23.2673 28.2875 23.5328C28.0652 23.7551 27.8368 23.7613 27.633 23.5575C27.2316 23.1561 27.6639 22.4954 28.1764 22.73ZM20.5565 25.6878C20.8467 25.8422 20.9085 26.3362 20.6615 26.5832C20.4762 26.7685 20.2107 26.8179 19.5438 26.7932C19.0436 26.7685 19.0004 26.7561 18.8584 26.5956C18.5558 26.2436 18.7102 25.694 19.1424 25.6076C19.3956 25.552 20.4206 25.6137 20.5565 25.6878Z" fill="#EE7B00"/>
    <path d="M18.2629 34.3118C27.3322 34.3118 34.6844 26.9596 34.6844 17.8902C34.6844 8.82081 27.3322 1.46863 18.2629 1.46863C9.19349 1.46863 1.84131 8.82081 1.84131 17.8902C1.84131 26.9596 9.19349 34.3118 18.2629 34.3118Z" stroke="#bbbbbb" stroke-width="2"/>
  </g>
  <defs>
    <clipPath id="clip0_354_535">
      <rect width="36" height="36" fill="white"/>
    </clipPath>
  </defs>
</svg>