<svg width="362" height="271" viewBox="0 0 362 271" fill="none" xmlns="http://www.w3.org/2000/svg">
<g clip-path="url(#clip0_373_3684)">
<path d="M345.92 261.667C345.92 261.667 383.853 212.659 341.849 170.646C314.655 143.447 306.325 137.941 303.001 123.709C295.855 93.095 269.768 7.06812 193.88 7.06812C65.5977 7.06812 54.9959 139.021 54.9959 139.021C54.9959 139.021 18.2888 146.092 4.62112 194.753C-8.32825 240.863 10.0488 263.932 10.0488 263.932L345.92 261.667Z" fill="url(#paint0_linear_373_3684)"/>
<path d="M175.362 20.9236C175.847 20.9236 176.24 20.5302 176.24 20.045C176.24 19.5597 175.847 19.1664 175.362 19.1664C174.877 19.1664 174.484 19.5597 174.484 20.045C174.484 20.5302 174.877 20.9236 175.362 20.9236Z" fill="black"/>
<path d="M207.261 46.4262C207.261 46.6659 207.069 46.8585 206.829 46.8585C206.59 46.8585 206.397 46.6659 206.397 46.4262C206.397 46.1866 206.59 45.994 206.829 45.994C207.069 45.994 207.261 46.1866 207.261 46.4262ZM155.595 53.8543C155.595 54.5121 155.065 55.043 154.407 55.043C153.75 55.043 153.219 54.5121 153.219 53.8543C153.219 53.1966 153.75 52.6657 154.407 52.6657C154.722 52.6669 155.023 52.7925 155.246 53.0152C155.468 53.2378 155.594 53.5395 155.595 53.8543ZM123.715 48.3338C123.715 48.8365 123.306 49.2453 122.804 49.2453C122.302 49.2453 121.893 48.8365 121.893 48.3338C121.893 47.8311 122.302 47.4223 122.804 47.4223C122.924 47.4217 123.042 47.4448 123.153 47.4904C123.264 47.536 123.365 47.6031 123.449 47.6879C123.534 47.7726 123.601 47.8734 123.647 47.9842C123.692 48.0951 123.715 48.2139 123.715 48.3338ZM203.416 22.3707C203.416 22.8311 203.045 23.2023 202.585 23.2023C202.125 23.2023 201.754 22.8311 201.754 22.3707C201.754 21.9102 202.125 21.5391 202.585 21.5391C203.04 21.5391 203.416 21.9149 203.416 22.3707Z" fill="black"/>
<path d="M220.6 53.2764C227.282 59.9951 238.142 60.0233 244.856 53.3375C251.57 46.6517 251.598 35.7891 244.917 29.0658C238.235 22.3471 227.375 22.319 220.661 29.0047C213.947 35.6905 213.919 46.5578 220.6 53.2764Z" fill="url(#paint1_linear_373_3684)"/>
<path d="M270.398 74.5224L183.292 31.9882H182.879L95.7738 74.5224C95.7738 74.5224 94.985 112.856 97.6096 133.595C100.525 156.636 111.78 201.068 137.754 227.585C163.727 254.103 182.879 258.04 182.879 258.04H183.292C183.292 258.04 202.444 254.103 228.418 227.585C254.392 201.068 265.646 156.636 268.562 133.595C271.186 112.852 270.398 74.5224 270.398 74.5224Z" fill="url(#paint2_linear_373_3684)"/>
<path d="M255.373 83.0969L182.325 47.427H181.978L108.93 83.0969C108.93 83.0969 108.268 115.243 110.47 132.636C112.916 151.961 122.353 189.223 144.134 211.461C165.915 233.698 181.978 237.001 181.978 237.001H182.325C182.325 237.001 198.387 233.698 220.168 211.461C241.95 189.223 251.387 151.961 253.833 132.636C256.035 115.243 255.373 83.0969 255.373 83.0969Z" fill="url(#paint3_linear_373_3684)"/>
<path d="M151.999 70.4724C151.999 70.4724 164.389 65.121 182.034 65.121C199.683 65.121 212.961 69.4904 215.905 71.5436C218.844 73.5968 219.736 78.3233 220.45 84.6567C221.164 90.9901 223.211 112.217 220.896 123.813C218.577 135.408 209.041 147.718 203.782 152.98C198.523 158.242 190.767 163.594 186.579 164.219C182.391 164.844 177.043 164.308 172.672 161.362C168.305 158.421 156.807 148.785 151.013 137.635C145.219 126.486 144.505 118.372 144.773 109.271C145.04 100.175 146.285 79.5308 148.693 75.1097C150.844 71.1865 151.999 70.4724 151.999 70.4724Z" fill="url(#paint4_linear_373_3684)"/>
<path d="M171.7 99.9922C171.7 99.9922 167.554 95.4442 162.206 95.0401C156.858 94.6407 154.252 97.8497 154.182 98.0517C154.116 98.2538 154.581 99.5881 155.854 99.8559C157.126 100.128 167.822 101.265 171.7 99.9922Z" fill="url(#paint5_linear_373_3684)"/>
<path d="M171.7 99.9922C167.822 101.265 157.126 100.124 155.858 99.8606C154.591 99.5928 154.121 98.2538 154.187 98.0565C154.187 98.0565 153.52 98.033 152.717 97.4974C151.914 96.9618 151.647 94.0629 151.647 94.0629C151.647 94.0629 151.515 94.6408 151.515 95.6227C151.515 96.6047 151.825 97.3188 151.961 97.7652C152.093 98.2115 151.205 98.4323 151.069 98.3901C150.938 98.3431 151.515 98.7894 152.05 98.8787C152.586 98.9679 152.896 99.278 151.872 99.9029C150.848 100.528 148.754 103.962 148.754 103.962C148.754 103.962 150.67 101.552 151.651 100.796C152.633 100.039 153.882 100.081 155.262 100.349C156.642 100.617 158.605 101.867 163.286 101.909C167.967 101.951 171.798 100.171 171.798 100.171L171.7 99.9922Z" fill="#FF9B30"/>
<path d="M175.442 93.3064C175.442 93.3064 173.77 93.0386 171.629 91.6995C169.488 90.3605 163.605 86.4797 159.999 85.8783C156.389 85.2769 153.046 86.0098 151.041 87.4851C149.036 88.9557 148.769 89.4913 148.769 89.4913C148.769 89.4913 150.91 83.9379 156.99 83.4727C163.075 83.0029 169.559 85.0091 173.771 87.7529C177.982 90.4968 176.714 93.1044 175.442 93.3064Z" fill="black"/>
<path d="M175.113 83.3553L174.86 83.2096C173.739 82.5901 172.596 82.0134 171.432 81.4806C170.301 80.9638 168.967 80.3953 167.502 79.8832C166.77 79.6295 166.004 79.3805 165.22 79.1738C164.436 78.9623 163.629 78.7838 162.812 78.6569C161.995 78.5301 161.173 78.4502 160.366 78.4596C160.164 78.469 159.962 78.4737 159.76 78.4831C159.558 78.4972 159.361 78.5207 159.164 78.5442C158.966 78.5677 158.774 78.61 158.581 78.6428C158.394 78.6757 158.196 78.7321 158.009 78.7744C157.628 78.8637 157.253 78.9482 156.891 79.0516C156.53 79.1503 156.173 79.2395 155.835 79.3523C155.492 79.4604 155.159 79.559 154.849 79.6765C154.689 79.7329 154.534 79.7892 154.384 79.8409C154.234 79.8973 154.088 79.9631 153.942 80.0195C153.36 80.2497 152.853 80.5034 152.402 80.743C151.966 80.9967 151.585 81.2316 151.304 81.4619C151.017 81.6874 150.811 81.8847 150.684 82.0351C150.557 82.1854 150.506 82.2747 150.506 82.2747C150.506 82.2747 150.553 82.1807 150.675 82.0304C150.797 81.8753 150.999 81.6686 151.28 81.4337C151.557 81.1941 151.928 80.9497 152.36 80.6772C152.802 80.4235 153.309 80.151 153.886 79.902C154.032 79.8409 154.177 79.7705 154.327 79.7094C154.478 79.6483 154.633 79.5872 154.792 79.5261C155.107 79.3993 155.436 79.2865 155.778 79.1691C156.116 79.0469 156.473 78.9435 156.835 78.8355C157.196 78.718 157.567 78.6287 157.947 78.5254C158.14 78.4784 158.323 78.422 158.525 78.375C158.722 78.3374 158.919 78.2858 159.121 78.2576C159.323 78.2294 159.525 78.2012 159.732 78.1777L160.351 78.1354C161.182 78.1025 162.028 78.1542 162.863 78.2623C163.699 78.3656 164.525 78.5254 165.333 78.718C166.141 78.906 166.92 79.1315 167.671 79.3664C169.174 79.8409 170.545 80.3765 171.704 80.8652C172.901 81.371 174.077 81.9226 175.231 82.519C175.404 82.613 175.503 82.6599 175.503 82.6599C175.7 82.7633 175.775 83.0076 175.667 83.2002C175.643 83.2469 175.61 83.2883 175.569 83.3221C175.529 83.3559 175.482 83.3814 175.432 83.3971C175.382 83.4128 175.329 83.4185 175.277 83.4137C175.225 83.409 175.174 83.3939 175.127 83.3694C175.123 83.3694 175.123 83.3647 175.118 83.3647L175.113 83.3553ZM171.634 91.6996C169.493 90.3605 163.61 86.4797 160.004 85.8783C156.393 85.2769 153.05 86.0099 151.046 87.4851C150.858 87.6214 150.684 87.753 150.529 87.8751C150.163 88.1852 149.797 88.5235 149.44 88.89C149.299 89.0356 155.722 86.0146 163.277 89.1578C170.831 92.301 176.447 100.396 176.447 100.396C176.447 100.396 175.939 96.257 173.77 92.7943C173.165 92.55 172.432 92.1976 171.634 91.6996Z" fill="#FF9B30"/>
<path d="M195.364 99.9922C195.364 99.9922 199.51 95.4442 204.857 95.0401C210.205 94.6407 212.811 97.8497 212.882 98.0517C212.947 98.2538 212.482 99.5881 211.21 99.8559C209.938 100.128 199.242 101.265 195.364 99.9922Z" fill="url(#paint6_linear_373_3684)"/>
<path d="M195.364 99.9922C199.242 101.265 209.938 100.124 211.205 99.8606C212.473 99.5928 212.942 98.2538 212.877 98.0565C212.877 98.0565 213.543 98.033 214.346 97.4974C215.149 96.9618 215.417 94.0629 215.417 94.0629C215.417 94.0629 215.553 94.6408 215.553 95.6227C215.553 96.6047 215.238 97.3188 215.107 97.7652C214.975 98.2115 215.863 98.4323 215.999 98.3901C216.13 98.3431 215.553 98.7894 215.018 98.8787C214.482 98.9679 214.173 99.278 215.196 99.9029C216.22 100.528 218.318 103.962 218.318 103.962C218.318 103.962 216.403 101.552 215.422 100.796C214.44 100.039 213.191 100.081 211.811 100.349C210.431 100.617 208.468 101.867 203.787 101.909C199.106 101.951 195.274 100.171 195.274 100.171L195.364 99.9922Z" fill="#D26F05"/>
<path d="M191.622 93.3064C191.622 93.3064 193.293 93.0386 195.434 91.6995C197.575 90.3605 203.458 86.4797 207.064 85.8783C210.675 85.2769 214.018 86.0098 216.022 87.4851C218.027 88.9557 218.295 89.4913 218.295 89.4913C218.295 89.4913 216.154 83.9379 210.074 83.4727C203.989 83.0029 197.505 85.0091 193.293 87.7529C189.081 90.4968 190.349 93.1044 191.622 93.3064Z" fill="black"/>
<path d="M191.556 82.6552C191.556 82.6552 191.65 82.6035 191.828 82.5143C192.002 82.425 192.26 82.2888 192.589 82.129C193.246 81.8048 194.194 81.3538 195.354 80.8605C196.514 80.3718 197.885 79.8362 199.387 79.3617C200.139 79.1268 200.923 78.8965 201.726 78.7133C202.533 78.5254 203.36 78.3656 204.195 78.2576C205.031 78.1542 205.876 78.0978 206.707 78.1307L207.327 78.173C207.534 78.1918 207.735 78.2247 207.937 78.2529C208.139 78.2858 208.336 78.3327 208.534 78.3703C208.736 78.4126 208.919 78.469 209.111 78.5207C209.487 78.624 209.862 78.7133 210.224 78.8308C210.585 78.9435 210.942 79.0422 211.28 79.1643C211.618 79.2818 211.952 79.3899 212.266 79.5214C212.426 79.5825 212.581 79.6436 212.731 79.7047C212.881 79.7657 213.027 79.8362 213.172 79.8973C213.75 80.1463 214.257 80.4188 214.698 80.6725C215.13 80.9403 215.501 81.1893 215.778 81.4289C216.06 81.6639 216.262 81.8706 216.384 82.0256C216.506 82.176 216.553 82.27 216.553 82.27C216.553 82.27 216.501 82.176 216.375 82.0303C216.253 81.88 216.041 81.6827 215.755 81.4571C215.473 81.2269 215.098 80.992 214.656 80.7383C214.21 80.4987 213.698 80.2403 213.116 80.0147C212.971 79.9584 212.825 79.8926 212.675 79.8362C212.52 79.7798 212.365 79.7281 212.21 79.6718C211.895 79.5543 211.562 79.4556 211.219 79.3476C210.881 79.2348 210.524 79.1456 210.163 79.0469C209.806 78.9435 209.426 78.8637 209.045 78.7697C208.858 78.7274 208.66 78.6757 208.473 78.6381C208.28 78.6052 208.088 78.563 207.89 78.5395C207.693 78.5207 207.496 78.4972 207.294 78.4784C207.092 78.469 206.89 78.4643 206.688 78.4549C205.881 78.4455 205.054 78.5254 204.242 78.6522C203.425 78.7791 202.618 78.9623 201.834 79.169C201.045 79.3758 200.284 79.6248 199.552 79.8785C198.087 80.3906 196.749 80.9591 195.622 81.4759C194.458 82.0087 193.315 82.5854 192.194 83.2049L191.941 83.3506L191.936 83.3553C191.844 83.4076 191.735 83.4212 191.633 83.393C191.531 83.3648 191.444 83.2971 191.391 83.2049C191.339 83.1127 191.326 83.0035 191.354 82.9013C191.382 82.7991 191.45 82.7123 191.542 82.6599C191.551 82.6552 191.556 82.6552 191.556 82.6552ZM195.429 91.6996C197.57 90.3605 203.453 86.4797 207.059 85.8783C210.67 85.2769 214.013 86.0098 216.018 87.4851C216.206 87.6214 216.379 87.7529 216.534 87.8751C216.9 88.1852 217.267 88.5235 217.619 88.8899C217.76 89.0356 211.337 86.0145 203.782 89.1577C196.228 92.3009 190.612 100.396 190.612 100.396C190.612 100.396 191.119 96.257 193.288 92.7943C193.899 92.55 194.631 92.1976 195.429 91.6996Z" fill="#D26F05"/>
<path d="M154.586 110.23C154.586 107.275 156.98 104.878 159.934 104.878C162.887 104.878 165.282 107.275 165.282 110.23C165.282 113.185 162.887 115.581 159.934 115.581C156.98 115.581 154.586 113.185 154.586 110.23Z" fill="#FF9B30"/>
<path d="M201.449 110.23C201.449 107.275 203.843 104.878 206.797 104.878C209.75 104.878 212.144 107.275 212.144 110.23C212.144 113.185 209.75 115.581 206.797 115.581C203.843 115.581 201.449 113.185 201.449 110.23Z" fill="#D26F05"/>
<path d="M148.905 115.379C148.905 115.379 151.708 119.514 157.53 120.064C164.615 120.731 172.169 115.45 172.169 115.45C172.169 115.45 168.559 119.396 163.882 120.735C159.201 122.074 154.656 121.205 154.389 121.337C154.121 121.468 152.586 122.873 157.196 132.509C161.807 142.141 166.887 152.914 166.887 152.914C166.887 152.914 159.201 142.146 155.323 133.383C151.445 124.621 150.909 120.806 152.182 120.139C152.177 120.129 149.369 115.581 148.905 115.379Z" fill="#FF9B30"/>
<path d="M217.76 115.713C217.76 115.713 214.957 119.847 209.135 120.397C202.05 121.064 194.495 115.783 194.495 115.783C194.495 115.783 198.106 119.73 202.787 121.069C207.468 122.408 212.013 121.539 212.281 121.67C212.548 121.802 214.083 123.207 209.473 132.843C204.862 142.475 199.777 153.248 199.777 153.248C199.777 153.248 207.463 142.479 211.342 133.717C215.22 124.955 215.755 121.139 214.483 120.472C214.483 120.463 217.29 115.915 217.76 115.713Z" fill="#D26F05"/>
<path d="M179.653 96.6516C179.653 96.6516 178.987 107.289 178.048 108.557C177.113 109.83 172.23 115.516 172.301 117.587C172.367 119.659 173.705 121.802 173.705 121.802C173.705 121.802 172.568 118.659 173.907 116.92C175.245 115.182 177.987 111.569 178.118 112.772C178.25 113.974 176.982 118.79 177.987 120.731C178.991 122.671 182.33 124.01 183.4 123.874C184.471 123.742 187.344 122.868 188.349 121.201C189.354 119.528 189.152 118.057 188.819 115.915C188.485 113.772 188.081 112.302 188.819 112.635C189.556 112.969 193.03 116.516 193.232 118.255C193.434 119.993 192.964 121.999 192.964 121.999C192.964 121.999 194.969 119.326 194.035 116.648C193.101 113.97 188.419 109.088 188.152 107.148C187.884 105.207 187.283 96.7785 187.217 96.9805C187.152 97.1825 186.283 107.683 186.682 112.833C187.081 117.982 188.086 120.327 186.415 121.464C184.743 122.601 182.804 122.065 181.4 121.731C179.996 121.398 178.86 120.392 179.395 117.517C179.921 114.646 180.522 99.9921 179.653 96.6516Z" fill="url(#paint7_linear_373_3684)"/>
<path d="M175.043 122.004C175.043 122.004 176.512 123.54 177.447 123.808C178.381 124.076 178.451 122.671 177.179 122.201C175.911 121.736 175.043 122.004 175.043 122.004ZM191.579 122.004C191.579 122.004 190.11 123.54 189.171 123.808C188.236 124.076 188.171 122.671 189.438 122.201C190.711 121.736 191.579 122.004 191.579 122.004ZM186.255 137.039C185.269 137.039 184.222 137.02 183.118 136.987C172.648 136.639 167.967 135.512 167.934 135.502C167.793 135.455 167.718 135.305 167.765 135.164C167.812 135.023 167.962 134.948 168.103 134.995C168.16 135.009 172.864 136.113 183.137 136.451C193.011 136.78 198.185 135.469 198.237 135.455C198.378 135.418 198.528 135.502 198.561 135.648C198.599 135.789 198.514 135.939 198.369 135.972C198.326 135.986 194.171 137.039 186.255 137.039Z" fill="#23211F"/>
<path d="M182.851 144.227C181.114 144.227 179.611 144.086 178.381 143.894C174.822 143.349 172.803 142.334 172.719 142.291C172.672 142.268 172.63 142.235 172.596 142.195C172.561 142.154 172.535 142.108 172.519 142.058C172.503 142.007 172.497 141.954 172.501 141.902C172.506 141.849 172.521 141.798 172.545 141.751C172.644 141.554 172.888 141.474 173.085 141.577C173.123 141.596 175.113 142.587 178.541 143.109C181.715 143.593 186.809 143.762 193.035 141.822C193.136 141.791 193.245 141.802 193.339 141.851C193.432 141.901 193.502 141.985 193.534 142.086C193.565 142.187 193.556 142.296 193.507 142.39C193.459 142.484 193.375 142.555 193.274 142.587C189.283 143.833 185.743 144.227 182.851 144.227Z" fill="white"/>
<path d="M185.87 147.088C186.058 145.97 186.664 144.655 187.016 143.964C185.513 144.157 184.119 144.232 182.846 144.232C181.461 144.232 180.226 144.138 179.161 144.006C179.696 144.829 180.485 146.421 180.123 148.296C179.588 151.04 178.386 152.98 178.785 156.255C179.184 159.534 180.391 165.957 181.057 166.291C181.724 166.624 184.936 166.69 185.4 165.421C185.87 164.153 187.607 155.992 187.274 153.915C186.941 151.838 185.602 148.695 185.87 147.088ZM159.798 121.403C159.798 121.403 163.742 128.962 165.014 129.23C166.282 129.498 173.836 129.498 175.71 128.492C177.583 127.487 177.649 125.814 178.987 124.945C180.325 124.076 182.33 125.279 183.198 125.415V129.094C183.198 129.094 180.057 133.04 178.32 133.374C176.583 133.708 167.291 133.374 165.418 133.106C163.544 132.838 161.408 131.302 160.737 130.029C160.07 128.76 155.99 121.398 155.99 121.398H159.798V121.403Z" fill="black"/>
<path d="M206.458 121.868C206.458 121.868 202.58 128.958 201.312 129.225C200.04 129.493 192.49 129.493 190.617 128.488C188.743 127.482 188.678 125.81 187.34 124.94C186.001 124.071 183.997 125.274 183.128 125.41V129.089C183.128 129.089 186.269 133.036 188.006 133.369C189.743 133.703 199.035 133.369 200.909 133.101C202.782 132.834 204.918 131.297 205.59 130.024C206.256 128.756 210.271 121.797 210.271 121.797L206.458 121.868Z" fill="black"/>
<path opacity="0.2" d="M95.7691 74.5224C95.7691 74.5224 94.9803 112.856 97.605 133.595C100.521 156.636 111.775 201.068 137.749 227.585C163.723 254.103 182.874 258.04 182.874 258.04V31.9882L95.7691 74.5224Z" fill="url(#paint8_linear_373_3684)"/>
<path d="M53.5263 218.259C40.084 200.838 37.4359 193.56 38.0979 194.664C38.7599 195.768 47.5728 211.644 73.1382 229.728C94.337 244.725 128.471 252.905 128.471 252.905C128.471 252.905 96.5438 240.177 74.6782 221.125C62.6914 210.681 53.0193 196.421 48.1503 185.779C48.1503 185.779 45.2769 180.029 43.9294 173.103C42.5818 166.183 45.8591 159.53 45.8591 159.53C45.8591 159.53 47.0282 160.427 49.3194 162.273C51.6107 164.115 54.5311 166.366 56.0571 166.497C57.583 166.634 64.546 164.881 69.3961 163.664C74.2463 162.452 79.4579 161.865 79.4579 161.865C79.4579 161.865 79.9509 162.316 82.5098 162.227C85.0687 162.137 85.0687 159.262 85.0687 159.262L84.2142 159.666C83.3596 160.07 81.6975 159.891 81.6975 159.891C81.6975 159.891 83.1812 159.53 82.9981 158.092C82.8197 156.654 80.9322 154.902 80.9322 154.902C80.9322 154.902 81.2468 155.935 80.9792 156.88C80.7116 157.824 79.0495 158.139 79.0495 158.139C79.0495 158.139 79.2279 157.462 78.8241 156.339C78.4203 155.217 77.0728 154.272 77.0728 154.272C77.0728 154.272 77.6127 155.668 77.5658 156.161C77.5188 156.654 75.7253 157.646 74.0162 157.284C72.3071 156.922 72.8048 154.272 72.8048 154.272C72.8048 154.272 72.3118 154.451 71.6357 155.484C70.9643 156.518 73.2086 158.407 73.2086 158.407C73.2086 158.407 72.7156 158.543 68.5839 158.632C64.4521 158.722 56.7285 158.994 56.7285 158.994C56.7285 158.994 53.0005 150.095 50.2162 145.872C47.432 141.648 44.5116 140.027 44.5116 140.027L72.3635 131.87L67.2222 117.54C67.2222 117.54 39.2999 133.961 37.9101 133.289C36.5156 132.617 33.6891 130.099 30.8579 125.377C28.0267 120.66 28.3882 116.253 28.3882 116.253C28.3882 116.253 33.7783 113.467 40.1544 111.442C46.5305 109.422 54.7987 108.881 54.7987 108.881C54.7987 108.881 53.855 109.6 53.7188 111.578C53.5827 113.556 56.2355 113.913 56.2355 113.913C56.2355 113.913 55.0241 111.893 55.7425 110.902C56.4608 109.915 57.9445 110.004 59.4705 110.902C60.9964 111.799 60.9542 114.543 60.9542 114.543C60.9542 114.543 61.8509 113.913 62.1655 112.161C62.4801 110.408 61.4941 109.06 61.4941 109.06C61.4941 109.06 62.4378 109.107 63.8276 110.183C65.2221 111.263 65.1751 113.646 65.1751 113.646C65.1751 113.646 66.8842 111.489 66.3442 109.736C65.8043 107.984 63.7854 106.814 63.7854 106.814C63.7854 106.814 64.4145 106.636 65.6728 106.814C66.518 106.936 68.2787 108.163 68.2787 108.163C68.2787 108.163 67.9171 104.568 65.1329 103.802C62.3486 103.037 59.879 104.028 59.879 104.028C59.879 104.028 48.0236 101.063 34.4544 104.207C26.6557 106.015 20.7116 108.43 18.7349 109.868C16.7582 111.306 14.7815 113.016 13.481 120.566C11.9691 129.324 16.223 136.118 16.223 136.118C16.223 136.118 9.46188 145.322 11.462 161.559C13.8566 180.996 21.7211 194.871 43.6101 217.385C59.4799 233.703 79.5331 244.95 79.5331 244.95L82.3971 244.067C82.3971 244.062 72.8001 243.236 53.5263 218.259Z" fill="url(#paint9_linear_373_3684)"/>
<path d="M289.479 217.785C303.903 201.167 306.964 194.053 306.241 195.115C305.518 196.177 295.803 211.522 269.238 228.102C247.208 241.85 217.76 248.343 217.76 248.343C217.76 248.343 245.269 237.184 268.196 219.424C280.765 209.689 291.24 196.008 296.714 185.667C296.714 185.667 299.916 180.09 301.658 173.258C303.4 166.427 300.513 159.596 300.513 159.596C300.513 159.596 299.297 160.427 296.902 162.133C294.508 163.838 291.465 165.915 289.934 165.962C288.404 166.009 281.553 163.857 276.778 162.368C272.008 160.878 266.839 159.99 266.839 159.99C266.839 159.99 266.322 160.408 263.768 160.173C261.219 159.934 261.383 157.063 261.383 157.063L262.214 157.514C263.04 157.965 264.712 157.885 264.712 157.885C264.712 157.885 263.252 157.439 263.515 156.015C263.777 154.592 265.759 152.947 265.759 152.947C265.759 152.947 265.383 153.962 265.599 154.921C265.815 155.879 267.454 156.288 267.454 156.288C267.454 156.288 267.313 155.602 267.782 154.507C268.252 153.408 269.651 152.543 269.651 152.543C269.651 152.543 269.031 153.901 269.05 154.399C269.064 154.897 270.801 155.987 272.529 155.724C274.252 155.466 273.914 152.788 273.914 152.788C273.914 152.788 274.398 152.994 275.008 154.066C275.623 155.137 273.271 156.889 273.271 156.889C273.271 156.889 273.755 157.054 277.877 157.383C282 157.712 289.695 158.426 289.695 158.426C289.695 158.426 293.93 149.757 296.954 145.698C299.977 141.638 302.987 140.191 302.987 140.191L284.155 132.575L296.616 120.731C296.616 120.731 308.537 134.436 309.969 133.839C311.396 133.247 314.368 130.898 317.462 126.35C320.561 121.802 320.453 117.386 320.453 117.386C320.453 117.386 315.232 114.294 308.983 111.907C302.734 109.52 294.512 108.506 294.512 108.506C294.512 108.506 295.414 109.276 295.432 111.259C295.451 113.242 292.789 113.448 292.789 113.448C292.789 113.448 294.118 111.498 293.456 110.47C292.794 109.441 291.31 109.445 289.733 110.253C288.155 111.062 288.042 113.801 288.042 113.801C288.042 113.801 287.183 113.119 286.967 111.353C286.756 109.586 287.817 108.294 287.817 108.294C287.817 108.294 286.873 108.285 285.422 109.281C283.972 110.277 283.878 112.659 283.878 112.659C283.878 112.659 282.3 110.408 282.939 108.689C283.577 106.969 285.662 105.922 285.662 105.922C285.662 105.922 285.042 105.705 283.779 105.813C282.929 105.884 281.103 107.012 281.103 107.012C281.103 107.012 281.671 103.441 284.493 102.839C287.319 102.238 289.728 103.366 289.728 103.366C289.728 103.366 301.738 101.087 315.096 105.01C322.777 107.265 328.576 110.019 330.463 111.569C332.356 113.119 334.229 114.938 335.093 122.554C336.098 131.387 331.463 137.922 331.463 137.922C331.463 137.922 337.685 147.497 334.75 163.594C331.238 182.857 322.59 196.257 299.442 217.47C282.662 232.848 268.632 241.427 268.632 241.427L266.867 240.102C266.857 240.107 268.801 241.605 289.479 217.785Z" fill="url(#paint10_linear_373_3684)"/>
<path d="M141.749 166.558C141.749 166.558 143.303 97.4879 143.158 96.5436C143.012 95.5992 142.702 94.3917 142.702 94.3917C142.702 94.3917 142.04 95.4676 141.829 97.004C141.618 98.5357 137.786 166.779 137.786 166.779L141.749 166.558Z" fill="url(#paint11_linear_373_3684)"/>
<path d="M142.702 94.3917L139.101 166.704H136.753L141.453 96.4261L142.702 94.3917Z" fill="white"/>
<path d="M167.751 206.438C167.751 206.438 167.333 210.582 167.437 213.476C167.54 216.37 168.366 220.505 168.366 220.505C168.366 220.505 169.399 219.058 173.014 219.575C176.63 220.092 176.733 221.125 176.733 221.125C176.733 221.125 180.348 212.649 181.071 209.75C181.795 206.856 182.931 204.686 182.931 204.686C182.931 204.686 181.588 202.412 180.968 201.068C180.348 199.724 179.935 198.484 179.935 198.484L175.024 208.092C175.024 208.092 170.545 207.885 167.751 206.438ZM184.621 207.65C184.621 207.65 187.067 215.802 188.255 218.231C189.443 220.66 190.528 221.952 190.528 221.952C190.528 221.952 191.767 220.195 193.781 219.678C195.796 219.161 197.5 218.954 197.5 218.954C197.5 218.954 189.617 213.664 184.621 207.65Z" fill="black"/>
<path d="M190.528 221.952C190.528 221.952 190.166 222.934 190.373 224.278C190.579 225.621 191.199 226.552 191.199 226.552C191.199 226.552 193.885 227.895 196.364 227.12C198.843 226.345 199.256 225.001 199.256 225.001C199.256 225.001 199.824 223.658 199.669 222.107C199.514 220.557 199.411 220.298 199.411 220.298L197.5 218.954C197.505 218.954 191.509 219.316 190.528 221.952Z" fill="url(#paint12_linear_373_3684)"/>
<path d="M191.199 226.556C191.199 226.556 191.044 229.347 192.025 231.776C193.007 234.205 195.589 239.167 196.88 242.686C198.171 246.2 198.481 249.611 198.791 251.42C199.101 253.229 198.843 254.108 198.843 254.108C198.843 254.108 200.444 254.779 202.097 254.521C203.749 254.263 205.454 252.971 205.454 252.971L204.421 249.353C204.421 249.353 202.82 244.133 202.82 241.497C202.82 238.861 202.148 230.536 201.219 228.624C200.289 226.711 199.256 225.006 199.256 225.006C199.256 225.006 197.862 226.97 196.054 227.28C194.246 227.59 192.077 227.125 191.199 226.556Z" fill="url(#paint13_linear_373_3684)"/>
<path opacity="0.4" d="M195.228 219.044C195.228 219.044 196.697 222.572 196.843 223.601C196.988 224.63 197.284 226.834 197.284 226.834L203.012 254.328L204.834 253.328L202.425 242.564L200.956 229.183L199.256 224.997C199.256 224.997 199.045 221.98 199.045 221.097C199.045 220.214 197.5 218.95 197.5 218.95" fill="white"/>
<path d="M198.847 254.108C198.847 254.108 197.866 255.916 197.35 256.537C196.833 257.157 195.49 259.069 195.439 259.999C195.387 260.93 196.73 262.377 196.73 262.377C196.73 262.377 198.383 262.945 201.895 262.428C205.407 261.912 206.491 260.568 206.646 259.638C206.801 258.707 206.595 257.519 206.336 256.64C206.078 255.761 204.838 253.332 204.838 253.332C204.838 253.332 202.768 254.516 201.895 254.573C200.294 254.676 198.847 254.108 198.847 254.108Z" fill="black"/>
<path d="M179.94 198.484C179.94 198.484 177.771 203.755 176.944 206.339L176.118 208.924C176.118 208.924 172.193 208.717 169.92 207.89C167.648 207.063 164.526 204.192 164.526 204.192C164.526 204.192 166.822 196.722 168.061 193.518C169.301 190.313 170.54 188.556 170.54 188.556C170.54 188.556 172.709 191.347 175.292 192.071C177.874 192.794 178.494 192.897 178.494 192.897C178.494 192.897 179.32 197.554 179.94 198.484Z" fill="url(#paint14_linear_373_3684)"/>
<path d="M176.118 208.928L176.944 206.344C177.771 203.76 179.94 198.489 179.94 198.489C179.752 198.207 179.541 197.572 179.344 196.835L175.029 208.097C175.029 208.097 173.263 207.989 170.512 206.993C168.352 206.213 165.784 204.211 164.775 203.389C164.615 203.896 164.521 204.202 164.521 204.202C164.521 204.202 167.643 207.072 169.916 207.899C172.188 208.722 176.118 208.928 176.118 208.928Z" fill="white"/>
<path d="M162.737 161.419C162.737 161.419 157.624 165.811 157.21 166.793C156.797 167.775 156.487 168.602 156.487 168.602C156.487 168.602 154.163 169.636 152.769 170.98C151.374 172.323 150.393 173.977 150.393 173.977C150.393 173.977 155.351 175.786 155.454 177.388C155.558 178.99 155.454 181.368 155.454 181.368C155.454 181.368 156.642 180.386 157.572 179.404C158.502 178.422 158.967 178.713 159.431 178.163C160.38 177.045 162.065 175.683 162.84 174.597C163.615 173.512 163.821 173.15 164.131 173.15C164.441 173.15 165.061 173.183 165.061 173.183L166.817 167.667L165.164 161.259L162.737 161.419Z" fill="black"/>
<path d="M170.535 188.561C170.535 188.561 171.878 186.01 171.878 185.112C171.878 184.215 171.672 181.734 171.052 180.978C170.432 180.221 168.643 178.633 167.883 177.529C167.127 176.425 165.061 173.188 165.061 173.188C165.061 173.188 166.023 170.153 166.023 169.88C166.023 169.608 168.225 157.885 168.225 157.885C168.225 157.885 174.7 161.334 178.973 159.055C183.241 156.781 186.241 152.059 186.241 152.059L193.922 158.919L199.5 188.349L182.691 193.659L178.489 192.902C178.494 192.902 173.672 192.418 170.535 188.561Z" fill="url(#paint15_linear_373_3684)"/>
<path d="M185.861 151.961C185.861 151.961 188.997 150.377 194.472 151.89C200.946 153.68 203.839 159.267 203.839 159.267C203.839 159.267 200.463 159.13 197.847 158.989C195.232 158.848 192.481 159.14 192.481 159.14C192.481 159.14 188.964 157.129 188.138 156.438C187.311 155.748 186.692 154.507 186.692 154.507L185.861 151.961Z" fill="url(#paint16_linear_373_3684)"/>
<path d="M172.183 163.857C172.183 163.857 183.964 159.238 192.157 158.618C200.355 157.998 209.848 161.78 209.848 161.78C209.848 161.78 213.172 188.702 211.684 199.179C209.689 213.241 201.693 220.331 201.693 220.331C201.693 220.331 185.339 212.828 180.278 201.763C175.212 190.703 172.183 163.857 172.183 163.857Z" fill="url(#paint17_linear_373_3684)"/>
<path d="M173.395 164.299C173.395 164.299 185.175 159.68 193.368 159.06C201.566 158.44 211.276 160.714 211.276 160.714C211.276 160.714 214.384 189.143 212.896 199.621C210.9 213.683 202.392 222.126 202.392 222.126C202.392 222.126 186.551 213.27 181.489 202.205C176.428 191.145 173.395 164.299 173.395 164.299Z" fill="white"/>
<path d="M173.944 165.022C173.944 165.022 185.396 160.531 193.368 159.929C201.341 159.328 210.783 161.536 210.783 161.536C210.783 161.536 213.806 189.181 212.356 199.372C210.412 213.044 202.143 221.257 202.143 221.257C202.143 221.257 186.739 212.645 181.818 201.885C176.893 191.126 173.944 165.022 173.944 165.022Z" fill="url(#paint18_linear_373_3684)"/>
<path opacity="0.5" d="M192.617 159.995C184.701 160.808 173.949 165.022 173.949 165.022C173.949 165.022 176.897 191.126 181.818 201.885C186.738 212.645 202.143 221.257 202.143 221.257L202.242 221.158L192.617 159.995Z" fill="url(#paint19_linear_373_3684)"/>
<path d="M168.366 220.505C168.366 220.505 167.953 221.158 167.676 222.469C167.399 223.78 167.469 224.743 167.469 224.743C167.469 224.743 170.291 226.326 172.841 226.467C175.39 226.603 175.597 226.124 175.597 226.124C175.597 226.124 176.63 224.334 176.766 223.366C176.902 222.403 176.733 221.125 176.733 221.125C176.733 221.125 175.526 219.781 173.014 219.575C170.503 219.368 169.122 219.711 168.366 220.505Z" fill="url(#paint20_linear_373_3684)"/>
<path d="M167.47 224.743C167.258 224.621 166.145 227.741 166.094 233.839C166.042 239.937 166.249 246.402 165.939 247.953C165.629 249.503 165.113 251.622 165.113 251.622C165.113 251.622 166.61 252.759 168.211 252.656C169.812 252.553 171 251.829 171 251.829C171 251.829 171.31 247.953 171.93 245.886C172.55 243.818 175.132 236.893 175.597 234.924C176.062 232.96 176.423 230.17 176.217 229.033C176.01 227.896 175.597 226.12 175.597 226.12C175.597 226.12 171.93 227.28 167.47 224.743Z" fill="url(#paint21_linear_373_3684)"/>
<path opacity="0.4" d="M171.719 219.927L170.69 225.809L167.46 252.421L165.404 252.125L166.577 247.422C166.577 247.422 166.282 229.338 166.873 227.28L167.46 225.222C167.46 225.222 167.46 221.252 168.93 220.369C170.399 219.485 171.719 219.927 171.719 219.927Z" fill="white"/>
<path d="M165.113 251.627C165.113 251.627 163.338 254.004 162.446 254.695C161.549 255.386 158.76 257.072 158.417 257.796C158.074 258.519 158.107 259.999 158.521 260.413C158.934 260.826 161.103 261.31 163.342 260.756C165.582 260.206 166.615 258.825 167.512 258.242C168.409 257.655 170.197 256.278 170.301 256.104C170.404 255.931 170.578 254.587 170.611 253.863C170.644 253.14 170.334 252.106 170.334 252.106C170.334 252.106 167.056 253.177 165.113 251.627Z" fill="black"/>
<path d="M151.562 172.497L143.022 171.557C143.022 171.557 143.843 173.366 143.515 174.513C143.186 175.654 142.665 176.575 142.665 176.575L155.145 181.758C155.145 181.758 156.779 178.267 156.342 176.993C155.417 174.292 151.562 172.497 151.562 172.497Z" fill="url(#paint22_linear_373_3684)"/>
<path d="M168.16 156.786C168.16 156.786 163.033 156.838 160.309 158.51C156.384 160.92 156.591 165.403 156.591 165.403C156.591 165.403 159.896 162.579 161.69 162.095C163.483 161.611 164.098 161.682 164.098 161.682C164.098 161.682 162.239 164.44 162.929 166.784C163.619 169.128 166.028 169.885 166.028 169.885C166.028 169.885 167.887 163.819 168.507 161.959C169.127 160.098 169.127 160.028 169.127 160.028L168.16 156.786Z" fill="url(#paint23_linear_373_3684)"/>
<path d="M168.16 156.786C168.16 156.786 169.296 153.304 167.746 147.826C166.728 144.232 168.366 139.04 170.845 138.213C173.324 137.386 175.39 137.8 177.766 139.557C180.142 141.314 181.381 148.24 182.104 149.48C182.827 150.72 186.236 152.064 186.236 152.064C186.236 152.064 186.133 158.303 177.663 160.643C170.286 162.682 166.709 157.195 166.709 157.195L168.16 156.786Z" fill="url(#paint24_linear_373_3684)"/>
<path d="M167.127 147.93L173.944 147.826L180.56 142.963L182.419 149.067L176.944 158.886L167.85 152.167L167.127 147.93Z" fill="url(#paint25_linear_373_3684)"/>
<path d="M168.47 148.963L174.151 149.066L179.527 144.824L179.63 146.684L174.667 150.72L168.779 150.1L168.47 148.963ZM139.838 169.791L139.28 179.822L138.899 180.343L137.416 179.549L137.909 169.424L139.838 169.791Z" fill="black"/>
<path d="M139.279 179.822C139.279 179.822 139.965 180.865 139.674 182.058C139.383 183.247 138.627 184.013 137.594 183.764C136.556 183.515 136.439 182.195 136.655 181.222C136.871 180.25 137.42 179.549 137.42 179.549L138.904 180.343L139.279 179.822ZM141.857 168.837C141.857 168.837 144.932 166.723 144.393 166.521C143.853 166.319 133.828 166.371 133.702 166.521C133.579 166.671 134.81 168.443 135.49 168.635C136.167 168.823 141.857 168.837 141.857 168.837Z" fill="black"/>
<path d="M142.731 176.594C142.731 176.594 141.256 176.984 140.223 176.975C139.19 176.965 138.603 176.533 138.603 176.533L139.557 170.914L139.153 170.712C139.153 170.712 138.209 171.76 137.467 171.529C136.725 171.299 135.955 170.529 136.434 169.979C136.913 169.429 138.233 168.682 138.744 168.433C139.256 168.184 139.242 168.02 139.392 168.057C139.543 168.095 142.397 168.701 142.397 169.368C142.397 170.031 142.67 171.003 142.918 171.515C143.167 172.027 143.745 173.601 143.552 174.405C143.36 175.203 142.731 176.594 142.731 176.594Z" fill="#4D2E0C"/>
<path d="M138.317 168.645C138.317 168.645 136.115 168.085 135.542 168.137C134.974 168.184 134.265 168.814 134.364 169.396C134.462 169.979 134.772 170.345 134.772 170.345C134.772 170.345 133.927 170.646 133.814 171.233C133.702 171.816 134.472 172.803 134.472 172.803C134.472 172.803 133.875 173.193 134.03 173.864C134.185 174.541 135.129 175.034 135.129 175.034C135.129 175.034 135.012 176.068 135.73 176.402C136.448 176.735 136.617 176.801 137.603 176.669C138.594 176.533 139.35 175.814 139.214 175.382C139.078 174.95 138.608 174.809 138.608 174.809C138.608 174.809 139.092 174.447 138.909 173.897C138.721 173.348 138.406 173.113 138.406 173.113C138.406 173.113 138.847 172.821 138.955 172.154C139.063 171.487 138.697 171.135 138.697 171.135C138.697 171.135 137.815 171.717 137.195 171.412C136.58 171.102 135.908 170.463 136.312 170.002C136.725 169.537 138.317 168.645 138.317 168.645Z" fill="#4D2E0C"/>
<path d="M175.944 166.206C175.944 166.206 186.401 162.104 193.678 161.555C200.956 161.005 209.576 163.025 209.576 163.025C209.576 163.025 212.337 188.265 211.013 197.568C209.238 210.051 201.688 217.545 201.688 217.545C201.688 217.545 187.621 209.68 183.128 199.86C178.635 190.041 175.944 166.206 175.944 166.206Z" fill="url(#paint26_linear_373_3684)"/>
<path d="M192.88 161.705L201.693 217.545C201.693 217.545 211.985 207.575 211.543 189.195C211.102 170.815 209.581 163.021 209.581 163.021C209.581 163.021 197.138 160.234 192.88 161.705Z" fill="url(#paint27_linear_373_3684)"/>
<path d="M177.452 165.821C177.452 165.821 181.419 196.548 185.532 201.989C189.645 207.429 201.688 217.545 201.688 217.545C201.688 217.545 185.236 207.721 182.006 197.723C178.776 187.725 175.944 166.201 175.944 166.201L177.452 165.821Z" fill="white"/>
<path d="M102.441 210.225C102.441 210.225 97.3325 217.695 97.201 218.024C97.0696 218.353 93.1209 217.235 91.6748 215.919C90.2287 214.604 89.5056 213.683 89.5056 213.683L92.3744 207.434L102.441 210.225Z" fill="black"/>
<path d="M96.6095 191.629L97.3701 186.776C98.403 187.443 101.563 191.558 108.535 190.525C113.907 189.731 117.691 190.248 120.278 189.078L120.419 189.064C120.419 189.064 121.273 192.818 121.339 194.396C121.405 195.975 122.062 209.074 122.062 209.074C122.062 209.074 115.71 213.378 107.92 212.56C95.4591 211.254 89.1394 205.888 89.1394 205.888L96.6095 191.629Z" fill="url(#paint28_linear_373_3684)"/>
<path d="M99.4125 189.181L98.1636 193.856L91.8486 201.359H88.1628C88.1628 201.359 91.8486 192.738 93.1632 190.501C94.4779 188.265 95.0695 187.739 95.0695 187.739C95.0695 187.739 97.1072 189.115 99.4125 189.181Z" fill="url(#paint29_linear_373_3684)"/>
<path d="M97.5251 193.536L90.6514 201.355H91.8486L98.1637 193.851L99.4126 189.176C99.2436 189.172 99.0746 189.158 98.9055 189.139L98.6285 189.416L97.5251 193.536Z" fill="white"/>
<path d="M107.732 190.741C113.047 189.952 117.611 190.055 120.208 188.89L120.424 188.838C120.424 188.838 121.015 190.482 121.212 192.258C121.41 194.034 121.87 203.647 121.87 203.647L112.944 206.471L102.727 195.284L102.07 190.544L102.511 190.44C103.882 190.468 105.831 191.023 107.732 190.741Z" fill="url(#paint30_linear_373_3684)"/>
<path d="M121.87 203.652C121.87 203.652 121.856 203.323 121.827 202.778L113.245 205.592L103.253 195.007L102.666 191.112L102.23 190.515L102.075 190.553L102.732 195.294L112.949 206.48L121.87 203.652Z" fill="white"/>
<path d="M120.687 209.727V218.809C120.687 218.809 116.606 220.453 114.503 220.059C112.4 219.664 111.282 218.612 111.282 218.612L110.362 212.358C110.357 212.363 116.212 211.902 120.687 209.727Z" fill="black"/>
<path d="M124.893 226.383L121.01 233.689L117.456 230.926C117.456 230.926 112.061 224.87 111.601 223.554C111.141 222.239 111.273 218.616 111.273 218.616C111.273 218.616 113.705 220.063 115.024 220.195C116.339 220.326 119.367 219.077 119.367 219.077C119.367 219.077 119.827 216.577 120.09 216.051C120.353 215.525 121.931 214.407 122.522 214.735C123.114 215.064 122.588 218.555 122.588 218.555C122.588 218.555 123.18 219.213 123.837 220.068C124.494 220.923 124.823 222.568 124.823 222.568L124.893 226.383Z" fill="url(#paint31_linear_373_3684)"/>
<path d="M124.851 226.204L121.015 233.684C121.015 233.684 122.09 235.418 123.405 238.269C124.72 241.121 124.283 244.016 124.283 244.016C124.283 244.016 127.969 244.279 129.236 244.016C130.509 243.752 132.701 243.663 132.701 243.663L133.448 243.137L133.537 239.843C133.537 239.843 129.852 237.165 129.02 235.85C128.189 234.534 127.79 231.725 127.091 228.741C126.391 225.758 124.809 222.817 124.809 222.817L124.851 226.204Z" fill="url(#paint32_linear_373_3684)"/>
<path d="M132.439 243.668L132.307 247.704C132.307 247.704 131.476 251.871 130.772 252.355C130.072 252.839 127.396 253.586 126.081 253.539C124.767 253.497 124.152 253.365 124.152 253.365C124.152 253.365 122.705 251.129 122.921 250.25C123.142 249.372 124.457 246.651 124.677 245.951C124.898 245.251 125.203 244.063 125.203 244.063C125.203 244.063 128.405 244.283 132.439 243.668Z" fill="url(#paint33_linear_373_3684)"/>
<path d="M130.598 251.918L132.307 247.356L132.317 247.365L132.307 247.708C132.307 247.708 131.476 251.876 130.772 252.36C130.072 252.844 127.396 253.591 126.081 253.544C125.433 253.52 124.955 253.478 124.635 253.44C127.358 253.083 130.598 251.918 130.598 251.918Z" fill="black"/>
<path d="M97.2059 218.02L97.6237 221.158L96.3091 226.293L89.2475 228.882C89.2475 228.882 88.1066 225.504 88.1066 225.33C88.1066 225.156 88.238 220.679 88.238 220.679C88.238 220.679 87.5384 218.879 87.5807 217.827C87.623 216.775 88.7216 214.054 88.7216 214.054L89.5104 213.528C89.5104 213.528 90.9565 215.68 92.8863 216.685C94.816 217.691 97.2059 218.02 97.2059 218.02Z" fill="url(#paint34_linear_373_3684)"/>
<path d="M87.5807 217.822C87.6229 216.77 88.7216 214.049 88.7216 214.049L89.5104 213.523C89.5104 213.523 90.9565 215.675 92.8863 216.68C94.816 217.691 97.2058 218.02 97.2058 218.02L97.6237 221.158C97.6237 221.158 90.2616 221.158 88.1911 220.538C88.0267 220.101 87.5431 218.705 87.5807 217.822Z" fill="url(#paint35_linear_373_3684)"/>
<path d="M115.029 220.195C116.344 220.326 119.372 219.077 119.372 219.077C119.372 219.077 119.832 216.577 120.095 216.051C120.358 215.525 121.935 214.407 122.527 214.735C123.119 215.064 122.593 218.555 122.593 218.555C122.593 218.555 123.184 219.213 123.842 220.068C124.33 220.707 124.64 221.783 124.762 222.29L122.029 226.256L117.916 228.755L115.113 228.22C113.597 226.43 111.86 224.278 111.606 223.554C111.146 222.239 111.277 218.616 111.277 218.616C111.277 218.616 113.714 220.063 115.029 220.195Z" fill="url(#paint36_linear_373_3684)"/>
<path opacity="0.4" d="M114.503 220.063L118.278 228.821L121.015 233.689L117.461 230.921L111.611 223.549L111.334 219.011L114.503 220.063Z" fill="white"/>
<path d="M97.6191 221.158C97.6191 221.158 98.2764 221.816 97.4453 224.799L94.7691 234.407C94.7691 234.407 94.8113 236.907 94.8113 237.349C94.8113 237.786 95.9523 240.905 95.9523 241.384C95.9523 241.868 95.6893 242.789 95.2057 243.226C94.7221 243.663 93.9756 244.453 93.9756 244.453L92.0036 244.058L86.2144 240.285L85.0735 238.617C85.0735 238.617 87.5713 234.755 87.8812 233.44C88.1864 232.124 88.5385 226.726 88.5385 226.726L89.2381 228.873L96.2997 226.284L97.6191 221.158Z" fill="url(#paint37_linear_373_3684)"/>
<path d="M93.9803 244.462C93.9803 244.462 94.0225 245.909 93.1023 246.435C92.182 246.961 91.8299 246.919 91.2148 246.919C90.5997 246.919 87.1816 247.008 87.1816 247.008C87.1816 247.008 80.2515 249.029 78.3218 248.939C76.392 248.85 75.0774 248.239 75.0774 248.239C75.0774 248.239 75.1196 247.098 76.655 245.956C78.1903 244.814 83.5851 242.094 84.5899 241.262C85.5993 240.431 85.9045 239.815 85.9045 239.815L86.2097 240.299L91.9989 244.072L93.9803 244.462Z" fill="url(#paint38_linear_373_3684)"/>
<path d="M91.4824 245.862C92.6139 245.655 93.29 244.753 93.5295 244.368L93.9802 244.457C93.9802 244.457 94.0225 245.904 93.1022 246.431C92.182 246.957 91.8298 246.914 91.2148 246.914C90.5997 246.914 87.1816 247.004 87.1816 247.004C87.1816 247.004 80.2515 249.024 78.3217 248.935C77.9696 248.921 77.6362 248.883 77.3311 248.841C79.0918 248.465 90.149 246.106 91.4824 245.862Z" fill="black"/>
<path d="M103.305 158.867L94.6328 161.592C94.6328 161.592 93.52 165.097 92.3603 167.165C91.1959 169.232 90.9048 170.153 90.9048 170.153L100.29 168.057C100.29 168.057 100.83 163.157 101.751 161.212C102.666 159.276 103.305 158.867 103.305 158.867Z" fill="url(#paint39_linear_373_3684)"/>
<path d="M101.549 162.165C101.549 162.165 99.8069 162.222 98.3279 161.447L96.8489 160.671C96.8489 160.671 99.0415 157.918 101.605 157.514C104.169 157.11 107.385 157.415 107.385 157.415L106.446 158.026L102.906 159.018C102.901 159.022 101.685 161.094 101.549 162.165Z" fill="url(#paint40_linear_373_3684)"/>
<path d="M122.654 171.825C122.654 171.825 119.724 178.384 119.259 179.554C118.794 180.724 118.522 181.946 118.522 181.946C118.522 181.946 113.287 182.594 107.38 181.485C101.474 180.376 99.6192 179.446 99.6192 179.446C99.6192 179.446 99.2248 176.477 99.5065 173.263C100.643 160.347 103.239 158.726 103.239 158.726L105.836 158.12L118.099 161.047L122.654 171.825Z" fill="url(#paint41_linear_373_3684)"/>
<path opacity="0.5" d="M105.385 160.676L106.193 157.881L103.235 158.717C103.235 158.717 100.643 160.343 99.5018 173.254C99.2201 176.467 99.6145 179.437 99.6145 179.437C99.6145 179.437 100.394 179.827 102.544 180.405C103.338 174.165 105.385 160.676 105.385 160.676Z" fill="white"/>
<path d="M118.48 183.303L118.517 181.946C118.517 181.946 112.658 182.627 106.343 181.264C100.028 179.902 99.6098 179.446 99.6098 179.446L99.0464 180.724C99.0511 180.724 107.662 183.891 118.48 183.303Z" fill="black"/>
<path d="M118.104 155.968C118.104 155.968 119.32 153.257 119.668 152.67C120.015 152.083 122.513 147.225 121.701 144.443C120.884 141.662 117.578 140.144 114.963 140.365C112.348 140.591 111.672 141.54 111.672 141.54L111.348 140.262C111.348 140.262 109.371 141.62 108.207 143.663C107.042 145.707 106.62 147.046 106.62 147.046L104.305 146.854C104.305 146.854 105.991 153.845 106.591 154.465C107.192 155.09 108.08 155.658 108.08 155.658L106.751 157.472C106.751 157.476 114.015 157.552 118.104 155.968Z" fill="url(#paint42_linear_373_3684)"/>
<path d="M118.104 155.968C114.015 157.556 106.751 157.477 106.751 157.477L108.08 155.663C108.08 155.663 115.606 155.141 118.733 154.587C118.395 155.315 118.104 155.968 118.104 155.968Z" fill="black"/>
<path d="M118.391 144.622C118.808 144.227 120.996 145.012 119.921 146.727C119.062 148.094 115.17 151.373 115.17 151.373L108.08 155.663C108.08 155.663 107.192 155.094 106.591 154.47C105.991 153.845 104.305 146.858 104.305 146.858L106.62 147.051L114.677 147.751C114.677 147.751 118.184 144.814 118.391 144.622Z" fill="url(#paint43_linear_373_3684)"/>
<path d="M119.541 146.243C119.597 146.042 119.572 145.826 119.47 145.644C119.367 145.462 119.197 145.327 118.996 145.27C118.795 145.214 118.58 145.24 118.398 145.342C118.216 145.444 118.081 145.614 118.024 145.815C117.976 146.014 118.007 146.223 118.11 146.399C118.213 146.576 118.38 146.705 118.577 146.761C118.773 146.816 118.983 146.793 119.163 146.696C119.343 146.6 119.478 146.437 119.541 146.243Z" fill="#4D2E0C"/>
<path d="M112.874 147.483L112.921 146.948L106.854 146.543L106.62 147.046L112.874 147.483Z" fill="black"/>
<path d="M118.193 156.048L120.973 158.811C120.973 158.811 115.132 161.616 111.381 161.588C107.629 161.559 105.047 160.667 105.047 160.667L105.831 158.115L106.751 157.472C106.751 157.472 112.01 157.242 113.724 157.011C114.85 156.861 118.104 155.964 118.104 155.964L118.193 156.048Z" fill="url(#paint44_linear_373_3684)"/>
<path d="M120.973 158.811C120.973 158.811 126.955 159.877 128.119 161.841C129.65 164.425 128.795 166.371 128.795 166.371C128.795 166.371 128.584 165.901 127.64 165.741C126.696 165.577 126.142 165.595 126.142 165.595C126.142 165.595 123.936 166.037 123.508 167.93C123.081 169.829 123.419 171.905 123.419 171.905C123.419 171.905 119.597 171.365 117.287 170.162C114.752 168.837 113.329 164.153 114.418 162.579C115.508 161.005 115.841 160.789 115.841 160.789C115.841 160.789 119.823 159.619 120.973 158.811Z" fill="url(#paint45_linear_373_3684)"/>
<path d="M128.504 166.187L128.936 167.573C128.936 167.573 124.419 168.936 124.344 168.847C124.269 168.757 123.776 167.216 123.776 167.216L127.987 165.835L128.504 166.187Z" fill="url(#paint46_linear_373_3684)"/>
<path d="M127.757 165.807C127.64 165.741 126.659 165.464 125.541 165.797C124.424 166.131 123.875 167.108 123.875 167.108L127.757 165.807Z" fill="url(#paint47_linear_373_3684)"/>
<path d="M128.72 167.616L129.809 170.176L125.72 171.252L124.621 168.823L128.72 167.616Z" fill="url(#paint48_linear_373_3684)"/>
<path d="M129.593 170.219L130.64 172.699L127.034 173.874L125.917 171.271L129.593 170.219Z" fill="url(#paint49_linear_373_3684)"/>
<path d="M130.795 173.733C130.795 173.733 130.574 173.911 130.114 174.466C129.65 175.02 129.607 176.27 129.645 176.383C129.682 176.495 127.959 175.946 127.959 175.946C127.959 175.946 127.325 174.672 127.311 174.362C127.297 174.052 130.443 172.817 130.443 172.817L130.795 173.733Z" fill="url(#paint50_linear_373_3684)"/>
<path d="M133.589 180.09C133.589 180.09 130.931 177.872 130.274 177.177C129.617 176.481 129.64 176.383 129.64 176.383C129.64 176.383 129.584 175.241 130.11 174.466C130.636 173.691 131.265 173.63 131.265 173.63C131.265 173.63 132.983 174.452 133.589 180.09Z" fill="url(#paint51_linear_373_3684)"/>
<path d="M127.955 175.946C127.955 175.946 126.626 175.575 125.368 175.424C124.109 175.279 123.738 175.514 123.762 175.42C123.79 175.326 122.288 172.751 122.288 172.751L122.649 171.825L123.414 171.905C123.414 171.905 123.119 170.284 123.311 169.11C123.504 167.935 123.771 167.221 123.771 167.221C123.771 167.221 127.171 170.566 127.138 170.693C127.1 170.82 128.931 173.93 128.894 174.057C128.856 174.184 128.931 176.12 128.772 176.073C128.617 176.03 127.955 175.946 127.955 175.946Z" fill="url(#paint52_linear_373_3684)"/>
<path d="M133.589 180.09C133.589 180.09 133.683 181.344 133.363 181.87C133.044 182.397 131.33 184.614 131.33 184.614C131.33 184.614 129.438 184.666 128.598 184.497C127.757 184.328 127.142 184.088 127.142 184.088C127.142 184.088 131.26 182.199 131.537 181.56C131.819 180.921 132.068 179.794 132.068 179.794L130.626 177.51L133.589 180.09Z" fill="url(#paint53_linear_373_3684)"/>
<path d="M127.326 184.041C127.232 184.013 125.626 184.248 125.025 184.079C124.424 183.91 123.133 183.036 123.133 183.036C123.133 183.036 125.072 181.974 125.227 181.537C125.382 181.1 126.034 179.268 125.856 178.807C125.678 178.347 123.767 175.42 123.767 175.42C123.767 175.42 125.659 175.368 126.927 175.725C128.194 176.082 129.645 176.383 129.645 176.383L132.068 179.798L131.537 181.565L127.326 184.041Z" fill="url(#paint54_linear_373_3684)"/>
<path d="M123.912 182.383L121.574 182.641C121.574 182.641 119.24 180.917 119.109 180.757C118.973 180.593 118.982 180.226 119.104 180.118C119.226 180.01 119.395 180.01 119.395 180.01C119.395 180.01 118.832 179.488 119.067 179.169C119.301 178.849 119.442 178.807 119.442 178.807C119.442 178.807 118.588 178.398 118.827 177.872L119.067 177.351C119.067 177.351 118.663 177.031 118.625 176.721L118.588 176.411L120.494 175.795L122.494 174.898C122.494 174.898 123.884 174.682 124.011 174.875C124.137 175.067 126.335 178.112 126.335 178.112L125.842 181.001C125.842 180.997 124.283 182.223 123.912 182.383Z" fill="#4D2E0C"/>
<path d="M123.255 182.472L123.86 184.971L123.677 185.493L122.259 185.197L121.579 182.641L123.255 182.472Z" fill="black"/>
<path d="M123.86 184.971C123.86 184.971 124.682 185.667 124.734 186.719C124.785 187.771 124.349 188.589 123.433 188.636C122.518 188.683 122.1 187.621 122.039 186.771C121.978 185.92 122.259 185.201 122.259 185.201L123.677 185.493L123.86 184.971ZM123.029 174.771C123.029 174.771 123.94 173.277 123.443 173.244C122.945 173.211 117.395 175.222 117.329 175.377C117.264 175.532 118.142 176.317 118.747 176.308C119.358 176.303 123.029 174.771 123.029 174.771Z" fill="black"/>
<path d="M121.546 173.827C121.546 173.827 104.981 106.871 104.629 106.124C104.277 105.381 103.727 104.46 103.727 104.46C103.727 104.46 103.446 105.513 103.643 106.828C103.84 108.144 119.442 174.569 119.442 174.569L121.546 173.827Z" fill="url(#paint55_linear_373_3684)"/>
<path d="M120.579 174.212L103.728 104.465L104.667 105.781L121.546 173.827" fill="white"/>
<path d="M98.6941 148.038C98.6941 148.038 91.609 145.026 88.8905 143.955C86.172 142.884 83.815 142.531 83.815 142.531C83.815 142.531 72.1615 183.022 71.9643 184.093C71.7671 185.164 72.1427 186.188 72.7719 186.315C73.401 186.442 80.3218 186.028 86.5335 179.376C89.7075 175.979 93.1443 167.104 95.7971 159.098C98.4499 151.092 98.6941 148.038 98.6941 148.038Z" fill="url(#paint56_linear_373_3684)"/>
<path opacity="0.7" d="M83.125 144.688C83.125 144.688 85.5477 145.016 89.1865 146.454C92.8206 147.887 95.248 149.212 95.248 149.212C95.248 149.212 92.4919 160.902 90.2899 166.526C88.0878 172.149 84.1204 178.986 84.1204 178.986C84.1204 178.986 89.9612 171.816 93.046 161.343C96.1307 150.871 96.4594 149.104 96.4594 149.104C96.4594 149.104 90.534 145.251 83.3645 144.143" fill="white"/>
<path d="M72.3072 182.82C72.3401 183.097 72.3917 183.36 72.4716 183.571C72.8284 184.492 76.716 184.3 81.5662 181.058C86.4163 177.811 89.0221 171.431 90.8814 166.986C92.7407 162.541 96.4547 149.099 96.4547 149.099C96.4547 149.099 93.0412 147.22 89.872 146.125C87.7967 145.411 85.0265 144.608 83.3597 144.138C83.6555 143.114 83.8199 142.531 83.8199 142.531C83.8199 142.531 86.1769 142.884 88.8954 143.955C91.6139 145.026 98.699 148.038 98.699 148.038C98.699 148.038 98.4595 151.092 95.802 159.098C93.1492 167.104 89.7123 175.979 86.5384 179.376C80.3266 186.028 73.4059 186.442 72.7768 186.315C72.1476 186.188 71.772 185.164 71.9692 184.093C71.988 183.994 72.1053 183.548 72.3072 182.82Z" fill="url(#paint57_linear_373_3684)"/>
<path d="M118.48 183.303C118.48 183.303 119.672 185.62 120.165 187.537C120.654 189.449 121.006 191.121 121.006 191.121C121.006 191.121 114.202 192.973 105.296 191.84C96.3887 190.708 94.52 187.382 94.52 187.382L95.9614 184.915L99.4922 180.846C99.4969 180.846 107.183 183.891 118.48 183.303Z" fill="url(#paint58_linear_373_3684)"/>
<path d="M94.7501 186.992C98.0978 190.29 104.032 191.587 111.042 191.516C117.653 191.446 120.362 190.529 120.837 190.346C120.945 190.825 121.006 191.117 121.006 191.117C121.006 191.117 114.202 192.968 105.296 191.836C96.3887 190.703 94.52 187.377 94.52 187.377L94.7501 186.992Z" fill="url(#paint59_linear_373_3684)"/>
<path d="M228.808 164.754C228.808 164.754 229.859 171.863 229.991 173.113C230.122 174.362 230.057 175.612 230.057 175.612C230.057 175.612 234.925 177.651 240.912 178.178C246.898 178.704 248.936 178.309 248.936 178.309C248.936 178.309 250.053 175.546 250.711 172.384C251.368 169.227 251.039 157.378 251.039 157.378L248.706 156.095L236.109 155.602L228.808 164.754Z" fill="url(#paint60_linear_373_3684)"/>
<path d="M251.504 187.659L251.293 187.635C250.26 188.302 247.1 189.745 240.123 188.711C234.752 187.917 230.418 186.277 227.831 185.108L227.69 185.094C227.69 185.094 226.836 188.847 226.77 190.426C226.704 192.005 226.047 205.104 226.047 205.104C226.047 205.104 232.362 208.397 240.189 208.59C248.016 208.787 258.016 207.538 258.016 207.538L251.504 187.659Z" fill="url(#paint61_linear_373_3684)"/>
<path d="M247.016 188.815L248.265 193.489L254.58 200.993H258.265C258.265 200.993 254.58 192.371 253.265 190.135C251.95 187.898 251.359 187.372 251.359 187.372C251.359 187.372 249.316 188.749 247.016 188.815Z" fill="url(#paint62_linear_373_3684)"/>
<path d="M248.781 193.316L247.711 188.749C247.481 188.782 247.246 188.805 247.011 188.81L248.26 193.485L254.575 200.988H258.261C258.261 200.988 258.209 200.871 258.12 200.654L254.735 200.297L248.781 193.316Z" fill="white"/>
<path d="M240.123 188.49C234.808 187.701 230.502 186.089 227.906 184.92L227.69 184.868C227.69 184.868 227.098 186.512 226.901 188.288C226.704 190.064 226.244 199.677 226.244 199.677L232.427 202.9L244.795 193.687L245.452 188.946L245.011 188.843C243.64 188.871 242.024 188.772 240.123 188.49Z" fill="url(#paint63_linear_373_3684)"/>
<path d="M232.55 201.989L226.3 198.611C226.268 199.273 226.249 199.677 226.249 199.677L232.432 202.9L244.8 193.687L245.457 188.946L245.015 188.843L244.161 193.161" fill="white"/>
<path d="M227.427 205.757V214.839C227.427 214.839 231.507 216.483 233.611 216.089C235.714 215.694 236.832 214.641 236.832 214.641L237.752 208.388C237.757 208.393 231.902 207.932 227.427 205.757ZM247.03 208.458C247.03 208.458 250.781 213.725 250.913 214.054C251.044 214.383 254.993 213.265 256.439 211.949C257.885 210.634 258.608 209.713 258.608 209.713L257.425 207.411L247.03 208.458Z" fill="black"/>
<path d="M223.22 222.413L227.103 229.718L230.657 226.956C230.657 226.956 236.052 220.9 236.512 219.584C236.972 218.269 236.841 214.646 236.841 214.646C236.841 214.646 234.409 216.093 233.09 216.225C231.775 216.356 228.746 215.107 228.746 215.107C228.746 215.107 228.286 212.607 228.023 212.081C227.76 211.555 226.183 210.436 225.591 210.765C225 211.094 225.526 214.585 225.526 214.585C225.526 214.585 224.934 215.243 224.277 216.098C223.619 216.953 223.291 218.597 223.291 218.597L223.22 222.413Z" fill="url(#paint64_linear_373_3684)"/>
<path d="M223.263 222.234L227.099 229.714C227.099 229.714 226.023 231.447 224.709 234.299C223.394 237.151 223.831 240.045 223.831 240.045C223.831 240.045 220.145 240.309 218.877 240.045C217.605 239.782 215.412 239.693 215.412 239.693L214.666 239.167L214.576 235.873C214.576 235.873 218.262 233.195 219.093 231.88C219.924 230.564 220.323 227.755 221.023 224.771C221.723 221.788 223.305 218.846 223.305 218.846L223.263 222.234Z" fill="url(#paint65_linear_373_3684)"/>
<path d="M215.675 239.702L215.807 243.738C215.807 243.738 216.638 247.906 217.342 248.39C218.041 248.874 220.718 249.621 222.032 249.574C223.347 249.531 223.962 249.4 223.962 249.4C223.962 249.4 225.408 247.163 225.192 246.285C224.972 245.406 223.657 242.686 223.436 241.986C223.216 241.286 222.91 240.097 222.91 240.097C222.91 240.097 219.708 240.313 215.675 239.702Z" fill="url(#paint66_linear_373_3684)"/>
<path d="M217.516 247.948L215.807 243.386L215.797 243.395L215.807 243.738C215.807 243.738 216.638 247.906 217.342 248.39C218.041 248.874 220.718 249.621 222.032 249.574C222.68 249.55 223.159 249.508 223.478 249.47C220.755 249.113 217.516 247.948 217.516 247.948Z" fill="black"/>
<path d="M250.908 214.054L250.49 217.193L251.805 222.328L258.866 224.917C258.866 224.917 260.007 221.539 260.007 221.365C260.007 221.191 259.876 216.713 259.876 216.713C259.876 216.713 260.575 214.914 260.533 213.861C260.491 212.809 259.392 210.089 259.392 210.089L258.603 209.562C258.603 209.562 257.157 211.714 255.227 212.72C253.298 213.725 250.908 214.054 250.908 214.054Z" fill="url(#paint67_linear_373_3684)"/>
<path d="M260.538 213.852C260.495 212.8 259.397 210.079 259.397 210.079L258.608 209.553C258.608 209.553 257.162 211.705 255.232 212.71C253.302 213.721 250.913 214.049 250.913 214.049L250.495 217.188C250.495 217.188 257.857 217.188 259.927 216.568C260.087 216.135 260.571 214.735 260.538 213.852Z" fill="url(#paint68_linear_373_3684)"/>
<path d="M233.085 216.225C231.77 216.356 228.742 215.107 228.742 215.107C228.742 215.107 228.282 212.607 228.019 212.081C227.756 211.555 226.178 210.436 225.587 210.765C224.995 211.094 225.521 214.585 225.521 214.585C225.521 214.585 224.929 215.243 224.272 216.098C223.784 216.737 223.474 217.813 223.352 218.32L226.084 222.286L230.197 224.785L233 224.25C234.517 222.459 236.254 220.308 236.508 219.584C236.968 218.269 236.836 214.646 236.836 214.646C236.836 214.646 234.4 216.093 233.085 216.225Z" fill="url(#paint69_linear_373_3684)"/>
<path d="M250.495 217.188C250.495 217.188 249.837 217.846 250.669 220.829L253.345 230.437C253.345 230.437 253.303 232.937 253.303 233.379C253.303 233.815 252.162 236.935 252.162 237.414C252.162 237.894 252.425 238.819 252.908 239.256C253.392 239.693 254.138 240.482 254.138 240.482L256.11 240.088L261.899 236.315L263.04 234.647C263.04 234.647 260.543 230.785 260.233 229.469C259.927 228.154 259.575 222.756 259.575 222.756L258.876 224.903L251.814 222.314L250.495 217.188Z" fill="url(#paint70_linear_373_3684)"/>
<path d="M254.134 240.492C254.134 240.492 254.091 241.939 255.012 242.465C255.932 242.991 256.284 242.949 256.899 242.949C257.514 242.949 260.932 243.038 260.932 243.038C260.932 243.038 267.862 245.059 269.792 244.969C271.722 244.88 273.036 244.269 273.036 244.269C273.036 244.269 272.994 243.128 271.459 241.986C269.924 240.844 264.529 238.124 263.524 237.292C262.515 236.461 262.209 235.845 262.209 235.845L261.904 236.329L256.115 240.102L254.134 240.492Z" fill="url(#paint71_linear_373_3684)"/>
<path d="M256.631 241.897C255.5 241.69 254.824 240.788 254.584 240.402L254.133 240.492C254.133 240.492 254.091 241.939 255.011 242.465C255.932 242.991 256.284 242.949 256.899 242.949C257.514 242.949 260.932 243.038 260.932 243.038C260.932 243.038 267.862 245.059 269.792 244.969C270.144 244.955 270.477 244.918 270.783 244.875C269.022 244.495 257.965 242.136 256.631 241.897ZM229.732 176.928L230.061 175.612C230.061 175.612 235.522 177.849 241.968 178.243C248.415 178.638 248.94 178.309 248.94 178.309L249.138 179.69C249.133 179.695 239.991 180.419 229.732 176.928Z" fill="black"/>
<path d="M237.47 150.711C237.47 150.711 237.034 147.77 236.855 147.112C236.681 146.454 235.583 141.098 237.118 138.641C238.653 136.184 242.25 135.615 244.706 136.536C247.161 137.457 247.556 138.556 247.556 138.556L248.213 137.415C248.213 137.415 249.748 139.256 250.316 141.54C250.884 143.823 250.931 145.228 250.931 145.228L253.213 145.665C253.213 145.665 249.706 151.942 248.959 152.379C248.213 152.816 247.203 153.126 247.203 153.126L247.992 155.231C247.992 155.231 240.978 153.342 237.47 150.711Z" fill="url(#paint72_linear_373_3684)"/>
<path d="M237.47 150.711C240.978 153.342 247.997 155.231 247.997 155.231L247.208 153.126C247.208 153.126 240.104 150.589 237.24 149.212C237.367 150.006 237.47 150.711 237.47 150.711Z" fill="black"/>
<path d="M240.254 139.707C239.959 139.214 237.639 139.379 238.217 141.319C238.677 142.865 241.536 147.079 241.536 147.079L247.203 153.121C247.203 153.121 248.213 152.816 248.959 152.374C249.706 151.937 253.213 145.66 253.213 145.66L250.931 145.223L242.982 143.72C242.982 143.724 240.4 139.947 240.254 139.707Z" fill="url(#paint73_linear_373_3684)"/>
<path d="M238.71 140.957C238.71 140.52 239.062 140.168 239.499 140.168C239.935 140.168 240.287 140.52 240.287 140.957C240.287 141.394 239.935 141.747 239.499 141.747C239.062 141.747 238.71 141.394 238.71 140.957Z" fill="#4D2E0C"/>
<path d="M244.795 143.955L244.893 143.428L250.842 144.678L250.931 145.228L244.795 143.955Z" fill="black"/>
<path d="M237.362 150.767L233.944 152.675C233.944 152.675 238.813 156.955 242.428 157.942C246.048 158.928 248.776 158.764 248.776 158.764L248.71 156.1L247.997 155.235C247.997 155.235 242.996 153.591 241.409 152.91C240.367 152.463 237.475 150.716 237.475 150.716L237.362 150.767Z" fill="url(#paint74_linear_373_3684)"/>
<path d="M233.939 152.675C233.939 152.675 227.892 152.088 226.244 153.662C224.075 155.734 224.371 157.843 224.371 157.843C224.371 157.843 224.699 157.448 225.652 157.547C226.605 157.646 227.131 157.81 227.131 157.81C227.131 157.81 229.136 158.83 229.038 160.77C228.939 162.711 228.052 164.623 228.052 164.623C228.052 164.623 229.836 164.844 232.437 164.646C235.033 164.449 239.86 159.882 239.236 158.073C238.611 156.264 238.348 155.968 238.348 155.968C238.348 155.968 234.827 153.76 233.939 152.675Z" fill="url(#paint75_linear_373_3684)"/>
<path d="M224.699 157.744L223.91 158.961C223.91 158.961 227.892 161.494 227.991 161.428C228.089 161.362 228.977 160.014 228.977 160.014L225.291 157.547L224.699 157.744Z" fill="url(#paint76_linear_373_3684)"/>
<path d="M225.521 157.58C225.652 157.547 226.671 157.547 227.657 158.172C228.643 158.797 228.906 159.882 228.906 159.882L225.521 157.58Z" fill="url(#paint77_linear_373_3684)"/>
<path d="M224.108 159.06L222.361 161.231L226.014 163.368L227.723 161.329L224.108 159.06Z" fill="url(#paint78_linear_373_3684)"/>
<path d="M222.558 161.329L220.882 163.434L224.042 165.544L225.817 163.34L222.558 161.329Z" fill="url(#paint79_linear_373_3684)"/>
<path d="M220.455 164.393C220.455 164.393 220.619 164.623 220.915 165.281C221.211 165.938 220.915 167.155 220.849 167.254C220.783 167.353 222.591 167.287 222.591 167.287C222.591 167.287 223.544 166.234 223.643 165.938C223.741 165.642 221.046 163.603 221.046 163.603L220.455 164.393Z" fill="url(#paint80_linear_373_3684)"/>
<path d="M216.051 169.753C216.051 169.753 219.206 168.339 220.032 167.846C220.854 167.353 220.854 167.254 220.854 167.254C220.854 167.254 221.216 166.169 220.92 165.281C220.624 164.393 220.032 164.162 220.032 164.162C220.032 164.162 218.154 164.491 216.051 169.753Z" fill="url(#paint81_linear_373_3684)"/>
<path d="M222.591 167.287C222.591 167.287 223.971 167.287 225.22 167.484C226.469 167.681 226.765 168.01 226.765 167.912C226.765 167.813 228.901 165.741 228.901 165.741L228.803 164.754L228.047 164.623C228.047 164.623 228.77 163.143 228.901 161.959C229.033 160.775 228.967 160.018 228.967 160.018C228.967 160.018 224.788 162.321 224.788 162.452C224.788 162.584 222.192 165.083 222.192 165.215C222.192 165.346 221.6 167.188 221.765 167.188C221.934 167.188 222.591 167.287 222.591 167.287Z" fill="url(#paint82_linear_373_3684)"/>
<path d="M216.051 169.753C216.051 169.753 215.624 170.937 215.788 171.529C215.952 172.121 217.004 174.719 217.004 174.719C217.004 174.719 218.812 175.279 219.666 175.344C220.521 175.41 221.178 175.344 221.178 175.344C221.178 175.344 217.727 172.417 217.628 171.722C217.53 171.031 217.596 169.88 217.596 169.88L219.6 168.071L216.051 169.753Z" fill="url(#paint83_linear_373_3684)"/>
<path d="M221.014 175.25C221.112 175.25 222.591 175.908 223.216 175.908C223.84 175.908 225.319 175.415 225.319 175.415C225.319 175.415 223.741 173.869 223.709 173.409C223.676 172.948 223.544 171.008 223.84 170.613C224.136 170.219 226.765 167.916 226.765 167.916C226.765 167.916 224.958 167.357 223.643 167.357C222.328 167.357 220.849 167.259 220.849 167.259L217.595 169.89L217.628 171.731L221.014 175.25Z" fill="url(#paint84_linear_373_3684)"/>
<path d="M225.357 175.283L227.591 176.007C227.591 176.007 230.221 174.79 230.385 174.658C230.549 174.527 230.615 174.165 230.517 174.034C230.418 173.902 230.254 173.869 230.254 173.869C230.254 173.869 230.911 173.474 230.747 173.113C230.582 172.751 230.451 172.685 230.451 172.685C230.451 172.685 231.371 172.455 231.24 171.896L231.108 171.337C231.108 171.337 231.568 171.106 231.667 170.81L231.766 170.514L230.024 169.528L228.249 168.245C228.249 168.245 226.934 167.752 226.77 167.916C226.605 168.081 223.845 170.613 223.845 170.613L223.746 173.54C223.746 173.54 225.028 175.053 225.357 175.283Z" fill="#4D2E0C"/>
<path d="M225.981 175.504L224.882 177.83L224.962 178.38H226.408L227.591 176.007L225.981 175.504Z" fill="black"/>
<path d="M224.882 177.83C224.882 177.83 223.939 178.347 223.676 179.366C223.413 180.386 223.676 181.274 224.563 181.504C225.451 181.734 226.075 180.78 226.305 179.958C226.535 179.136 226.404 178.38 226.404 178.38H224.958L224.882 177.83ZM227.756 168.01C227.756 168.01 227.164 166.366 227.657 166.432C228.15 166.497 233.184 169.589 233.216 169.753C233.249 169.918 232.23 170.51 231.639 170.378C231.047 170.247 227.756 168.01 227.756 168.01Z" fill="black"/>
<path d="M229.399 167.385C229.399 167.385 259.129 105.151 259.622 104.493C260.115 103.835 260.838 103.046 260.838 103.046C260.838 103.046 260.904 104.131 260.444 105.381C259.984 106.631 231.305 168.537 231.305 168.537L229.399 167.385Z" fill="url(#paint85_linear_373_3684)"/>
<path d="M230.272 167.954L260.843 103.046L259.655 104.146L229.399 167.385" fill="white"/>
<path d="M249.082 150.166C249.082 150.166 256.716 149.179 259.622 148.883C262.529 148.587 264.89 148.883 264.89 148.883C264.89 148.883 265.186 191.018 265.087 192.103C264.989 193.189 264.35 194.077 263.707 194.025C263.069 193.978 256.519 191.709 252.331 183.628C250.194 179.498 249.279 170.026 248.884 161.597C248.49 153.168 249.082 150.166 249.082 150.166Z" fill="url(#paint86_linear_373_3684)"/>
<path opacity="0.7" d="M264.726 151.12C264.726 151.12 259.434 150.974 256.645 151.416C253.852 151.857 251.87 152.299 251.87 152.299C251.87 152.299 251.058 158.186 252.237 170.087C253.265 180.451 255.467 184.938 255.467 184.938C255.467 184.938 252.823 182.514 251.575 170.97C250.025 156.645 250.955 151.791 250.955 151.791C250.955 151.791 258.693 150.058 264.904 150.556" fill="white"/>
<path d="M265.106 190.783C265.003 191.042 264.881 191.281 264.745 191.46C264.153 192.249 260.458 191.018 256.669 186.583C252.875 182.148 252.091 175.297 251.499 170.519C250.908 165.741 250.96 151.792 250.96 151.792C250.96 151.792 254.753 150.904 258.101 150.706C260.289 150.579 263.176 150.556 264.909 150.551C264.904 149.485 264.9 148.883 264.9 148.883C264.9 148.883 262.538 148.587 259.632 148.883C256.725 149.179 249.091 150.166 249.091 150.166C249.091 150.166 248.499 153.173 248.894 161.597C249.288 170.026 250.204 179.498 252.34 183.628C256.528 191.709 263.078 193.978 263.716 194.025C264.355 194.077 264.998 193.189 265.097 192.103C265.097 192 265.101 191.54 265.106 190.783Z" fill="url(#paint87_linear_373_3684)"/>
<path d="M229.733 176.928C229.733 176.928 227.958 178.835 226.972 180.55C225.986 182.26 225.197 183.773 225.197 183.773C225.197 183.773 231.249 187.391 240.128 188.711C249.006 190.027 251.706 187.33 251.706 187.33L250.983 184.567L248.682 179.695C248.673 179.695 240.452 180.55 229.733 176.928Z" fill="url(#paint88_linear_373_3684)"/>
<path d="M251.584 186.893C247.471 189.167 241.41 188.81 234.677 186.846C228.329 184.995 225.967 183.379 225.563 183.073C225.333 183.505 225.192 183.773 225.192 183.773C225.192 183.773 231.244 187.391 240.123 188.711C249.002 190.027 251.701 187.33 251.701 187.33L251.584 186.893Z" fill="url(#paint89_linear_373_3684)"/>
<path opacity="0.4" d="M233.611 216.093L230.892 224.414L226.925 229.267L223.948 236.324L227.094 229.723L230.648 226.961C230.648 226.961 232.784 224.452 232.996 224.254C233.207 224.052 236.658 219.053 236.658 219.053L236.832 214.651L233.611 216.093Z" fill="white"/>
</g>
<defs>
<linearGradient id="paint0_linear_373_3684" x1="18081.7" y1="25693.4" x2="18081.7" y2="-2890.61" gradientUnits="userSpaceOnUse">
<stop stop-color="#BB6100"/>
<stop offset="0.5241" stop-color="#8B4800"/>
<stop offset="1" stop-color="#3B1E00"/>
</linearGradient>
<linearGradient id="paint1_linear_373_3684" x1="2254.28" y1="130.485" x2="1577.08" y2="3495.54" gradientUnits="userSpaceOnUse">
<stop stop-color="#DAB288"/>
<stop offset="0.00834" stop-color="#D9B289"/>
<stop offset="0.4784" stop-color="#D9CABB"/>
<stop offset="0.8218" stop-color="#F0CDA7"/>
<stop offset="1" stop-color="#FFD1A0"/>
</linearGradient>
<linearGradient id="paint2_linear_373_3684" x1="95.3129" y1="11334.6" x2="17580.3" y2="11334.6" gradientUnits="userSpaceOnUse">
<stop stop-color="#BB6100"/>
<stop offset="1"/>
</linearGradient>
<linearGradient id="paint3_linear_373_3684" x1="3048.33" y1="7369.15" x2="11689.6" y2="7724.08" gradientUnits="userSpaceOnUse">
<stop stop-color="#DF8627"/>
<stop offset="0.51278" stop-color="#9E611F"/>
<stop offset="1" stop-color="#DA7100"/>
</linearGradient>
<linearGradient id="paint4_linear_373_3684" x1="145.498" y1="5031.31" x2="7869.46" y2="5031.31" gradientUnits="userSpaceOnUse">
<stop stop-color="#BB6100"/>
<stop offset="1"/>
</linearGradient>
<linearGradient id="paint5_linear_373_3684" x1="154.369" y1="374.144" x2="1906.44" y2="374.144" gradientUnits="userSpaceOnUse">
<stop stop-color="#FFBF7A"/>
<stop offset="0.7861" stop-color="white"/>
</linearGradient>
<linearGradient id="paint6_linear_373_3684" x1="195.346" y1="374.144" x2="1947.41" y2="374.144" gradientUnits="userSpaceOnUse">
<stop stop-color="#FFBF7A"/>
<stop offset="0.7861" stop-color="white"/>
</linearGradient>
<linearGradient id="paint7_linear_373_3684" x1="1984.07" y1="1458.24" x2="413.278" y2="1458.24" gradientUnits="userSpaceOnUse">
<stop stop-color="#D26F05"/>
<stop offset="1" stop-color="#EFA453"/>
</linearGradient>
<linearGradient id="paint8_linear_373_3684" x1="95.8324" y1="11334.6" x2="8817.57" y2="11334.6" gradientUnits="userSpaceOnUse">
<stop stop-color="#DAB288"/>
<stop offset="0.00834" stop-color="#D9B289"/>
<stop offset="0.4784" stop-color="#D9CABB"/>
<stop offset="0.8218" stop-color="#F0CDA7"/>
<stop offset="1" stop-color="#FFD1A0"/>
</linearGradient>
<linearGradient id="paint9_linear_373_3684" x1="11.092" y1="7609.46" x2="11749.5" y2="7609.46" gradientUnits="userSpaceOnUse">
<stop/>
<stop offset="1"/>
</linearGradient>
<linearGradient id="paint10_linear_373_3684" x1="9871.58" y1="7822.97" x2="2522.25" y2="7399.17" gradientUnits="userSpaceOnUse">
<stop/>
<stop offset="1"/>
</linearGradient>
<linearGradient id="paint11_linear_373_3684" x1="406.693" y1="7458.02" x2="406.693" y2="372.65" gradientUnits="userSpaceOnUse">
<stop stop-color="#FF8400"/>
<stop offset="0.7861" stop-color="#FFD8AE"/>
</linearGradient>
<linearGradient id="paint12_linear_373_3684" x1="190.421" y1="639.455" x2="1129.34" y2="639.455" gradientUnits="userSpaceOnUse">
<stop stop-color="#FFBF7A"/>
<stop offset="0.7861" stop-color="white"/>
</linearGradient>
<linearGradient id="paint13_linear_373_3684" x1="191.333" y1="1703.57" x2="1618" y2="1703.57" gradientUnits="userSpaceOnUse">
<stop stop-color="#70461A"/>
<stop offset="1" stop-color="#DBA163"/>
</linearGradient>
<linearGradient id="paint14_linear_373_3684" x1="164.079" y1="1207.23" x2="1705.82" y2="1207.23" gradientUnits="userSpaceOnUse">
<stop stop-color="#70461A"/>
<stop offset="1" stop-color="#DBA163"/>
</linearGradient>
<linearGradient id="paint15_linear_373_3684" x1="165.026" y1="2232.27" x2="3608.99" y2="2232.27" gradientUnits="userSpaceOnUse">
<stop stop-color="#FFBF7A"/>
<stop offset="0.7861" stop-color="white"/>
</linearGradient>
<linearGradient id="paint16_linear_373_3684" x1="186.022" y1="552.706" x2="1983.78" y2="552.706" gradientUnits="userSpaceOnUse">
<stop stop-color="#B87833"/>
<stop offset="0.7861" stop-color="white"/>
</linearGradient>
<linearGradient id="paint17_linear_373_3684" x1="2243.01" y1="146.502" x2="1836.25" y2="4820.4" gradientUnits="userSpaceOnUse">
<stop stop-color="#FFBF7A"/>
<stop offset="0.7861" stop-color="white"/>
</linearGradient>
<linearGradient id="paint18_linear_373_3684" x1="2714.69" y1="1943.79" x2="828.224" y2="3377.59" gradientUnits="userSpaceOnUse">
<stop stop-color="#FF8400"/>
<stop offset="0.7861" stop-color="#FFD8AE"/>
</linearGradient>
<linearGradient id="paint19_linear_373_3684" x1="1840.93" y1="3157.54" x2="1341.29" y2="3263.95" gradientUnits="userSpaceOnUse">
<stop stop-color="#FF8400"/>
<stop offset="0.7861" stop-color="#FFD8AE"/>
</linearGradient>
<linearGradient id="paint20_linear_373_3684" x1="167.677" y1="568.42" x2="1103.66" y2="568.42" gradientUnits="userSpaceOnUse">
<stop stop-color="#FFBF7A"/>
<stop offset="0.7861" stop-color="white"/>
</linearGradient>
<linearGradient id="paint21_linear_373_3684" x1="165.079" y1="1621.2" x2="1281.73" y2="1621.2" gradientUnits="userSpaceOnUse">
<stop stop-color="#70461A"/>
<stop offset="1" stop-color="#DBA163"/>
</linearGradient>
<linearGradient id="paint22_linear_373_3684" x1="142.637" y1="681.839" x2="1517.75" y2="681.839" gradientUnits="userSpaceOnUse">
<stop stop-color="#70461A"/>
<stop offset="1" stop-color="#DBA163"/>
</linearGradient>
<linearGradient id="paint23_linear_373_3684" x1="1715.48" y1="281.515" x2="46.4699" y2="1323.93" gradientUnits="userSpaceOnUse">
<stop stop-color="#B87833"/>
<stop offset="0.7861" stop-color="white"/>
</linearGradient>
<linearGradient id="paint24_linear_373_3684" x1="167.197" y1="1302.36" x2="2119.91" y2="1302.36" gradientUnits="userSpaceOnUse">
<stop stop-color="#70461A"/>
<stop offset="1" stop-color="#DBA163"/>
</linearGradient>
<linearGradient id="paint25_linear_373_3684" x1="167.173" y1="939.195" x2="1696.28" y2="939.195" gradientUnits="userSpaceOnUse">
<stop stop-color="#FFBF7A"/>
<stop offset="0.7861" stop-color="white"/>
</linearGradient>
<linearGradient id="paint26_linear_373_3684" x1="175.838" y1="2965.94" x2="3718.76" y2="2965.94" gradientUnits="userSpaceOnUse">
<stop stop-color="#DAB288"/>
<stop offset="0.00834" stop-color="#D9B289"/>
<stop offset="0.4784" stop-color="#D9CABB"/>
<stop offset="0.8218" stop-color="#F0CDA7"/>
<stop offset="1" stop-color="#FFD1A0"/>
</linearGradient>
<linearGradient id="paint27_linear_373_3684" x1="1427.28" y1="2761.11" x2="1063.6" y2="2786.35" gradientUnits="userSpaceOnUse">
<stop stop-color="#DAB288"/>
<stop offset="0.00834" stop-color="#D9B289"/>
<stop offset="0.4784" stop-color="#D9CABB"/>
<stop offset="0.8218" stop-color="#F0CDA7"/>
<stop offset="1" stop-color="#FFD1A0"/>
</linearGradient>
<linearGradient id="paint28_linear_373_3684" x1="1735.77" y1="557.878" x2="1735.77" y2="2718.35" gradientUnits="userSpaceOnUse">
<stop stop-color="#36281A"/>
<stop offset="1" stop-color="#DB8325"/>
</linearGradient>
<linearGradient id="paint29_linear_373_3684" x1="928.043" y1="223.969" x2="67.4509" y2="1821.12" gradientUnits="userSpaceOnUse">
<stop stop-color="#FFBF7A"/>
<stop offset="0.7861" stop-color="white"/>
</linearGradient>
<linearGradient id="paint30_linear_373_3684" x1="941.536" y1="472.252" x2="1924.5" y2="2206.95" gradientUnits="userSpaceOnUse">
<stop stop-color="#FFBF7A"/>
<stop offset="0.7861" stop-color="white"/>
</linearGradient>
<linearGradient id="paint31_linear_373_3684" x1="1475.29" y1="1165" x2="111.964" y2="1165" gradientUnits="userSpaceOnUse">
<stop stop-color="#70461A"/>
<stop offset="1" stop-color="#E0B281"/>
</linearGradient>
<linearGradient id="paint32_linear_373_3684" x1="915.242" y1="721.225" x2="31.6195" y2="2238.9" gradientUnits="userSpaceOnUse">
<stop stop-color="#4C2A06"/>
<stop offset="1" stop-color="#DBA163"/>
</linearGradient>
<linearGradient id="paint33_linear_373_3684" x1="1076.74" y1="737.602" x2="122.919" y2="737.602" gradientUnits="userSpaceOnUse">
<stop stop-color="#361C00"/>
<stop offset="0.5936" stop-color="#8B4800"/>
<stop offset="1" stop-color="#B16D24"/>
</linearGradient>
<linearGradient id="paint34_linear_373_3684" x1="791.172" y1="1606.68" x2="-133.994" y2="698.082" gradientUnits="userSpaceOnUse">
<stop stop-color="#70461A"/>
<stop offset="1" stop-color="#E0B281"/>
</linearGradient>
<linearGradient id="paint35_linear_373_3684" x1="911.87" y1="903.65" x2="141.386" y2="65.7611" gradientUnits="userSpaceOnUse">
<stop stop-color="#BF864A"/>
<stop offset="0.7861" stop-color="white"/>
</linearGradient>
<linearGradient id="paint36_linear_373_3684" x1="1287.93" y1="1351.46" x2="156.543" y2="235.9" gradientUnits="userSpaceOnUse">
<stop stop-color="#BF864A"/>
<stop offset="0.7861" stop-color="white"/>
</linearGradient>
<linearGradient id="paint37_linear_373_3684" x1="1364.41" y1="1386.3" x2="85.5979" y2="1386.3" gradientUnits="userSpaceOnUse">
<stop stop-color="#4C2A06"/>
<stop offset="1" stop-color="#DBA163"/>
</linearGradient>
<linearGradient id="paint38_linear_373_3684" x1="1965.43" y1="695.631" x2="75.4365" y2="695.631" gradientUnits="userSpaceOnUse">
<stop stop-color="#361C00"/>
<stop offset="0.5936" stop-color="#8B4800"/>
<stop offset="1" stop-color="#B16D24"/>
</linearGradient>
<linearGradient id="paint39_linear_373_3684" x1="90.5576" y1="723.208" x2="1330.85" y2="723.208" gradientUnits="userSpaceOnUse">
<stop stop-color="#70461A"/>
<stop offset="1" stop-color="#DBA163"/>
</linearGradient>
<linearGradient id="paint40_linear_373_3684" x1="837.311" y1="435.78" x2="540.393" y2="109.385" gradientUnits="userSpaceOnUse">
<stop stop-color="#B87833"/>
<stop offset="0.7861" stop-color="white"/>
</linearGradient>
<linearGradient id="paint41_linear_373_3684" x1="948.892" y1="392.014" x2="1439.79" y2="2555.36" gradientUnits="userSpaceOnUse">
<stop stop-color="#FFBF7A"/>
<stop offset="0.7861" stop-color="white"/>
</linearGradient>
<linearGradient id="paint42_linear_373_3684" x1="1731.33" y1="1246.92" x2="108.744" y2="792.234" gradientUnits="userSpaceOnUse">
<stop stop-color="#70461A"/>
<stop offset="1" stop-color="#DBA163"/>
</linearGradient>
<linearGradient id="paint43_linear_373_3684" x1="1540.21" y1="772.551" x2="141.254" y2="380.528" gradientUnits="userSpaceOnUse">
<stop stop-color="#FFBF7A"/>
<stop offset="0.7861" stop-color="white"/>
</linearGradient>
<linearGradient id="paint44_linear_373_3684" x1="1641.76" y1="462.406" x2="304.631" y2="87.7057" gradientUnits="userSpaceOnUse">
<stop stop-color="#FFBF7A"/>
<stop offset="0.7861" stop-color="white"/>
</linearGradient>
<linearGradient id="paint45_linear_373_3684" x1="76.9616" y1="1138.62" x2="1323.99" y2="453.484" gradientUnits="userSpaceOnUse">
<stop stop-color="#B87833"/>
<stop offset="0.7861" stop-color="white"/>
</linearGradient>
<linearGradient id="paint46_linear_373_3684" x1="625.403" y1="341.813" x2="161.109" y2="211.713" gradientUnits="userSpaceOnUse">
<stop stop-color="#FFBF7A"/>
<stop offset="0.7861" stop-color="white"/>
</linearGradient>
<linearGradient id="paint47_linear_373_3684" x1="481.054" y1="246.967" x2="175.216" y2="161.269" gradientUnits="userSpaceOnUse">
<stop stop-color="#FFBF7A"/>
<stop offset="0.7861" stop-color="white"/>
</linearGradient>
<linearGradient id="paint48_linear_373_3684" x1="643.955" y1="385.138" x2="146.937" y2="245.868" gradientUnits="userSpaceOnUse">
<stop stop-color="#FFBF7A"/>
<stop offset="0.7861" stop-color="white"/>
</linearGradient>
<linearGradient id="paint49_linear_373_3684" x1="598.245" y1="392.111" x2="137.124" y2="262.899" gradientUnits="userSpaceOnUse">
<stop stop-color="#FFBF7A"/>
<stop offset="0.7861" stop-color="white"/>
</linearGradient>
<linearGradient id="paint50_linear_373_3684" x1="439.293" y1="367.07" x2="146.775" y2="285.102" gradientUnits="userSpaceOnUse">
<stop stop-color="#FFBF7A"/>
<stop offset="0.7861" stop-color="white"/>
</linearGradient>
<linearGradient id="paint51_linear_373_3684" x1="429.44" y1="550.397" x2="227.852" y2="493.91" gradientUnits="userSpaceOnUse">
<stop stop-color="#FFBF7A"/>
<stop offset="0.7861" stop-color="white"/>
</linearGradient>
<linearGradient id="paint52_linear_373_3684" x1="156.689" y1="215.981" x2="733.578" y2="808.914" gradientUnits="userSpaceOnUse">
<stop stop-color="#70461A"/>
<stop offset="1" stop-color="#DBA163"/>
</linearGradient>
<linearGradient id="paint53_linear_373_3684" x1="695.956" y1="633.625" x2="257.237" y2="510.687" gradientUnits="userSpaceOnUse">
<stop stop-color="#FFBF7A"/>
<stop offset="0.7861" stop-color="white"/>
</linearGradient>
<linearGradient id="paint54_linear_373_3684" x1="970.785" y1="768.943" x2="90.3042" y2="522.216" gradientUnits="userSpaceOnUse">
<stop stop-color="#FFBF7A"/>
<stop offset="0.7861" stop-color="white"/>
</linearGradient>
<linearGradient id="paint55_linear_373_3684" x1="1058.67" y1="7347.33" x2="-588.676" y2="466.947" gradientUnits="userSpaceOnUse">
<stop stop-color="#FF8400"/>
<stop offset="0.7861" stop-color="#FFD8AE"/>
</linearGradient>
<linearGradient id="paint56_linear_373_3684" x1="1709.95" y1="2745.94" x2="1048.41" y2="2560.55" gradientUnits="userSpaceOnUse">
<stop stop-color="#FF921D"/>
<stop offset="0.1611" stop-color="#D98B37"/>
<stop offset="0.3436" stop-color="#B48450"/>
<stop offset="0.4915" stop-color="#9D7F5F"/>
<stop offset="0.5853" stop-color="#95795C"/>
<stop offset="0.6367" stop-color="#91795F"/>
<stop offset="0.723" stop-color="#897968"/>
<stop offset="0.8336" stop-color="#B39574"/>
<stop offset="0.9628" stop-color="#EDA75C"/>
<stop offset="1" stop-color="#EE7B00"/>
</linearGradient>
<linearGradient id="paint57_linear_373_3684" x1="1709.8" y1="2745.94" x2="1048.32" y2="2560.57" gradientUnits="userSpaceOnUse">
<stop stop-color="#FF9C33"/>
<stop offset="0.1585" stop-color="#FF9E37"/>
<stop offset="0.3535" stop-color="#FFA443"/>
<stop offset="0.5676" stop-color="#FFA749"/>
<stop offset="0.7937" stop-color="#FF9626"/>
<stop offset="1" stop-color="#FF8400"/>
</linearGradient>
<linearGradient id="paint58_linear_373_3684" x1="1724.39" y1="693.767" x2="1540.34" y2="1038.08" gradientUnits="userSpaceOnUse">
<stop stop-color="#70461A"/>
<stop offset="1" stop-color="#DBA163"/>
</linearGradient>
<linearGradient id="paint59_linear_373_3684" x1="1542.99" y1="437.201" x2="1457.59" y2="596.935" gradientUnits="userSpaceOnUse">
<stop stop-color="#FFBF7A"/>
<stop offset="0.7861" stop-color="white"/>
</linearGradient>
<linearGradient id="paint60_linear_373_3684" x1="1947.56" y1="380.278" x2="701.856" y2="2678.71" gradientUnits="userSpaceOnUse">
<stop stop-color="#FFBF7A"/>
<stop offset="0.7861" stop-color="white"/>
</linearGradient>
<linearGradient id="paint61_linear_373_3684" x1="1824.4" y1="522.218" x2="1824.4" y2="2484.97" gradientUnits="userSpaceOnUse">
<stop stop-color="#36281A"/>
<stop offset="1" stop-color="#DB8325"/>
</linearGradient>
<linearGradient id="paint62_linear_373_3684" x1="531.836" y1="223.521" x2="1392.43" y2="1820.68" gradientUnits="userSpaceOnUse">
<stop stop-color="#FFBF7A"/>
<stop offset="0.7861" stop-color="white"/>
</linearGradient>
<linearGradient id="paint63_linear_373_3684" x1="1299.74" y1="566.72" x2="356.982" y2="2230.5" gradientUnits="userSpaceOnUse">
<stop stop-color="#FFBF7A"/>
<stop offset="0.7861" stop-color="white"/>
</linearGradient>
<linearGradient id="paint64_linear_373_3684" x1="223.016" y1="1161.09" x2="1586.34" y2="1161.09" gradientUnits="userSpaceOnUse">
<stop stop-color="#70461A"/>
<stop offset="1" stop-color="#E0B281"/>
</linearGradient>
<linearGradient id="paint65_linear_373_3684" x1="1129.17" y1="1655.41" x2="624.826" y2="1453.8" gradientUnits="userSpaceOnUse">
<stop stop-color="#4C2A06"/>
<stop offset="1" stop-color="#DBA163"/>
</linearGradient>
<linearGradient id="paint66_linear_373_3684" x1="215.761" y1="733.232" x2="1169.58" y2="733.232" gradientUnits="userSpaceOnUse">
<stop stop-color="#361C00"/>
<stop offset="0.5936" stop-color="#8B4800"/>
<stop offset="1" stop-color="#B16D24"/>
</linearGradient>
<linearGradient id="paint67_linear_373_3684" x1="384.78" y1="1491.33" x2="1158.42" y2="1154.66" gradientUnits="userSpaceOnUse">
<stop stop-color="#70461A"/>
<stop offset="1" stop-color="#E0B281"/>
</linearGradient>
<linearGradient id="paint68_linear_373_3684" x1="430.243" y1="899.749" x2="1200.76" y2="61.8252" gradientUnits="userSpaceOnUse">
<stop stop-color="#BF864A"/>
<stop offset="0.7861" stop-color="white"/>
</linearGradient>
<linearGradient id="paint69_linear_373_3684" x1="396.879" y1="1347.55" x2="1528.27" y2="232.001" gradientUnits="userSpaceOnUse">
<stop stop-color="#BF864A"/>
<stop offset="0.7861" stop-color="white"/>
</linearGradient>
<linearGradient id="paint70_linear_373_3684" x1="963.28" y1="1243.08" x2="646.305" y2="1308.61" gradientUnits="userSpaceOnUse">
<stop stop-color="#4C2A06"/>
<stop offset="1" stop-color="#DBA163"/>
</linearGradient>
<linearGradient id="paint71_linear_373_3684" x1="254.095" y1="691.724" x2="2144.09" y2="691.724" gradientUnits="userSpaceOnUse">
<stop stop-color="#361C00"/>
<stop offset="0.5936" stop-color="#8B4800"/>
<stop offset="1" stop-color="#B16D24"/>
</linearGradient>
<linearGradient id="paint72_linear_373_3684" x1="236.363" y1="1091.75" x2="1926.34" y2="1091.75" gradientUnits="userSpaceOnUse">
<stop stop-color="#70461A"/>
<stop offset="1" stop-color="#DBA163"/>
</linearGradient>
<linearGradient id="paint73_linear_373_3684" x1="237.989" y1="822.176" x2="1746.89" y2="822.176" gradientUnits="userSpaceOnUse">
<stop stop-color="#FFBF7A"/>
<stop offset="0.7861" stop-color="white"/>
</linearGradient>
<linearGradient id="paint74_linear_373_3684" x1="233.529" y1="553.394" x2="1716.77" y2="553.394" gradientUnits="userSpaceOnUse">
<stop stop-color="#FFBF7A"/>
<stop offset="0.7861" stop-color="white"/>
</linearGradient>
<linearGradient id="paint75_linear_373_3684" x1="1341.06" y1="1020.74" x2="265.869" y2="-33.8271" gradientUnits="userSpaceOnUse">
<stop stop-color="#B87833"/>
<stop offset="0.7861" stop-color="white"/>
</linearGradient>
<linearGradient id="paint76_linear_373_3684" x1="223.748" y1="351.64" x2="730.234" y2="351.64" gradientUnits="userSpaceOnUse">
<stop stop-color="#FFBF7A"/>
<stop offset="0.7861" stop-color="white"/>
</linearGradient>
<linearGradient id="paint77_linear_373_3684" x1="225.47" y1="273.166" x2="564.231" y2="273.166" gradientUnits="userSpaceOnUse">
<stop stop-color="#FFBF7A"/>
<stop offset="0.7861" stop-color="white"/>
</linearGradient>
<linearGradient id="paint78_linear_373_3684" x1="222.586" y1="374.561" x2="758.644" y2="374.561" gradientUnits="userSpaceOnUse">
<stop stop-color="#FFBF7A"/>
<stop offset="0.7861" stop-color="white"/>
</linearGradient>
<linearGradient id="paint79_linear_373_3684" x1="221.001" y1="372.046" x2="714.308" y2="372.046" gradientUnits="userSpaceOnUse">
<stop stop-color="#FFBF7A"/>
<stop offset="0.7861" stop-color="white"/>
</linearGradient>
<linearGradient id="paint80_linear_373_3684" x1="220.557" y1="348.752" x2="539.823" y2="348.752" gradientUnits="userSpaceOnUse">
<stop stop-color="#FFBF7A"/>
<stop offset="0.7861" stop-color="white"/>
</linearGradient>
<linearGradient id="paint81_linear_373_3684" x1="215.851" y1="443.714" x2="714.229" y2="443.714" gradientUnits="userSpaceOnUse">
<stop stop-color="#FFBF7A"/>
<stop offset="0.7861" stop-color="white"/>
</linearGradient>
<linearGradient id="paint82_linear_373_3684" x1="1159.05" y1="300.95" x2="356.564" y2="766.607" gradientUnits="userSpaceOnUse">
<stop stop-color="#70461A"/>
<stop offset="1" stop-color="#DBA163"/>
</linearGradient>
<linearGradient id="paint83_linear_373_3684" x1="215.522" y1="533.733" x2="758.652" y2="533.733" gradientUnits="userSpaceOnUse">
<stop stop-color="#FFBF7A"/>
<stop offset="0.7861" stop-color="white"/>
</linearGradient>
<linearGradient id="paint84_linear_373_3684" x1="217.495" y1="599.569" x2="1135.07" y2="599.569" gradientUnits="userSpaceOnUse">
<stop stop-color="#FFBF7A"/>
<stop offset="0.7861" stop-color="white"/>
</linearGradient>
<linearGradient id="paint85_linear_373_3684" x1="1433.67" y1="6845.02" x2="4158.4" y2="1031.96" gradientUnits="userSpaceOnUse">
<stop stop-color="#FF8400"/>
<stop offset="0.7861" stop-color="#FFD8AE"/>
</linearGradient>
<linearGradient id="paint86_linear_373_3684" x1="954.011" y1="2475.96" x2="1192.28" y2="2465.47" gradientUnits="userSpaceOnUse">
<stop stop-color="#FF921D"/>
<stop offset="0.1611" stop-color="#D98B37"/>
<stop offset="0.3436" stop-color="#B48450"/>
<stop offset="0.4915" stop-color="#9D7F5F"/>
<stop offset="0.5853" stop-color="#95795C"/>
<stop offset="0.6367" stop-color="#91795F"/>
<stop offset="0.723" stop-color="#897968"/>
<stop offset="0.8336" stop-color="#B39574"/>
<stop offset="0.9628" stop-color="#EDA75C"/>
<stop offset="1" stop-color="#EE7B00"/>
</linearGradient>
<linearGradient id="paint87_linear_373_3684" x1="247.99" y1="2412.44" x2="1883.6" y2="2412.44" gradientUnits="userSpaceOnUse">
<stop stop-color="#FF9C33"/>
<stop offset="0.1585" stop-color="#FF9E37"/>
<stop offset="0.3535" stop-color="#FFA443"/>
<stop offset="0.5676" stop-color="#FFA749"/>
<stop offset="0.7937" stop-color="#FF9626"/>
<stop offset="1" stop-color="#FF8400"/>
</linearGradient>
<linearGradient id="paint88_linear_373_3684" x1="1410.29" y1="704.851" x2="1467.13" y2="962.196" gradientUnits="userSpaceOnUse">
<stop stop-color="#70461A"/>
<stop offset="1" stop-color="#DBA163"/>
</linearGradient>
<linearGradient id="paint89_linear_373_3684" x1="1493.73" y1="467.223" x2="1508.49" y2="534.036" gradientUnits="userSpaceOnUse">
<stop stop-color="#FFBF7A"/>
<stop offset="0.7861" stop-color="white"/>
</linearGradient>
<clipPath id="clip0_373_3684">
<rect width="361.634" height="271" fill="white"/>
</clipPath>
</defs>
</svg>
