<svg width="362" height="271" viewBox="0 0 362 271" fill="none" xmlns="http://www.w3.org/2000/svg">
<g clip-path="url(#clip0_373_2832)">
<path fill-rule="evenodd" clip-rule="evenodd" d="M17.5306 209.435C17.5306 209.435 -4.57312 214.856 0.859196 236.044C3.69787 247.117 24.4886 249.677 53.6335 249.677C54.3178 249.677 54.9928 249.673 55.6724 249.668C56.2965 249.876 56.9253 250.08 57.5633 250.269C91.8169 260.404 138.581 250.288 180.874 237.565C213.986 227.606 288.957 229.394 312.355 229.394C393.28 229.394 349.766 209.435 349.766 209.435H17.5306Z" fill="url(#paint0_linear_373_2832)"/>
<path opacity="0.5" d="M339.049 223.752H138.299V209.005H324.297L339.049 223.752Z" fill="#402100"/>
<path opacity="0.5" fill-rule="evenodd" clip-rule="evenodd" d="M174.707 240.162C174.707 244.603 142.044 248.208 101.752 248.208C61.4607 248.208 28.7975 244.608 28.7975 240.162C28.7975 235.721 61.4607 232.116 101.752 232.116C142.048 232.121 174.707 235.721 174.707 240.162Z" fill="#402100"/>
<path d="M12.8842 210.562H356.026C356.026 210.562 367.908 129.721 315.175 79.8102C262.442 29.8995 185.941 68.5618 185.941 68.5618C185.941 68.5618 143.329 -4.92242 80.4714 22.8704C-21.2815 67.8594 12.8842 210.562 12.8842 210.562Z" fill="url(#paint1_linear_373_2832)"/>
<path opacity="0.8" d="M71.4931 40.6026C71.4515 40.6026 71.4099 40.598 71.3683 40.598C64.942 40.598 59.7316 45.8062 59.7316 52.2299C59.7316 58.6536 64.942 63.8619 71.3683 63.8619C77.7946 63.8619 83.005 58.6536 83.005 52.2299H71.4931V40.6026Z" fill="url(#paint2_linear_373_2832)"/>
<path d="M41.2803 104.105H45.0944V138.524H41.2803V104.105Z" fill="url(#paint3_linear_373_2832)"/>
<path d="M48.6404 115.797H52.4546V138.529H48.6404V115.797Z" fill="url(#paint4_linear_373_2832)"/>
<path d="M56.0052 108.384H59.8194V138.7H56.0052V108.384Z" fill="url(#paint5_linear_373_2832)"/>
<path d="M63.3701 105.436H67.1843V138.529H63.3701V105.436Z" fill="url(#paint6_linear_373_2832)"/>
<path d="M70.7303 116.499H74.5445V138.529H70.7303V116.499Z" fill="url(#paint7_linear_373_2832)"/>
<path d="M78.0951 120.82H81.9093V138.529H78.0951V120.82Z" fill="url(#paint8_linear_373_2832)"/>
<path d="M85.46 107.64H89.2741V138.529H85.46V107.64Z" fill="url(#paint9_linear_373_2832)"/>
<path d="M92.8202 113.209H96.6344V138.529H92.8202V113.209Z" fill="url(#paint10_linear_373_2832)"/>
<path d="M100.185 108.758H103.999V138.529H100.185V108.758Z" fill="url(#paint11_linear_373_2832)"/>
<path d="M107.55 118.246H111.364V138.529H107.55V118.246Z" fill="url(#paint12_linear_373_2832)"/>
<path d="M114.915 114.387H118.729V138.529H114.915V114.387Z" fill="url(#paint13_linear_373_2832)"/>
<path d="M116.366 111.91C116.366 111.915 116.288 111.906 116.135 111.882C115.969 111.855 115.747 111.822 115.469 111.776C115.178 111.721 114.813 111.674 114.383 111.633C114.166 111.61 113.935 111.587 113.685 111.559C113.435 111.55 113.172 111.536 112.89 111.522C111.766 111.471 110.384 111.503 108.803 111.744C107.226 111.975 105.446 112.409 103.583 113.163C101.725 113.916 99.7735 114.979 97.9566 116.485C96.1119 117.964 94.503 119.928 92.9173 122.068C91.3176 124.189 89.6856 126.518 87.4156 128.395C86.2921 129.333 85.0161 130.146 83.5968 130.701C82.1775 131.246 80.5963 131.482 79.0429 131.26C77.4802 131.07 76.0332 130.428 74.7479 129.633C73.4719 128.81 72.3392 127.826 71.3406 126.759C69.3248 124.628 67.8639 122.207 66.3197 120.044C64.7941 117.872 63.1852 115.889 61.3035 114.461C60.3742 113.736 59.3617 113.213 58.3585 112.788C57.346 112.382 56.3196 112.132 55.3349 111.975C53.3515 111.679 51.5115 111.85 49.9627 112.206C48.4093 112.566 47.1425 113.135 46.1624 113.676C45.2007 114.258 44.5026 114.789 44.0634 115.182C43.8554 115.372 43.6889 115.524 43.5641 115.635C43.4485 115.737 43.3884 115.787 43.3838 115.783C43.3792 115.778 43.4347 115.723 43.541 115.612C43.6612 115.492 43.8184 115.335 44.0218 115.136C44.4518 114.725 45.1406 114.175 46.1023 113.569C47.0824 113.005 48.3538 112.414 49.9257 112.03C51.4884 111.656 53.3515 111.462 55.3719 111.748C56.3751 111.901 57.42 112.146 58.4556 112.557C59.4773 112.982 60.5222 113.518 61.4699 114.249C63.3932 115.69 65.0252 117.691 66.5648 119.868C68.1182 122.04 69.5837 124.443 71.5717 126.537C72.5565 127.59 73.6753 128.552 74.919 129.356C76.1765 130.132 77.5773 130.756 79.0845 130.936C80.5824 131.149 82.1035 130.922 83.4812 130.396C84.8589 129.86 86.1072 129.065 87.2122 128.145C89.4406 126.306 91.068 124 92.6768 121.878C93.4813 120.816 94.2765 119.78 95.1179 118.828C95.5433 118.357 95.9593 117.89 96.417 117.474L97.0874 116.846C97.314 116.647 97.5497 116.462 97.7809 116.268C99.6302 114.752 101.609 113.685 103.491 112.941C105.377 112.192 107.175 111.772 108.77 111.554C110.365 111.332 111.757 111.314 112.885 111.383C113.167 111.402 113.435 111.416 113.685 111.434C113.935 111.467 114.166 111.494 114.383 111.522C114.818 111.573 115.178 111.628 115.469 111.693C115.747 111.753 115.969 111.795 116.131 111.832C116.292 111.887 116.366 111.906 116.366 111.91ZM37.0777 140.928C36.9899 140.928 36.9159 131.112 36.9159 119.009C36.9159 106.901 36.9852 97.0848 37.0777 97.0848C37.1655 97.0848 37.2395 106.896 37.2395 119.009C37.2395 131.112 37.1702 140.928 37.0777 140.928ZM120.282 140.928C120.282 141.015 102.191 141.089 79.8797 141.089C57.5587 141.089 39.4725 141.02 39.4725 140.928C39.4725 140.84 57.5587 140.766 79.8797 140.766C102.191 140.766 120.282 140.84 120.282 140.928ZM46.7172 143.636C46.7172 143.724 45.4504 143.798 43.8877 143.798C42.3251 143.798 41.0583 143.724 41.0583 143.636C41.0583 143.548 42.3251 143.474 43.8877 143.474C45.4504 143.474 46.7172 143.548 46.7172 143.636ZM56.107 143.774C56.107 143.862 54.5906 143.936 52.7228 143.936C50.855 143.936 49.3385 143.862 49.3385 143.774C49.3385 143.687 50.855 143.613 52.7228 143.613C54.5906 143.613 56.107 143.687 56.107 143.774ZM64.1144 143.774C64.1144 143.862 62.598 143.936 60.7302 143.936C58.8624 143.936 57.346 143.862 57.346 143.774C57.346 143.687 58.8624 143.613 60.7302 143.613C62.6026 143.613 64.1144 143.687 64.1144 143.774ZM72.1219 143.774C72.1219 143.862 70.6055 143.936 68.7377 143.936C66.8699 143.936 65.3535 143.862 65.3535 143.774C65.3535 143.687 66.8653 143.613 68.7377 143.613C70.6101 143.613 72.1219 143.687 72.1219 143.774ZM80.134 143.774C80.134 143.862 78.6176 143.936 76.7498 143.936C74.882 143.936 73.3655 143.862 73.3655 143.774C73.3655 143.687 74.882 143.613 76.7498 143.613C78.6176 143.613 80.134 143.687 80.134 143.774ZM88.1414 143.774C88.1414 143.862 86.625 143.936 84.7572 143.936C82.8894 143.936 81.373 143.862 81.373 143.774C81.373 143.687 82.8894 143.613 84.7572 143.613C86.625 143.613 88.1414 143.687 88.1414 143.774ZM96.1489 143.774C96.1489 143.862 94.6325 143.936 92.7647 143.936C90.8969 143.936 89.3805 143.862 89.3805 143.774C89.3805 143.687 90.8969 143.613 92.7647 143.613C94.6325 143.613 96.1489 143.687 96.1489 143.774ZM104.156 143.774C104.156 143.862 102.64 143.936 100.772 143.936C98.9043 143.936 97.3879 143.862 97.3879 143.774C97.3879 143.687 98.9043 143.613 100.772 143.613C102.64 143.613 104.156 143.687 104.156 143.774ZM112.164 143.774C112.164 143.862 110.647 143.936 108.78 143.936C106.912 143.936 105.395 143.862 105.395 143.774C105.395 143.687 106.912 143.613 108.78 143.613C110.652 143.613 112.164 143.687 112.164 143.774ZM120.171 143.774C120.171 143.862 118.655 143.936 116.787 143.936C114.919 143.936 113.403 143.862 113.403 143.774C113.403 143.687 114.919 143.613 116.787 143.613C118.659 143.613 120.171 143.687 120.171 143.774Z" fill="white"/>
<path d="M67.346 120.455C67.3368 120.413 67.6743 120.464 67.8037 120.899C67.8592 121.102 67.8592 121.389 67.6512 121.638C67.4477 121.892 67.0409 121.948 66.7358 121.8C66.426 121.666 66.1948 121.328 66.2503 121.005C66.2966 120.691 66.5138 120.497 66.7034 120.404C67.1149 120.21 67.3784 120.427 67.3414 120.45C67.3275 120.497 67.0917 120.409 66.819 120.598C66.6895 120.691 66.5601 120.852 66.5462 121.037C66.5277 121.218 66.6572 121.412 66.8698 121.509C67.0825 121.601 67.3137 121.573 67.4385 121.439C67.5679 121.31 67.6049 121.102 67.5864 120.945C67.5448 120.617 67.3183 120.501 67.346 120.455ZM104.207 112.146C104.207 112.127 104.281 112.1 104.424 112.123C104.563 112.146 104.762 112.238 104.924 112.442C105.086 112.636 105.206 112.987 105.058 113.338C104.915 113.676 104.554 113.939 104.124 113.939C103.675 113.939 103.347 113.578 103.255 113.25C103.144 112.908 103.25 112.553 103.435 112.368C103.814 111.989 104.17 112.049 104.161 112.077C104.179 112.127 103.86 112.174 103.611 112.511C103.491 112.673 103.444 112.913 103.532 113.158C103.62 113.398 103.847 113.62 104.129 113.62C104.411 113.625 104.683 113.435 104.79 113.218C104.901 112.996 104.845 112.747 104.739 112.576C104.522 112.215 104.198 112.197 104.207 112.146Z" fill="white"/>
<path d="M104.808 96.0773C104.72 96.0773 104.646 95.8694 104.646 95.6152C104.646 95.361 104.72 95.1531 104.808 95.1531C104.896 95.1531 104.97 95.361 104.97 95.6152C104.965 95.8694 104.896 96.0773 104.808 96.0773ZM104.808 100.079C104.72 100.079 104.646 99.6312 104.646 99.0766C104.646 98.522 104.72 98.0738 104.808 98.0738C104.896 98.0738 104.97 98.522 104.97 99.0766C104.965 99.6312 104.896 100.079 104.808 100.079ZM104.808 104.086C104.72 104.086 104.646 103.638 104.646 103.083C104.646 102.529 104.72 102.08 104.808 102.08C104.896 102.08 104.97 102.529 104.97 103.083C104.965 103.638 104.896 104.086 104.808 104.086ZM104.808 108.093C104.72 108.093 104.646 107.645 104.646 107.09C104.646 106.535 104.72 106.087 104.808 106.087C104.896 106.087 104.97 106.535 104.97 107.09C104.965 107.645 104.896 108.093 104.808 108.093ZM104.808 111.018C104.72 111.018 104.646 110.81 104.646 110.556C104.646 110.302 104.72 110.094 104.808 110.094C104.896 110.094 104.97 110.302 104.97 110.556C104.965 110.81 104.896 111.018 104.808 111.018Z" fill="black"/>
<path d="M131.438 205.567C131.438 205.567 126.722 211.958 110.712 211.574C99.0431 211.297 87.4757 202.466 87.4757 202.466C87.4757 202.466 107.277 189.35 131.438 205.567Z" fill="#9F5200"/>
<path d="M131.188 206.237C131.188 206.237 121.531 207.277 108.646 192.558C99.2557 181.827 97.6422 164.127 97.6422 164.127C97.6422 164.127 125.826 171.096 131.188 206.237Z" fill="#B45D00"/>
<path d="M130.754 205.973C130.754 205.973 121.951 201.87 118.549 182.608C116.066 168.568 123.856 152.587 123.856 152.587C123.856 152.587 144.351 173.129 130.754 205.973Z" fill="#AC651A"/>
<path d="M304.861 209.439C304.861 209.439 309.549 215.794 325.457 215.41C337.052 215.133 348.546 206.357 348.546 206.357C348.546 206.357 328.869 193.325 304.861 209.439Z" fill="#9F5200"/>
<path d="M305.106 210.105C305.106 210.105 314.699 211.14 327.505 196.509C336.84 185.847 338.439 168.254 338.439 168.254C338.439 168.254 310.436 175.186 305.106 210.105Z" fill="#B45D00"/>
<path d="M305.54 209.846C305.54 209.846 314.287 205.765 317.667 186.628C320.131 172.676 312.392 156.797 312.392 156.797C312.392 156.797 292.027 177.21 305.54 209.846Z" fill="#AC651A"/>
<path opacity="0.3" d="M44.7892 124.808L129.367 88.1703L235.886 212.896L42.0939 131.87" fill="#FFC383"/>
<path d="M129.367 88.1703H307.445V212.134H129.367V88.1703Z" fill="url(#paint14_linear_373_2832)"/>
<path d="M141.951 95.3888H300.427V162.921H141.951V95.3888Z" fill="url(#paint15_linear_373_2832)"/>
<path d="M141.951 166.655H224.18V205.978H141.951V166.655Z" fill="url(#paint16_linear_373_2832)"/>
<path d="M186.52 131.505H194.814V161.271H186.52V131.505Z" fill="#A95700"/>
<path d="M195.895 125.867H204.189V161.271H195.895V125.867Z" fill="url(#paint17_linear_373_2832)"/>
<path d="M205.308 106.568H213.602V161.276H205.308V106.568Z" fill="#A95700"/>
<path d="M135.969 103.643C136.995 103.643 137.827 102.811 137.827 101.785C137.827 100.759 136.995 99.927 135.969 99.927C134.942 99.927 134.11 100.759 134.11 101.785C134.11 102.811 134.942 103.643 135.969 103.643Z" fill="url(#paint18_linear_373_2832)"/>
<path d="M135.969 116.227C136.995 116.227 137.827 115.395 137.827 114.369C137.827 113.343 136.995 112.511 135.969 112.511C134.942 112.511 134.11 113.343 134.11 114.369C134.11 115.395 134.942 116.227 135.969 116.227Z" fill="url(#paint19_linear_373_2832)"/>
<path d="M135.969 130.044C136.995 130.044 137.827 129.213 137.827 128.187C137.827 127.161 136.995 126.329 135.969 126.329C134.942 126.329 134.11 127.161 134.11 128.187C134.11 129.213 134.942 130.044 135.969 130.044Z" fill="url(#paint20_linear_373_2832)"/>
<path d="M286.234 180.903C280.034 182.709 280.057 179.835 272.66 178.578C265.267 177.321 262.974 179.835 259.41 182.437C255.85 185.034 250.343 182.312 246.95 181.157C243.552 180.001 238.466 181.818 234.504 185.089C233.205 186.166 231.388 186.772 229.539 187.109V201.689H299.886V171.212C295.337 173.633 291.176 179.461 286.234 180.903Z" fill="url(#paint21_linear_373_2832)"/>
<path d="M286.234 185.186C280.034 186.993 280.057 184.119 272.66 182.862C265.267 181.605 262.974 184.119 259.41 186.721C255.845 189.323 250.343 186.596 246.95 185.441C243.552 184.285 238.466 186.102 234.504 189.373C233.205 190.45 231.388 191.056 229.539 191.393V205.973H299.886V175.495C295.337 177.922 291.176 183.745 286.234 185.186Z" fill="#9F5200"/>
<path d="M149.829 129.633H158.124V161.271H149.829V129.633Z" fill="#A95700"/>
<path d="M158.956 120.321H167.25V161.271H158.956V120.321Z" fill="url(#paint22_linear_373_2832)"/>
<path d="M168.017 141.501H176.311V161.276H168.017V141.501Z" fill="url(#paint23_linear_373_2832)"/>
<path d="M177.204 147.24H185.498V161.271H177.204V147.24Z" fill="url(#paint24_linear_373_2832)"/>
<path d="M202.867 181.383H205.581V201.856H202.867V181.383Z" fill="url(#paint25_linear_373_2832)"/>
<path d="M198.688 189.997H201.402V201.851H198.688V189.997Z" fill="#B45D00"/>
<path d="M194.508 188.149H197.222V201.856H194.508V188.149Z" fill="#A95700"/>
<path d="M190.329 196.329H193.043V201.856H190.329V196.329Z" fill="#B45D00"/>
<path d="M211.231 176.91H213.945V201.851H211.231V176.91Z" fill="#9F5200"/>
<path d="M207.047 179.193H209.76V201.856H207.047V179.193Z" fill="url(#paint26_linear_373_2832)"/>
<path d="M219.59 174.442H222.303V201.851H219.59V174.442Z" fill="#A95700"/>
<path d="M215.41 169.03H218.124V201.856H215.41V169.03Z" fill="#B45D00"/>
<path d="M192.969 204.425C192.969 204.49 192.433 204.541 191.767 204.541C191.106 204.541 190.565 204.49 190.565 204.425C190.565 204.361 191.101 204.305 191.767 204.305C192.433 204.305 192.969 204.361 192.969 204.425ZM197.093 204.425C197.093 204.49 196.557 204.541 195.891 204.541C195.23 204.541 194.693 204.49 194.693 204.425C194.693 204.361 195.23 204.305 195.891 204.305C196.557 204.305 197.093 204.361 197.093 204.425ZM201.212 204.425C201.212 204.49 200.676 204.541 200.015 204.541C199.354 204.541 198.817 204.49 198.817 204.425C198.817 204.361 199.354 204.305 200.015 204.305C200.676 204.305 201.212 204.361 201.212 204.425ZM205.331 204.425C205.331 204.49 204.795 204.541 204.134 204.541C203.473 204.541 202.932 204.49 202.932 204.425C202.932 204.361 203.468 204.305 204.134 204.305C204.795 204.305 205.331 204.361 205.331 204.425ZM209.455 204.425C209.455 204.49 208.919 204.541 208.258 204.541C207.597 204.541 207.056 204.49 207.056 204.425C207.056 204.361 207.592 204.305 208.258 204.305C208.919 204.305 209.455 204.361 209.455 204.425ZM213.575 204.425C213.575 204.49 213.038 204.541 212.373 204.541C211.712 204.541 211.171 204.49 211.171 204.425C211.171 204.361 211.707 204.305 212.373 204.305C213.038 204.305 213.575 204.361 213.575 204.425ZM217.699 204.425C217.699 204.49 217.162 204.541 216.497 204.541C215.835 204.541 215.299 204.49 215.299 204.425C215.299 204.361 215.835 204.305 216.497 204.305C217.158 204.305 217.699 204.361 217.699 204.425ZM221.818 204.425C221.818 204.49 221.282 204.541 220.616 204.541C219.955 204.541 219.418 204.49 219.418 204.425C219.418 204.361 219.955 204.305 220.616 204.305C221.282 204.305 221.818 204.361 221.818 204.425Z" fill="#35281A"/>
<path opacity="0.5" d="M47.1101 223.211C61.0564 223.211 72.3622 221.55 72.3622 219.5C72.3622 217.451 61.0564 215.789 47.1101 215.789C33.1637 215.789 21.8579 217.451 21.8579 219.5C21.8579 221.55 33.1637 223.211 47.1101 223.211Z" fill="#402100"/>
<path d="M49.8749 135.035L46.5091 149.815C46.4167 150.217 46.6894 150.614 47.1009 150.67L57.5772 152.171C57.9424 152.222 58.2845 151.987 58.3678 151.631L61.7335 136.856C61.8259 136.454 61.5532 136.057 61.1463 135.997L50.6701 134.495C50.3002 134.439 49.9581 134.675 49.8749 135.035Z" fill="black"/>
<path d="M50.5314 135.511L47.309 149.657L57.7113 151.15L60.9337 137.004L50.5314 135.511Z" fill="url(#paint27_linear_373_2832)"/>
<path fill-rule="evenodd" clip-rule="evenodd" d="M59.8287 138.044L50.9937 136.778L59.8287 138.044ZM59.5328 139.384L50.6932 138.113L59.5328 139.384ZM55.8527 140.493L50.3279 139.698L55.8527 140.493ZM55.4597 141.639L49.935 140.849L55.4597 141.639ZM55.0668 142.79L49.542 142L55.0668 142.79ZM57.0918 149.14L51.5716 148.35L57.0918 149.14Z" fill="black"/>
<path d="M59.8287 138.044L50.9937 136.778M59.5328 139.384L50.6932 138.113M55.8527 140.493L50.3279 139.698M55.4597 141.639L49.935 140.849M55.0668 142.79L49.542 142M57.0918 149.14L51.5716 148.35" stroke="#F0CAA1" stroke-width="1.481" stroke-linecap="round" stroke-linejoin="round"/>
<path d="M45.8433 149.986C46.4351 149.708 46.8789 149.191 47.2996 148.687L48.5479 147.204C48.7144 147.009 48.8854 146.792 48.9039 146.538C48.2058 146.483 47.7573 147.388 47.0592 147.439C47.3829 146.293 47.8498 145.184 48.4462 144.149C48.5895 143.895 48.7467 143.603 48.645 143.331C47.8914 143.617 47.2534 144.153 46.7079 144.745C46.3241 145.161 45.9682 145.609 45.6584 146.081C44.7384 147.472 44.1651 149.071 43.7767 150.697" fill="url(#paint28_linear_373_2832)"/>
<path d="M42.8613 170.837L39.6066 178.296C40.9797 180.611 41.7702 183.347 41.8766 186.115C41.9321 187.557 41.8026 188.994 41.8442 190.436C41.8488 190.538 41.8627 190.649 41.8858 190.751C42.3204 188.615 42.6487 186.855 42.7735 185.713C43.1295 182.506 43.1295 177.409 43.0185 170.828C42.9723 170.828 42.9168 170.828 42.8613 170.837Z" fill="#F2BB81"/>
<path d="M42.8429 161.89L35.3624 155.582C35.3624 155.582 31.8811 160.3 33.1941 164.852C33.8414 167.089 34.6505 168.203 35.0018 169.266C35.3301 170.259 37.5816 184.304 37.4152 185.334C37.2487 186.36 36.0374 189.235 35.5751 192.257C35.0666 195.58 35.1035 205.761 34.7845 209.878H34.7799C34.7799 209.878 34.5256 212.952 34.1604 213.622C33.7998 214.292 33.2866 215.04 33.1988 215.951C33.1479 216.478 33.4392 217.037 34.0448 217.346C34.6505 217.656 35.0573 217.333 35.2746 217.36C36.5414 217.513 36.7679 218.474 38.9408 218.835C39.6112 218.945 40.6376 218.719 41.2247 218.257C41.4559 218.077 41.4466 217.786 41.3172 217.582C41.1877 217.383 39.5835 216.834 38.8622 216.367C38.1734 215.923 37.4984 214.703 37.3088 214.287C37.2626 214.181 37.2718 213.876 37.3135 213.492C37.4105 212.836 37.5215 212.152 37.6417 211.445C37.7388 210.941 37.8174 210.576 37.8174 210.576L37.7943 210.572C39.38 201.625 42.3297 189.803 42.7828 185.727C43.2821 181.175 43.0786 172.861 42.8429 161.89Z" fill="url(#paint29_linear_373_2832)"/>
<path d="M41.3911 218.405C41.5483 218.132 41.5899 217.725 41.442 217.624C41.2386 217.485 40.5081 217.004 40.0874 216.81C39.6667 216.616 38.9963 216.445 39.2321 216.575C39.4679 216.704 39.0333 217.18 38.6403 217.152C37.2764 217.069 36.2732 216.163 35.4965 215.969C34.3777 215.687 33.9061 214.366 33.8552 214.153C33.6426 214.287 33.1525 215.355 33.0508 215.687C32.9629 215.992 32.7965 216.542 32.8844 216.857C32.9445 217.074 33.0739 217.513 33.0092 217.975C33.0092 217.975 33.2311 218.146 33.8136 218.266C34.1835 218.345 34.6828 218.28 34.6828 218.28L34.7799 217.578C34.7799 217.578 35.085 217.568 35.4734 217.647C35.8617 217.725 36.4951 218.095 36.5321 218.141C36.6893 218.326 36.8141 218.668 37.0175 218.77C37.5631 219.042 38.1132 219.176 38.8067 219.218C40.2677 219.292 41.1184 218.867 41.3911 218.405Z" fill="black"/>
<path d="M53.0556 218.266C52.8938 218.09 51.1601 217.809 50.351 217.467C49.5789 217.143 48.6404 216.103 48.4555 215.66C48.2705 215.221 48.3168 212.984 48.3399 212.046C48.5017 205.58 49.6991 189.78 49.8702 186C50.1707 179.424 49.3154 172.635 46.7865 162.08L37.3597 154.847C37.3597 154.847 34.7198 159.75 35.6028 164.441C36.116 167.163 38.3722 167.579 38.7559 168.637C39.1396 169.696 44.8401 186.744 44.8401 186.744C44.8401 186.744 43.7305 190.432 43.6658 194.471C43.6103 197.918 45.173 208.316 45.4642 212.277C45.4966 213.049 45.6307 214.906 45.4041 215.493C45.1267 216.214 44.4101 217.065 44.4471 217.975C44.4656 218.506 44.8493 219.006 45.5197 219.213C46.1854 219.421 46.5599 219.033 46.7911 219.024C48.118 218.969 48.4878 219.884 50.781 219.879C51.4883 219.879 52.5147 219.491 53.0602 218.932C53.2636 218.733 53.2174 218.446 53.0556 218.266Z" fill="url(#paint30_linear_373_2832)"/>
<path d="M53.2543 219.079C53.3792 218.784 53.3607 218.372 53.1989 218.298C52.9677 218.197 52.1494 217.836 51.6871 217.716C51.2247 217.591 50.5128 217.531 50.7717 217.619C51.0306 217.707 50.6515 218.248 50.24 218.289C48.8206 218.428 47.6556 217.698 46.828 217.633C45.6306 217.541 45.1914 216.311 45.1128 216.103C44.914 216.27 44.3222 217.402 44.2668 217.753C44.2159 218.067 44.1281 218.64 44.2621 218.936C44.3546 219.14 44.5534 219.555 44.5488 220.018C44.5488 220.018 44.803 220.147 45.4226 220.175C45.8155 220.189 46.3195 220.045 46.3195 220.045V219.334C46.3195 219.334 46.6338 219.274 47.0453 219.287C47.4568 219.301 47.9653 219.514 48.215 219.699C48.4092 219.847 48.6126 220.091 48.8438 220.152C49.5095 220.318 49.9857 220.364 50.7069 220.29C52.2187 220.138 53.037 219.579 53.2543 219.079Z" fill="black"/>
<path d="M35.5612 154.787C34.9232 155.49 32.6439 159.288 32.6162 162.375C32.5931 165.467 33.6934 167.45 33.7905 168.092C34.5117 172.815 35.2145 178.509 35.2145 178.818C35.2145 179.128 37.8959 180.916 41.5021 180.69C48.1642 180.269 50.7532 178.527 50.7532 178.527C50.7532 178.527 50.4388 167.089 49.4124 161.451C48.8993 158.627 46.657 154.075 46.657 154.075" fill="url(#paint31_linear_373_2832)"/>
<path d="M29.4817 142.439C29.4817 142.439 30.5543 147.767 30.8363 148.715C31.1183 149.662 32.5099 155.684 33.8275 155.577C35.1452 155.471 42.3713 149.445 42.3713 149.445L41.3496 147.398L34.988 150.429C34.988 150.429 34.4147 143.548 33.9108 141.907" fill="white"/>
<path d="M31.9413 145.72C32.6163 148.1 33.994 150.605 34.4055 152.453C34.4887 152.823 38.8946 151.224 38.9039 149.57" fill="url(#paint32_linear_373_2832)"/>
<path d="M31.3772 139.338C31.3772 139.338 31.1461 143.788 31.9505 146.034C32.7457 146.02 33.4438 145.836 33.4438 145.836L31.3772 139.338Z" fill="#EE7B00"/>
<path d="M43.8692 121.084C45.1406 122.729 44.8909 125.049 44.5766 127.105C44.4194 128.145 44.2576 129.185 44.1004 130.225C44.0264 130.719 43.9247 131.26 43.541 131.579C43.1526 131.898 42.5978 131.893 42.0939 131.874L42.1077 134.458C40.6329 134.49 39.1627 134.499 37.6879 134.476C37.6879 133.871 37.5539 133.27 37.3088 132.725C36.5876 132.711 36.1068 131.99 35.8248 131.325C35.5011 130.562 35.2607 129.763 35.0342 128.963C34.7291 127.905 34.4378 126.828 34.41 125.723C34.3823 124.619 34.6458 123.473 35.3439 122.623C35.8201 122.04 36.472 121.629 37.1378 121.282C38.0532 120.806 39.1489 120.432 40.092 120.848" fill="white"/>
<path d="M42.5886 124.859C42.7042 125.039 42.6764 125.284 42.7874 125.469C42.9723 125.783 43.2127 125.894 43.541 126.047C44.068 126.292 43.9478 127.064 43.9293 127.406C44.3269 127.142 44.3916 126.417 44.4887 126.052C44.5951 125.64 44.6644 125.215 44.7892 124.808C44.9048 124.411 45.1082 124.037 45.1452 123.616C45.2747 122.17 44.3685 120.469 43.2682 119.66C42.4684 119.069 41.2525 119.092 40.3509 119.693C39.9718 119.947 39.6852 120.326 39.5187 120.751C39.4448 120.931 39.3985 121.144 39.4864 121.319" fill="black"/>
<path d="M35.4966 135.072C35.5706 134.569 35.7093 133.982 36.1762 133.783C36.3056 133.728 36.449 133.709 36.5923 133.695C38.0301 133.538 39.4772 133.469 40.9196 133.492C41.516 133.501 42.1356 133.533 42.6719 133.797C43.5087 134.217 43.971 135.119 44.3778 135.964" fill="url(#paint33_linear_373_2832)"/>
<path d="M47.1703 144.736C47.1703 145.207 46.9068 145.84 46.8235 146.085C46.4953 146.256 45.1915 146.533 44.4426 146.191C44.2761 144.634 43.3654 141.639 43.3654 141.639C43.3654 141.639 47.1703 144.301 47.1703 144.736Z" fill="#EE7B00"/>
<path d="M45.4966 143.65C45.4966 143.65 49.8147 154.075 51.6871 154.075C53.051 154.075 56.3889 144.449 56.3889 144.449L54.2761 143.451L51.9229 147.481L49.5419 139.962" fill="white"/>
<path d="M53.86 144.167C53.86 144.167 54.5581 143.067 54.5072 142.286C54.4887 141.991 54.3084 140.572 54.4564 140.295C54.6043 140.017 54.9603 139.102 55.1637 138.927C55.3672 138.751 56.1161 138.465 56.3011 138.589C56.486 138.714 56.7125 138.132 57.0177 138.183C57.3228 138.233 57.5724 138.488 57.5724 138.765C57.5724 139.042 57.9793 139.093 58.0301 139.296C58.081 139.5 58.0579 139.675 58.1319 139.828C58.2058 139.98 58.4324 139.906 58.511 140.285C58.5849 140.632 58.4879 140.664 58.511 140.845C58.5341 141.02 58.6866 141.006 58.6358 141.344C58.5849 141.681 58.3538 142.12 58.1504 142.499C57.9469 142.878 57.5308 143.354 56.9714 143.691C56.6987 143.858 56.5461 144.149 56.2826 144.639" fill="white"/>
<path d="M55.0205 136.112C54.965 136.029 54.8217 135.89 54.646 136.011C54.4749 136.131 54.5258 136.339 54.5628 136.427L55.8388 139.315C55.8388 139.315 55.9405 139.435 56.1393 139.259C56.352 139.07 56.2872 138.977 56.2872 138.977C56.2872 138.977 55.0713 136.195 55.0205 136.112Z" fill="black"/>
<path d="M56.3612 138.788C56.1162 139.222 55.8342 139.361 55.5845 139.597C55.3857 139.782 55.4088 139.902 55.1915 140.096C55.5753 140.068 55.5105 139.842 56.0052 139.481C56.2364 139.315 56.4722 139.135 56.5184 138.853C56.5369 138.76 56.4213 138.705 56.3612 138.788Z" fill="black"/>
<path d="M47.1749 145.549C48.5665 145.295 49.6437 144.329 50.7486 143.201C50.1337 141.505 49.26 137.332 47.7389 135.738C46.167 134.097 43.5179 134.301 42.0985 134.347C40.6284 134.282 39.4171 134.458 37.6602 134.536C36.4906 134.587 35.3255 134.726 34.1789 134.975C34.0495 135.003 33.92 135.035 33.7906 135.068V135.054C33.7906 135.054 31.6824 135.28 30.6098 136.098C27.8821 138.183 29.9949 145.757 29.9949 145.757C29.9949 145.757 29.8608 146.159 31.6916 146.057C32.0014 146.039 32.3019 146.011 32.5885 145.974C33.5409 148.206 35.9358 152.809 35.2377 153.793C35.0573 154.048 34.5996 154.538 34.5442 154.856C34.3407 156.026 36.9899 156.442 38.1226 156.534C39.847 156.677 41.8304 156.58 43.5595 156.502C44.8725 156.442 47.7389 155.984 47.9423 154.362C47.9839 154.043 47.8267 153.789 47.6696 153.558C47.4661 153.262 47.0038 152.906 46.8374 152.578C46.4398 151.792 46.0884 148.488 46.2271 147.647C46.3334 146.972 46.7958 146.533 47.1749 145.549Z" fill="url(#paint34_linear_373_2832)"/>
<path d="M42.7735 180.588C42.3481 177.843 39.7221 169.34 39.6112 169.104C38.178 167.995 37.2348 166.849 36.7586 165.925C36.435 167.787 37.2857 169.631 38.0809 171.35C39.4725 174.349 40.3 177.607 41.4975 180.69" fill="url(#paint35_linear_373_2832)"/>
<path d="M42.3482 128.931C42.1725 128.066 42.1864 127.577 42.4684 126.999C42.5609 126.809 42.6857 126.629 42.8568 126.509C43.0879 126.347 43.3885 126.315 43.6427 126.426C43.8092 126.5 43.9432 126.634 44.0403 126.796C44.3408 125.636 44.4056 124.397 44.3177 123.191C44.179 121.278 43.0278 119.799 41.3404 119.106C38.2197 117.825 33.7397 119.092 32.473 122.151C31.516 124.462 32.0014 127.798 33.8322 129.739C35.455 131.454 37.7851 131.708 39.9395 131.352C41.0398 131.172 42.7412 131.278 43.3099 129.781C43.3561 129.665 43.2544 129.55 43.1388 129.559C42.6903 129.596 42.3806 129.092 42.3482 128.931Z" fill="black"/>
<path d="M36.264 130.28C35.3671 130.026 34.3962 130.53 33.7952 131.251C33.1017 132.078 32.8058 133.367 33.4484 134.227C33.6888 134.55 34.0356 134.777 34.3869 134.975C35.4595 135.572 36.7263 135.923 37.9191 135.632C39.1073 135.341 40.1521 134.273 40.1383 133.048C40.1244 131.939 39.3153 131.015 38.497 130.266" fill="black"/>
<path opacity="0.5" d="M309.729 220.85C309.729 223.562 298.707 225.762 285.115 225.762C271.522 225.762 260.501 223.562 260.501 220.85C260.501 218.137 271.518 215.937 285.115 215.937C298.712 215.937 309.729 218.137 309.729 220.85Z" fill="#402100"/>
<path d="M277.015 138.742L280.279 153.073C280.367 153.461 280.103 153.844 279.706 153.905L269.544 155.365C269.192 155.416 268.855 155.185 268.776 154.838L265.512 140.507C265.424 140.114 265.688 139.731 266.085 139.675L276.247 138.22C276.603 138.164 276.936 138.395 277.015 138.742Z" fill="black"/>
<path d="M276.381 139.204L279.507 152.929L269.414 154.376L266.289 140.65L276.381 139.204Z" fill="url(#paint36_linear_373_2832)"/>
<path fill-rule="evenodd" clip-rule="evenodd" d="M267.357 141.663L275.933 140.433L267.357 141.663ZM267.648 142.961L276.22 141.732L267.648 142.961ZM271.217 144.038L276.576 143.266L271.217 144.038ZM271.596 145.152L276.955 144.38L271.596 145.152ZM271.98 146.265L277.338 145.498L271.98 146.265ZM270.015 152.426L275.374 151.659L270.015 152.426Z" fill="black"/>
<path d="M267.357 141.663L275.933 140.433M267.648 142.961L276.22 141.732M271.217 144.038L276.576 143.266M271.596 145.152L276.955 144.38M271.98 146.265L277.338 145.498M270.015 152.426L275.374 151.659" stroke="#F0CAA1" stroke-width="1.436" stroke-linecap="round" stroke-linejoin="round"/>
<path d="M280.926 153.248C280.353 152.976 279.923 152.476 279.516 151.987C279.114 151.506 278.707 151.025 278.305 150.545C278.143 150.355 277.977 150.147 277.958 149.902C278.638 149.847 279.072 150.725 279.747 150.776C279.433 149.662 278.98 148.585 278.402 147.582C278.263 147.338 278.111 147.051 278.208 146.788C278.938 147.065 279.558 147.587 280.089 148.16C280.464 148.562 280.806 148.997 281.106 149.454C281.999 150.804 282.553 152.356 282.933 153.932" fill="black"/>
<path d="M283.816 173.467L286.969 180.704C285.637 182.95 284.87 185.602 284.768 188.287C284.717 189.683 284.837 191.083 284.8 192.479C284.796 192.576 284.782 192.682 284.759 192.784C284.338 190.714 284.019 189.008 283.899 187.895C283.552 184.784 283.552 179.839 283.663 173.457C283.714 173.462 283.765 173.462 283.816 173.467Z" fill="#F2BB81"/>
<path d="M283.839 164.792L291.093 158.674C291.093 158.674 294.468 163.249 293.196 167.667C292.572 169.839 291.786 170.916 291.444 171.946C291.125 172.907 288.943 186.536 289.105 187.529C289.266 188.528 290.441 191.314 290.889 194.244C291.384 197.465 291.347 207.341 291.657 211.339H291.661C291.661 211.339 291.911 214.32 292.262 214.966C292.614 215.618 293.108 216.344 293.196 217.222C293.247 217.73 292.96 218.275 292.373 218.576C291.786 218.876 291.393 218.562 291.18 218.59C289.951 218.738 289.733 219.671 287.625 220.018C286.973 220.124 285.979 219.907 285.406 219.454C285.184 219.278 285.193 218.996 285.318 218.802C285.443 218.608 286.996 218.072 287.699 217.624C288.37 217.194 289.021 216.011 289.206 215.604C289.253 215.498 289.243 215.207 289.202 214.832C289.105 214.195 288.998 213.529 288.883 212.85C288.79 212.36 288.716 212.004 288.716 212.004L288.739 212C287.204 203.325 284.343 191.855 283.903 187.899C283.409 183.495 283.608 175.435 283.839 164.792Z" fill="black"/>
<path d="M285.244 219.606C285.092 219.343 285.05 218.946 285.193 218.848C285.392 218.714 286.1 218.248 286.506 218.058C286.913 217.869 287.565 217.702 287.334 217.827C287.107 217.952 287.528 218.414 287.907 218.386C289.23 218.308 290.205 217.425 290.959 217.24C292.045 216.968 292.503 215.687 292.549 215.479C292.757 215.609 293.233 216.644 293.33 216.968C293.418 217.263 293.575 217.799 293.492 218.104C293.437 218.317 293.307 218.742 293.372 219.186C293.372 219.186 293.159 219.352 292.591 219.468C292.23 219.542 291.749 219.477 291.749 219.477L291.657 218.793C291.657 218.793 291.361 218.784 290.986 218.858C290.612 218.936 289.997 219.292 289.96 219.338C289.807 219.519 289.687 219.847 289.488 219.948C288.961 220.216 288.425 220.341 287.755 220.383C286.335 220.471 285.508 220.059 285.244 219.606Z" fill="black"/>
<path d="M273.931 219.477C274.088 219.306 275.766 219.033 276.557 218.701C277.306 218.386 278.217 217.379 278.392 216.949C278.568 216.519 278.527 214.352 278.508 213.441C278.351 207.17 277.19 191.846 277.024 188.176C276.733 181.799 277.56 175.214 280.015 164.973L289.16 157.957C289.16 157.957 291.721 162.717 290.861 167.265C290.362 169.904 288.175 170.31 287.805 171.336C287.435 172.362 281.906 188.897 281.906 188.897C281.906 188.897 282.983 192.474 283.043 196.389C283.099 199.734 281.578 209.818 281.296 213.659C281.263 214.412 281.134 216.21 281.356 216.778C281.629 217.481 282.318 218.303 282.285 219.186C282.267 219.699 281.897 220.189 281.245 220.387C280.598 220.591 280.237 220.212 280.015 220.202C278.725 220.147 278.369 221.034 276.146 221.034C275.461 221.034 274.463 220.655 273.936 220.115C273.728 219.925 273.774 219.648 273.931 219.477Z" fill="black"/>
<path d="M273.741 220.263C273.621 219.976 273.635 219.579 273.797 219.505C274.019 219.403 274.814 219.056 275.263 218.936C275.711 218.816 276.404 218.761 276.15 218.844C275.896 218.932 276.266 219.454 276.663 219.491C278.041 219.625 279.169 218.918 279.974 218.853C281.134 218.761 281.559 217.568 281.638 217.37C281.832 217.531 282.405 218.631 282.456 218.969C282.507 219.274 282.59 219.828 282.461 220.119C282.373 220.318 282.179 220.72 282.184 221.168C282.184 221.168 281.939 221.298 281.337 221.321C280.958 221.335 280.468 221.196 280.468 221.196V220.508C280.468 220.508 280.163 220.447 279.766 220.466C279.363 220.48 278.873 220.683 278.633 220.868C278.443 221.011 278.245 221.252 278.023 221.307C277.38 221.469 276.918 221.515 276.215 221.446C274.745 221.289 273.95 220.748 273.741 220.263Z" fill="black"/>
<path d="M290.903 157.902C291.523 158.581 293.732 162.265 293.756 165.264C293.779 168.263 292.711 170.186 292.618 170.809C291.915 175.389 294.847 198.445 294.847 198.746C294.847 199.046 291.116 202.064 287.634 202.461C279.988 203.335 272.775 200.058 272.775 200.058C272.775 200.058 274.088 182.367 277.468 164.367C277.981 161.631 280.14 157.213 280.14 157.213" fill="url(#paint37_linear_373_2832)"/>
<path d="M296.798 145.923C296.798 145.923 295.757 151.09 295.485 152.01C295.212 152.929 293.862 158.771 292.581 158.669C291.301 158.567 284.292 152.717 284.292 152.717L285.286 150.734L291.458 153.673C291.458 153.673 292.017 146.996 292.503 145.406" fill="black"/>
<path d="M294.958 142.919C294.958 142.919 295.184 147.236 294.398 149.417C293.626 149.403 292.951 149.228 292.951 149.228L294.958 142.919Z" fill="#EE7B00"/>
<path d="M282.84 125.21C281.606 126.809 281.851 129.055 282.156 131.052C282.308 132.059 282.461 133.071 282.618 134.079C282.692 134.559 282.789 135.082 283.164 135.391C283.538 135.701 284.079 135.696 284.565 135.678L284.551 138.183C285.979 138.215 287.408 138.224 288.836 138.201C288.836 137.614 288.966 137.032 289.206 136.5C289.904 136.487 290.371 135.789 290.644 135.142C290.959 134.402 291.19 133.626 291.412 132.849C291.707 131.824 291.989 130.775 292.017 129.707C292.045 128.639 291.791 127.526 291.111 126.698C290.649 126.135 290.015 125.737 289.368 125.4C288.48 124.938 287.417 124.573 286.502 124.975" fill="white"/>
<path d="M284.084 128.875C283.973 129.051 283.996 129.287 283.894 129.467C283.718 129.772 283.483 129.878 283.164 130.026C282.65 130.266 282.771 131.01 282.785 131.348C282.396 131.089 282.336 130.391 282.244 130.031C282.137 129.633 282.073 129.222 281.952 128.824C281.841 128.436 281.643 128.076 281.606 127.669C281.481 126.264 282.359 124.619 283.423 123.829C284.195 123.256 285.378 123.279 286.252 123.861C286.622 124.106 286.899 124.476 287.061 124.887C287.13 125.063 287.181 125.271 287.093 125.437" fill="black"/>
<path d="M290.963 138.779C290.889 138.289 290.76 137.72 290.302 137.526C290.177 137.471 290.039 137.457 289.9 137.443C288.504 137.291 287.103 137.221 285.702 137.244C285.124 137.254 284.523 137.281 284.005 137.54C283.192 137.947 282.743 138.825 282.35 139.643" fill="url(#paint38_linear_373_2832)"/>
<path d="M279.641 148.151C279.641 148.608 279.895 149.218 279.978 149.463C280.297 149.625 281.564 149.898 282.29 149.57C282.447 148.058 283.335 145.152 283.335 145.152C283.335 145.152 279.641 147.73 279.641 148.151Z" fill="#EE7B00"/>
<path d="M281.264 147.097C281.264 147.097 277.075 157.209 275.263 157.209C273.94 157.209 270.699 147.874 270.699 147.874L272.748 146.903L275.031 150.813L277.343 143.52" fill="black"/>
<path d="M273.15 147.606C273.15 147.606 272.47 146.538 272.521 145.78C272.54 145.489 272.711 144.116 272.567 143.848C272.424 143.58 272.082 142.693 271.883 142.522C271.684 142.351 270.958 142.074 270.783 142.199C270.607 142.323 270.385 141.755 270.089 141.806C269.793 141.857 269.548 142.101 269.548 142.37C269.548 142.638 269.155 142.688 269.104 142.887C269.054 143.086 269.077 143.257 269.007 143.405C268.933 143.553 268.716 143.479 268.638 143.848C268.568 144.186 268.661 144.218 268.638 144.389C268.614 144.56 268.466 144.546 268.513 144.874C268.564 145.202 268.785 145.628 268.984 145.997C269.183 146.367 269.585 146.825 270.126 147.153C270.394 147.314 270.538 147.596 270.792 148.072" fill="black"/>
<path d="M272.026 139.791C272.077 139.712 272.221 139.578 272.387 139.694C272.553 139.809 272.503 140.013 272.466 140.096L271.227 142.896C271.227 142.896 271.125 143.012 270.935 142.841C270.727 142.661 270.792 142.568 270.792 142.568C270.792 142.568 271.976 139.869 272.026 139.791Z" fill="white"/>
<path d="M270.723 142.383C270.958 142.804 271.231 142.938 271.476 143.169C271.67 143.349 271.643 143.465 271.855 143.654C271.481 143.626 271.545 143.405 271.065 143.058C270.843 142.896 270.612 142.721 270.565 142.448C270.551 142.356 270.667 142.305 270.723 142.383Z" fill="black"/>
<path d="M279.631 148.941C278.282 148.692 277.237 147.758 276.164 146.663C276.76 145.022 277.607 140.969 279.081 139.426C280.602 137.836 283.173 138.03 284.551 138.076C285.975 138.012 287.149 138.183 288.855 138.261C289.988 138.312 291.12 138.441 292.234 138.686C292.364 138.714 292.489 138.742 292.609 138.774L292.614 138.76C292.614 138.76 294.662 138.977 295.697 139.772C298.342 141.796 296.294 149.14 296.294 149.14C296.294 149.14 296.423 149.533 294.648 149.431C294.347 149.412 294.056 149.385 293.779 149.348C292.854 151.515 290.528 155.975 291.208 156.931C291.384 157.181 291.828 157.652 291.878 157.962C292.073 159.099 289.507 159.496 288.406 159.589C286.733 159.727 284.81 159.635 283.131 159.556C281.86 159.496 279.081 159.053 278.883 157.481C278.846 157.172 278.998 156.927 279.151 156.7C279.345 156.414 279.793 156.067 279.955 155.753C280.343 154.99 280.681 151.788 280.547 150.97C280.45 150.323 280.001 149.898 279.631 148.941Z" fill="#A95700"/>
<path d="M284.319 132.822C284.486 131.981 284.477 131.509 284.199 130.95C284.107 130.765 283.987 130.59 283.825 130.474C283.715 130.397 283.587 130.35 283.454 130.336C283.32 130.322 283.185 130.343 283.062 130.396C282.9 130.465 282.771 130.594 282.678 130.751C282.387 129.624 282.327 128.422 282.41 127.253C282.544 125.395 283.663 123.963 285.3 123.288C288.328 122.045 292.674 123.274 293.903 126.241C294.833 128.482 294.361 131.722 292.586 133.598C291.014 135.262 288.749 135.507 286.663 135.165C285.595 134.989 283.945 135.096 283.395 133.644C283.353 133.533 283.45 133.418 283.561 133.427C283.987 133.469 284.287 132.979 284.319 132.822Z" fill="black"/>
<path d="M290.219 134.134C291.093 133.889 292.031 134.379 292.614 135.072C293.284 135.877 293.575 137.124 292.947 137.961C292.711 138.275 292.378 138.497 292.036 138.686C290.995 139.264 289.766 139.606 288.61 139.319C287.454 139.038 286.442 138.002 286.455 136.815C286.469 135.738 287.255 134.841 288.046 134.116" fill="black"/>
<path d="M283.825 130.474C283.825 130.474 284.712 130.483 283.552 133.432C282.392 136.38 282.281 141.949 282.281 141.949C282.281 141.949 285.448 143.261 289.71 143.151C293.973 143.04 294.407 143.04 294.518 142.712C294.629 142.383 297.251 126.44 291.458 123.708" fill="black"/>
<path opacity="0.5" d="M257.07 247.469C271.017 247.469 282.322 245.807 282.322 243.758C282.322 241.708 271.017 240.047 257.07 240.047C243.124 240.047 231.818 241.708 231.818 243.758C231.818 245.807 243.124 247.469 257.07 247.469Z" fill="#402100"/>
<path d="M228.101 192.696H252.068L251.032 190.399H227.153L228.101 192.696Z" fill="black"/>
<path d="M273.561 243.859H270.723L235.309 154.145H238.415L273.561 243.859Z" fill="black"/>
<path d="M223.011 179.816H246.978L245.942 177.52H222.063L223.011 179.816ZM217.874 166.756H241.841L240.806 164.455H216.927L217.874 166.756ZM248.013 243.859H245.175L209.76 154.145H212.872L248.013 243.859Z" fill="black"/>
<path d="M243.237 231.7H267.209L266.173 229.404H242.294L243.237 231.7ZM238.193 218.636H262.16L261.125 216.339H237.246L238.193 218.636ZM233.099 205.849H257.07L256.035 203.552H232.156L233.099 205.849Z" fill="black"/>
<path d="M241.559 105.893L240.681 104.068C240.681 104.068 238.989 104.608 237.639 104.678C236.289 104.747 235.748 105.015 235.748 105.015L234.666 106.771C234.666 106.771 238.855 107.58 241.559 105.893Z" fill="url(#paint39_linear_373_2832)"/>
<path d="M241.559 105.893C241.559 105.893 243.788 105.69 244.939 106.365C246.09 107.039 247.306 111.296 247.708 114.202C248.115 117.109 248.79 128.39 248.859 130.687C248.929 132.984 248.859 138.187 248.859 138.187C248.859 138.187 242.775 139.472 238.586 139.338C234.398 139.204 231.083 135.89 231.083 135.89C231.083 135.89 231.42 131.093 231.961 129.541C232.502 127.988 233.381 125.15 232.84 122.784C232.299 120.418 230.676 113.597 231.083 111.027C231.49 108.458 231.083 107.987 232.502 107.515C233.922 107.044 234.666 106.771 234.666 106.771C234.666 106.771 238.249 107.58 241.559 105.893Z" fill="url(#paint40_linear_373_2832)"/>
<path d="M235.882 111.545C235.882 111.545 235.521 114.383 233.357 117.627C231.194 120.871 228.494 124.069 227.592 124.563C226.691 125.058 224.8 124.97 223.764 124.157C222.729 123.348 215.563 115.057 215.563 115.057C215.563 115.057 215.516 114.068 216.33 113.209C217.139 112.354 217.953 112.354 217.953 112.354L224.846 118.163C224.846 118.163 229.215 110.778 230.297 109.47C231.379 108.162 232.461 107.848 233.316 107.982C234.171 108.121 235.974 109.65 235.882 111.545Z" fill="url(#paint41_linear_373_2832)"/>
<path d="M217.454 112.4C217.454 112.4 215.965 110.824 215.156 110.371C214.347 109.923 211.73 109.382 211.369 109.424C211.009 109.47 211 109.715 211.448 109.941C211.896 110.168 212.9 110.459 212.9 110.459C212.9 110.459 211.638 111.226 211.638 111.767C211.638 112.308 212.447 113.343 212.946 113.343C213.441 113.343 214.162 113.209 214.162 113.209L215.651 114.336C215.651 114.336 215.965 112.941 217.454 112.4Z" fill="white"/>
<path d="M245.207 106.568C245.137 106.494 251.661 112.141 253.45 114.711C255.239 117.28 256.76 121.028 256.525 122.04C256.289 123.052 254.463 124.947 253.247 125.959C252.031 126.971 248.818 129.134 248.818 129.134L248.549 122.715C248.549 122.715 250.745 120.686 250.542 120.418C250.339 120.15 248.11 117.918 248.11 117.918C248.11 117.918 247.805 113.528 247.098 111.097C246.39 108.661 245.849 107.243 245.207 106.568Z" fill="url(#paint42_linear_373_2832)"/>
<path d="M231.411 136.191C232.35 137.013 235.174 139.222 238.582 139.333C242.77 139.467 248.855 138.183 248.855 138.183C248.855 138.183 248.11 143.114 247.505 145.073C246.894 147.033 246.492 149.533 246.423 150.341C246.353 151.15 247.569 164.732 247.773 168.582C247.976 172.431 247.458 184.909 247.458 184.909H243.672C243.672 184.909 242.299 169.867 241.083 161.557C239.867 153.248 239.257 148.789 239.257 148.789L238.378 150.277C238.378 150.277 237.971 164.871 237.634 171.355C237.296 177.838 236.575 184.978 236.575 184.978L232.585 185.182C232.585 185.182 231.009 160.481 230.805 153.387C230.621 146.695 231.332 137.244 231.411 136.191Z" fill="url(#paint43_linear_373_2832)"/>
<path d="M247.237 184.955C247.237 184.955 247.824 188.241 247.824 188.694C247.824 189.142 247.643 190.677 247.643 190.677C247.643 190.677 244.893 190.769 243.002 190.723C241.111 190.677 238.901 190.228 238.901 190.228C238.901 190.228 238.54 189.013 239.035 188.338C239.53 187.663 241.467 187.529 242.054 186.855C242.641 186.18 243.677 184.918 243.677 184.918C243.677 184.918 246.696 185.136 247.237 184.955Z" fill="url(#paint44_linear_373_2832)"/>
<path d="M236.289 184.955C236.289 184.955 236.876 188.241 236.876 188.694C236.876 189.142 236.695 190.677 236.695 190.677C236.695 190.677 233.949 190.769 232.054 190.723C230.163 190.677 227.953 190.228 227.953 190.228C227.953 190.228 227.592 189.013 228.087 188.338C228.582 187.663 230.519 187.529 231.106 186.855C231.693 186.18 232.729 184.918 232.729 184.918C232.729 184.918 235.748 185.136 236.289 184.955Z" fill="url(#paint45_linear_373_2832)"/>
<path d="M240.658 103.841C240.658 103.841 241.18 97.0617 240.611 95.2825C239.936 93.1659 238.582 91.6778 236.464 91.59C234.347 91.4976 230.833 91.6778 229.885 92.8517C228.938 94.0209 229.432 95.7354 229.525 96.2761C229.617 96.8168 230.514 97.4037 230.514 97.4037C230.514 97.4037 231.864 97.0432 232.271 97.3575C232.678 97.6717 233.307 99.0674 233.307 99.0674C233.307 99.0674 233.764 97.7318 234.342 97.986C235.785 98.6145 235.332 100.509 235.11 100.911C234.823 101.429 235.11 101.045 235.11 101.045L238.309 104.511C238.314 104.516 239.622 104.655 240.658 103.841Z" fill="black"/>
<path d="M232.276 97.3575C232.683 97.6717 233.311 99.0674 233.311 99.0674C233.311 99.0674 233.769 97.7318 234.347 97.986C235.789 98.6145 235.336 100.509 235.114 100.911C234.828 101.429 235.114 101.045 235.114 101.045L238.314 104.511L235.748 105.006L235.655 104.377C235.655 104.377 234.666 104.738 234.079 104.738C233.492 104.738 232.817 103.522 232.049 102.215C231.282 100.907 230.519 97.3945 230.519 97.3945C230.519 97.3945 231.874 97.0432 232.276 97.3575Z" fill="white"/>
<path d="M80.6841 180.607C80.6841 180.607 87.767 180.607 90.2219 180.2L92.6768 179.793L101.752 178.652L100.943 181.545C100.943 181.545 97.7162 182.691 94.896 183.444C92.0712 184.197 86.5927 185.676 85.742 185.889C84.8913 186.097 80.3004 187.072 80.3004 187.072" fill="url(#paint46_linear_373_2832)"/>
<path d="M63.4719 193.043C63.4719 193.043 61.1094 194.97 60.3604 196.712C59.6161 198.454 59.4913 200.941 59.6161 201.809C59.7409 202.678 60.0507 203.552 60.0507 203.362C60.0507 203.177 59.0567 216.727 59.0567 216.727C59.0567 216.727 54.8264 220.332 53.2083 223.317C51.5901 226.303 47.984 234.381 47.984 234.381C47.984 234.381 50.9059 235.809 51.9646 235.998L53.0233 236.183C53.0233 236.183 57.5634 226.797 58.9318 225.115C59.7964 224.052 63.2222 221.196 64.5306 218.959C65.8344 216.723 68.2015 207.397 68.2015 207.397C68.2015 207.397 71.2482 210.692 72.6167 212.184C73.9851 213.677 75.6634 215.789 75.6634 216.348C75.6634 216.907 74.4798 221.071 74.1701 222.564C73.8603 224.057 72.6167 234.311 72.6167 234.311C72.6167 234.311 74.3596 234.686 75.8529 234.496C77.3462 234.311 77.5959 233.997 77.5959 233.997C77.5959 233.997 78.4651 226.908 79.2741 223.428C80.0832 219.948 81.0171 217.023 81.2667 216.464C81.5164 215.905 81.5765 214.722 80.7674 212.3C79.9584 209.874 77.4711 204.841 75.4831 201.856L73.4951 198.87C73.4951 198.87 66.8931 195.469 63.4719 193.043Z" fill="black"/>
<path d="M68.0534 207.984C68.6637 204.605 69.0428 201.809 69.0428 201.809L66.611 211.764C65.973 215.41 63.1389 220.794 63.1389 220.794C63.1389 220.794 63.1389 220.808 63.1435 220.831C63.6983 220.198 64.1884 219.565 64.5351 218.973C65.6401 217.065 67.5125 210.045 68.0534 207.984Z" fill="url(#paint47_linear_373_2832)"/>
<path d="M72.6166 234.325C72.6166 234.325 71.5995 235.901 71.5579 236.109C71.5163 236.317 71.3082 238.494 71.3082 238.494L74.7895 239.27L75.0392 238.595C75.0392 238.595 78.6037 240.379 79.2695 240.421C79.9352 240.463 83.2085 240.421 83.6662 240.296C84.1239 240.171 84.7434 239.344 84.1239 239.095C83.4997 238.845 81.3869 238.762 80.8876 238.475C80.3883 238.184 77.8594 235.864 77.6097 235.203C77.3601 234.538 77.2768 234.168 77.2768 234.168C77.2768 234.168 75.9546 234.903 72.6166 234.325Z" fill="url(#paint48_linear_373_2832)"/>
<path d="M48.081 234.51C48.081 234.51 46.9622 236.063 46.7449 236.747C46.5276 237.431 45.811 239.608 45.811 239.608C45.811 239.608 46.8374 240.416 47.554 240.694C48.2706 240.971 48.4232 241.036 48.4232 241.036L48.9225 240.537C48.9225 240.537 50.6007 242.154 52.0339 242.524C53.4625 242.898 56.3567 243.023 57.3507 242.773C58.3446 242.524 58.8116 241.562 58.4094 241.22C58.0072 240.878 56.6387 240.754 55.7972 240.037C54.9558 239.321 53.4024 238.046 53.1851 237.394C52.9678 236.742 53.0279 236.183 53.0279 236.183C53.0279 236.183 52.6211 236.47 48.081 234.51Z" fill="url(#paint49_linear_373_2832)"/>
<path d="M84.184 239.908C83.68 239.991 82.9172 240.019 81.7984 240.084C79.6023 240.208 78.9366 239.543 76.4493 238.674C74.4752 237.981 72.2884 237.135 71.4747 236.816C71.4007 237.523 71.3082 238.489 71.3082 238.489L74.7895 239.266L75.0392 238.591C75.0392 238.591 78.6037 240.375 79.2695 240.416C79.9352 240.458 83.2085 240.416 83.6662 240.292C83.8418 240.245 84.0406 240.093 84.184 239.908Z" fill="url(#paint50_linear_373_2832)"/>
<path d="M57.4616 242.404C56.6757 242.653 52.9817 242.695 51.3266 241.904C49.9766 241.262 47.2859 238.896 46.3242 238.036C46.0699 238.813 45.811 239.608 45.811 239.608C45.811 239.608 46.8374 240.416 47.554 240.694C48.2706 240.971 48.4232 241.036 48.4232 241.036L48.9225 240.537C48.9225 240.537 50.6007 242.154 52.0339 242.524C53.4625 242.898 56.3567 243.023 57.3507 242.773C58.0025 242.612 58.4279 242.14 58.5296 241.738C58.206 242.057 57.8222 242.293 57.4616 242.404ZM63.4718 193.043L64.096 191.924L74.0036 198.015L73.4858 198.884C73.4858 198.889 65.6309 194.827 63.4718 193.043Z" fill="black"/>
<path d="M64.096 191.924C63.9388 191.827 71.0216 182.806 73.7585 179.904C76.4955 177.002 78.9412 175.385 80.8922 175.509C82.8432 175.634 85.8668 178.453 86.491 181.023C87.1151 183.592 84.6232 188.897 84.0453 189.849C83.4627 190.801 80.6056 192.46 78.4049 194.161C76.2089 195.862 75.6263 196.647 75.0068 197.105C74.3827 197.562 74.0128 198.015 74.0128 198.015C74.0128 198.015 65.506 192.798 64.096 191.924Z" fill="url(#paint51_linear_373_2832)"/>
<path d="M64.5814 192.082C64.757 191.966 68.3447 186.06 74.0174 180.158C77.6513 176.378 80.5593 175.643 80.5593 175.643C80.5593 175.643 78.9134 175.412 75.52 178.19C72.6258 180.565 64.0867 191.924 64.0867 191.924L64.5814 192.082Z" fill="white"/>
<path d="M85.6542 179.077C85.6542 179.077 89.4267 176.341 90.0093 175.805C90.5918 175.264 93.2455 175.019 94.6094 175.68C95.9779 176.346 97.596 180.075 97.5544 181.235C97.5128 182.395 96.6436 183.306 96.6436 183.306L95.3168 182.973C95.3168 182.973 94.2812 184.133 93.9067 184.341C93.5322 184.549 92.9959 184.549 92.9959 184.549C92.9959 184.549 92.1267 186.333 91.8354 186.333C91.5442 186.333 90.6334 185.713 90.6334 185.713C90.6334 185.713 87.8548 186.665 87.73 186.416C87.6052 186.166 86.1951 184.179 86.1951 184.179C86.1951 184.179 87.3555 181.605 85.6542 179.077Z" fill="black"/>
<path d="M81.4655 175.68C81.4655 175.68 88.4744 176.715 90.9617 176.674L93.449 176.632L105.058 175.348L105.349 178.083C105.349 178.083 98.0121 180.237 95.1087 180.57C92.2053 180.902 86.5696 181.563 85.6958 181.646C84.8266 181.73 80.1387 182.021 80.1387 182.021" fill="url(#paint52_linear_373_2832)"/>
<path d="M105.099 175.888C105.099 175.888 107.046 175.019 107.296 174.52C107.545 174.021 107.462 172.408 107.753 171.743C108.044 171.077 109.33 169.298 109.579 169.298C109.829 169.298 109.996 169.34 109.871 170.458C109.746 171.577 109.455 172.944 109.455 173.485C109.455 174.026 109.579 175.597 109.205 176.055C108.83 176.512 108.128 176.674 107.628 176.923C107.129 177.173 105.266 177.547 105.266 177.547L105.099 175.888Z" fill="white"/>
<path d="M51.8119 66.8287H90.4298V69.8003H51.8119V66.8287Z" fill="#B45D00"/>
<path d="M70.3789 73.1416H108.997V76.1131H70.3789V73.1416Z" fill="#9F5200"/>
<path d="M25.4502 78.7057H94.2949V81.6772H25.4502V78.7057Z" fill="#AC6D29"/>
<path d="M129.048 81.6772H197.893V84.6488H129.048V81.6772Z" fill="#AC6D29"/>
<path d="M139.224 75.3644H163.731V78.3359H139.224V75.3644Z" fill="#AC6D29"/>
<path d="M185.858 75.7388H212.373V78.7103H185.858V75.7388Z" fill="#B45D00"/>
<path opacity="0.3" d="M263.543 76.8525H290.057V79.8241H263.543V76.8525Z" fill="white"/>
<path opacity="0.1" d="M236.769 66.8287H263.284V69.8003H236.769V66.8287Z" fill="white"/>
<path d="M130.684 46.7859H156.306V49.7575H130.684V46.7859Z" fill="#9F5200"/>
<path d="M143.311 54.9519H173.385V57.9234H143.311V54.9519Z" fill="#AC7131"/>
<path d="M149.52 237.953C173.863 237.953 193.598 218.227 193.598 193.893C193.598 169.559 173.863 149.833 149.52 149.833C125.176 149.833 105.442 169.559 105.442 193.893C105.442 218.227 125.176 237.953 149.52 237.953Z" fill="url(#paint53_linear_373_2832)"/>
<path d="M149.52 149.838V193.898L187.574 171.655C179.922 158.6 165.747 149.838 149.52 149.838Z" fill="url(#paint54_linear_373_2832)"/>
<path opacity="0.3" d="M137.115 45.187C135.765 45.187 134.503 45.5567 133.421 46.199C133.163 42.4373 130.033 39.4657 126.205 39.4657C125.377 39.4657 124.586 39.6136 123.847 39.8678C122.779 36.4202 119.566 33.9155 115.765 33.9155C115.479 33.9155 115.197 33.934 114.919 33.9617C111.369 34.1835 108.414 36.5866 107.388 39.8539C106.644 39.5951 105.848 39.4472 105.016 39.4472C101.188 39.4472 98.0582 42.4188 97.7993 46.1806C96.6819 45.5163 95.4055 45.1666 94.1054 45.1685C90.1063 45.1685 86.8654 48.4081 86.8654 52.4009C86.8654 56.3938 90.1063 59.6333 94.1054 59.6333C94.3735 59.6333 94.6324 59.6195 94.8959 59.5871H106.01C106.334 59.6241 106.662 59.6518 107 59.6518C107.291 59.6518 107.577 59.638 107.864 59.6102H123.736C123.898 59.6195 124.059 59.6333 124.221 59.6333C124.388 59.6333 124.545 59.6195 124.707 59.6102H136.325C136.584 59.638 136.847 59.6518 137.115 59.6518C141.115 59.6518 144.351 56.4122 144.351 52.4194C144.355 48.4265 141.115 45.187 137.115 45.187Z" fill="url(#paint55_linear_373_2832)"/>
</g>
<defs>
<linearGradient id="paint0_linear_373_2832" x1="18518.1" y1="2501.63" x2="18492.6" y2="2303.41" gradientUnits="userSpaceOnUse">
<stop stop-color="#BB6100"/>
<stop offset="1" stop-color="#8B4800"/>
</linearGradient>
<linearGradient id="paint1_linear_373_2832" x1="7.36975" y1="9714.92" x2="34987.7" y2="9714.92" gradientUnits="userSpaceOnUse">
<stop stop-color="#BB6100"/>
<stop offset="1"/>
</linearGradient>
<linearGradient id="paint2_linear_373_2832" x1="1266.67" y1="2245.18" x2="1196.16" y2="559.8" gradientUnits="userSpaceOnUse">
<stop stop-color="#DAB288"/>
<stop offset="0.0506" stop-color="#D5B593"/>
<stop offset="0.2502" stop-color="#D7C9BA"/>
<stop offset="0.4481" stop-color="#DBC8B3"/>
<stop offset="0.6414" stop-color="#EECCA8"/>
<stop offset="0.8279" stop-color="#FBD0A2"/>
<stop offset="1" stop-color="#FFD1A0"/>
</linearGradient>
<linearGradient id="paint3_linear_373_2832" x1="231.768" y1="231.974" x2="231.768" y2="3696.27" gradientUnits="userSpaceOnUse">
<stop stop-color="#FF9C33"/>
<stop offset="0.1585" stop-color="#FF9E37"/>
<stop offset="0.3535" stop-color="#FFA443"/>
<stop offset="0.5676" stop-color="#FFA749"/>
<stop offset="0.7937" stop-color="#FF9626"/>
<stop offset="1" stop-color="#FF8400"/>
</linearGradient>
<linearGradient id="paint4_linear_373_2832" x1="239.452" y1="-925.532" x2="239.452" y2="2538.78" gradientUnits="userSpaceOnUse">
<stop stop-color="#FF9C33"/>
<stop offset="0.1585" stop-color="#FF9E37"/>
<stop offset="0.3535" stop-color="#FFA443"/>
<stop offset="0.5676" stop-color="#FFA749"/>
<stop offset="0.7937" stop-color="#FF9626"/>
<stop offset="1" stop-color="#FF8400"/>
</linearGradient>
<linearGradient id="paint5_linear_373_2832" x1="246.695" y1="-191.685" x2="246.695" y2="3272.66" gradientUnits="userSpaceOnUse">
<stop stop-color="#FF9C33"/>
<stop offset="0.1585" stop-color="#FF9E37"/>
<stop offset="0.3535" stop-color="#FFA443"/>
<stop offset="0.5676" stop-color="#FFA749"/>
<stop offset="0.7937" stop-color="#FF9626"/>
<stop offset="1" stop-color="#FF8400"/>
</linearGradient>
<linearGradient id="paint6_linear_373_2832" x1="253.923" y1="100.207" x2="253.923" y2="3564.54" gradientUnits="userSpaceOnUse">
<stop stop-color="#FF9C33"/>
<stop offset="0.1585" stop-color="#FF9E37"/>
<stop offset="0.3535" stop-color="#FFA443"/>
<stop offset="0.5676" stop-color="#FFA749"/>
<stop offset="0.7937" stop-color="#FF9626"/>
<stop offset="1" stop-color="#FF8400"/>
</linearGradient>
<linearGradient id="paint7_linear_373_2832" x1="261.584" y1="-995.07" x2="261.584" y2="2469.24" gradientUnits="userSpaceOnUse">
<stop stop-color="#FF9C33"/>
<stop offset="0.1585" stop-color="#FF9E37"/>
<stop offset="0.3535" stop-color="#FFA443"/>
<stop offset="0.5676" stop-color="#FFA749"/>
<stop offset="0.7937" stop-color="#FF9626"/>
<stop offset="1" stop-color="#FF8400"/>
</linearGradient>
<linearGradient id="paint8_linear_373_2832" x1="268.85" y1="-1422.86" x2="268.85" y2="2041.47" gradientUnits="userSpaceOnUse">
<stop stop-color="#FF9C33"/>
<stop offset="0.1585" stop-color="#FF9E37"/>
<stop offset="0.3535" stop-color="#FFA443"/>
<stop offset="0.5676" stop-color="#FFA749"/>
<stop offset="0.7937" stop-color="#FF9626"/>
<stop offset="1" stop-color="#FF8400"/>
</linearGradient>
<linearGradient id="paint9_linear_373_2832" x1="276.066" y1="-118.005" x2="276.066" y2="3346.31" gradientUnits="userSpaceOnUse">
<stop stop-color="#FF9C33"/>
<stop offset="0.1585" stop-color="#FF9E37"/>
<stop offset="0.3535" stop-color="#FFA443"/>
<stop offset="0.5676" stop-color="#FFA749"/>
<stop offset="0.7937" stop-color="#FF9626"/>
<stop offset="1" stop-color="#FF8400"/>
</linearGradient>
<linearGradient id="paint10_linear_373_2832" x1="283.746" y1="-669.319" x2="283.746" y2="2795" gradientUnits="userSpaceOnUse">
<stop stop-color="#FF9C33"/>
<stop offset="0.1585" stop-color="#FF9E37"/>
<stop offset="0.3535" stop-color="#FFA443"/>
<stop offset="0.5676" stop-color="#FFA749"/>
<stop offset="0.7937" stop-color="#FF9626"/>
<stop offset="1" stop-color="#FF8400"/>
</linearGradient>
<linearGradient id="paint11_linear_373_2832" x1="290.981" y1="-228.753" x2="290.981" y2="3235.59" gradientUnits="userSpaceOnUse">
<stop stop-color="#FF9C33"/>
<stop offset="0.1585" stop-color="#FF9E37"/>
<stop offset="0.3535" stop-color="#FFA443"/>
<stop offset="0.5676" stop-color="#FFA749"/>
<stop offset="0.7937" stop-color="#FF9626"/>
<stop offset="1" stop-color="#FF8400"/>
</linearGradient>
<linearGradient id="paint12_linear_373_2832" x1="298.232" y1="-1168.01" x2="298.232" y2="2296.31" gradientUnits="userSpaceOnUse">
<stop stop-color="#FF9C33"/>
<stop offset="0.1585" stop-color="#FF9E37"/>
<stop offset="0.3535" stop-color="#FFA443"/>
<stop offset="0.5676" stop-color="#FFA749"/>
<stop offset="0.7937" stop-color="#FF9626"/>
<stop offset="1" stop-color="#FF8400"/>
</linearGradient>
<linearGradient id="paint13_linear_373_2832" x1="305.456" y1="-785.988" x2="305.456" y2="2678.31" gradientUnits="userSpaceOnUse">
<stop stop-color="#FF9C33"/>
<stop offset="0.1585" stop-color="#FF9E37"/>
<stop offset="0.3535" stop-color="#FFA443"/>
<stop offset="0.5676" stop-color="#FFA749"/>
<stop offset="0.7937" stop-color="#FF9626"/>
<stop offset="1" stop-color="#FF8400"/>
</linearGradient>
<linearGradient id="paint14_linear_373_2832" x1="9033.09" y1="12306.1" x2="9033.09" y2="279.942" gradientUnits="userSpaceOnUse">
<stop stop-color="#FFD2A1"/>
<stop offset="0.4332" stop-color="white"/>
</linearGradient>
<linearGradient id="paint15_linear_373_2832" x1="8065.73" y1="6865.6" x2="8065.73" y2="-197.632" gradientUnits="userSpaceOnUse">
<stop stop-color="#DAB288"/>
<stop offset="0.0506" stop-color="#D5B593"/>
<stop offset="0.2502" stop-color="#D7C9BA"/>
<stop offset="0.4481" stop-color="#DBC8B3"/>
<stop offset="0.6414" stop-color="#EECCA8"/>
<stop offset="0.8279" stop-color="#FBD0A2"/>
<stop offset="1" stop-color="#FFD1A0"/>
</linearGradient>
<linearGradient id="paint16_linear_373_2832" x1="4253.48" y1="7375.41" x2="4253.48" y2="-2027.54" gradientUnits="userSpaceOnUse">
<stop stop-color="#DAB288"/>
<stop offset="0.1838" stop-color="#D2B698"/>
<stop offset="0.5428" stop-color="#D8CBBE"/>
<stop offset="1" stop-color="#FFD1A0"/>
</linearGradient>
<linearGradient id="paint17_linear_373_2832" x1="610.766" y1="4025.22" x2="610.766" y2="96.5167" gradientUnits="userSpaceOnUse">
<stop stop-color="#FF9C33"/>
<stop offset="0.1585" stop-color="#FF9E37"/>
<stop offset="0.3535" stop-color="#FFA443"/>
<stop offset="0.5676" stop-color="#FFA749"/>
<stop offset="0.7937" stop-color="#FF9626"/>
<stop offset="1" stop-color="#FF8400"/>
</linearGradient>
<linearGradient id="paint18_linear_373_2832" x1="134.2" y1="285.713" x2="505.626" y2="285.713" gradientUnits="userSpaceOnUse">
<stop stop-color="#FF9C33"/>
<stop offset="0.1585" stop-color="#FF9E37"/>
<stop offset="0.3535" stop-color="#FFA443"/>
<stop offset="0.5676" stop-color="#FFA749"/>
<stop offset="0.7937" stop-color="#FF9626"/>
<stop offset="1" stop-color="#FF8400"/>
</linearGradient>
<linearGradient id="paint19_linear_373_2832" x1="134.2" y1="298.115" x2="505.626" y2="298.115" gradientUnits="userSpaceOnUse">
<stop stop-color="#FF9C33"/>
<stop offset="0.1585" stop-color="#FF9E37"/>
<stop offset="0.3535" stop-color="#FFA443"/>
<stop offset="0.5676" stop-color="#FFA749"/>
<stop offset="0.7937" stop-color="#FF9626"/>
<stop offset="1" stop-color="#FF8400"/>
</linearGradient>
<linearGradient id="paint20_linear_373_2832" x1="134.2" y1="312.104" x2="505.626" y2="312.104" gradientUnits="userSpaceOnUse">
<stop stop-color="#FF9C33"/>
<stop offset="0.1585" stop-color="#FF9E37"/>
<stop offset="0.3535" stop-color="#FFA443"/>
<stop offset="0.5676" stop-color="#FFA749"/>
<stop offset="0.7937" stop-color="#FF9626"/>
<stop offset="1" stop-color="#FF8400"/>
</linearGradient>
<linearGradient id="paint21_linear_373_2832" x1="229.961" y1="1695.53" x2="7264.55" y2="1695.53" gradientUnits="userSpaceOnUse">
<stop stop-color="#361C00"/>
<stop offset="0.5936" stop-color="#8B4800"/>
<stop offset="1" stop-color="#B16D24"/>
</linearGradient>
<linearGradient id="paint22_linear_373_2832" x1="573.536" y1="4200.97" x2="573.536" y2="80.4358" gradientUnits="userSpaceOnUse">
<stop stop-color="#FF9C33"/>
<stop offset="0.1585" stop-color="#FF9E37"/>
<stop offset="0.3535" stop-color="#FFA443"/>
<stop offset="0.5676" stop-color="#FFA749"/>
<stop offset="0.7937" stop-color="#FF9626"/>
<stop offset="1" stop-color="#FF8400"/>
</linearGradient>
<linearGradient id="paint23_linear_373_2832" x1="582.556" y1="2215.56" x2="582.556" y2="183.641" gradientUnits="userSpaceOnUse">
<stop stop-color="#FF9C33"/>
<stop offset="0.1585" stop-color="#FF9E37"/>
<stop offset="0.3535" stop-color="#FFA443"/>
<stop offset="0.5676" stop-color="#FFA749"/>
<stop offset="0.7937" stop-color="#FF9626"/>
<stop offset="1" stop-color="#FF8400"/>
</linearGradient>
<linearGradient id="paint24_linear_373_2832" x1="592.008" y1="1573.08" x2="592.008" y2="158.297" gradientUnits="userSpaceOnUse">
<stop stop-color="#412B13"/>
<stop offset="0.2299" stop-color="#C26D13"/>
<stop offset="0.3479" stop-color="#C57118"/>
<stop offset="0.4931" stop-color="#CC7C27"/>
<stop offset="0.6524" stop-color="#D87F1F"/>
<stop offset="0.8219" stop-color="#E98112"/>
<stop offset="0.9978" stop-color="#FF8400"/>
<stop offset="1" stop-color="#FF8400"/>
</linearGradient>
<linearGradient id="paint25_linear_373_2832" x1="338.625" y1="2368.88" x2="338.625" y2="-56.1199" gradientUnits="userSpaceOnUse">
<stop stop-color="#FF9C33"/>
<stop offset="0.1585" stop-color="#FF9E37"/>
<stop offset="0.3535" stop-color="#FFA443"/>
<stop offset="0.5676" stop-color="#FFA749"/>
<stop offset="0.7937" stop-color="#FF9626"/>
<stop offset="1" stop-color="#FF8400"/>
</linearGradient>
<linearGradient id="paint26_linear_373_2832" x1="342.883" y1="2569.25" x2="342.883" y2="92.0301" gradientUnits="userSpaceOnUse">
<stop stop-color="#412B13"/>
<stop offset="0.2299" stop-color="#C26D13"/>
<stop offset="0.3479" stop-color="#C57118"/>
<stop offset="0.4931" stop-color="#CC7C27"/>
<stop offset="0.6524" stop-color="#D87F1F"/>
<stop offset="0.8219" stop-color="#E98112"/>
<stop offset="0.9978" stop-color="#FF8400"/>
<stop offset="1" stop-color="#FF8400"/>
</linearGradient>
<linearGradient id="paint27_linear_373_2832" x1="47.2681" y1="917.43" x2="1409.62" y2="917.43" gradientUnits="userSpaceOnUse">
<stop stop-color="#FF9C33"/>
<stop offset="0.1585" stop-color="#FF9E37"/>
<stop offset="0.3535" stop-color="#FFA443"/>
<stop offset="0.5676" stop-color="#FFA749"/>
<stop offset="0.7937" stop-color="#FF9626"/>
<stop offset="1" stop-color="#FF8400"/>
</linearGradient>
<linearGradient id="paint28_linear_373_2832" x1="423.516" y1="368.309" x2="-164.609" y2="741.877" gradientUnits="userSpaceOnUse">
<stop stop-color="#FFD2A1"/>
<stop offset="0.4332" stop-color="white"/>
</linearGradient>
<linearGradient id="paint29_linear_373_2832" x1="545.475" y1="6154.37" x2="353.691" y2="1569.55" gradientUnits="userSpaceOnUse">
<stop stop-color="#FFD2A1"/>
<stop offset="0.4332" stop-color="white"/>
<stop offset="0.5794" stop-color="#FFFDFB"/>
<stop offset="0.7123" stop-color="#FFF8F0"/>
<stop offset="0.84" stop-color="#FFEFDE"/>
<stop offset="0.9637" stop-color="#FFE2C4"/>
<stop offset="1" stop-color="#FFDEBB"/>
</linearGradient>
<linearGradient id="paint30_linear_373_2832" x1="931.788" y1="6201.11" x2="740.075" y2="1615.92" gradientUnits="userSpaceOnUse">
<stop stop-color="#FFD2A1"/>
<stop offset="0.4332" stop-color="white"/>
<stop offset="0.5794" stop-color="#FFFDFB"/>
<stop offset="0.7123" stop-color="#FFF8F0"/>
<stop offset="0.84" stop-color="#FFEFDE"/>
<stop offset="0.9637" stop-color="#FFE2C4"/>
<stop offset="1" stop-color="#FFDEBB"/>
</linearGradient>
<linearGradient id="paint31_linear_373_2832" x1="843.138" y1="407.793" x2="1348.92" y2="2937.67" gradientUnits="userSpaceOnUse">
<stop stop-color="#412B13"/>
<stop offset="0.6346" stop-color="#C26D13"/>
<stop offset="0.6906" stop-color="#C57118"/>
<stop offset="0.7595" stop-color="#CC7C27"/>
<stop offset="0.8351" stop-color="#D87F1F"/>
<stop offset="0.9155" stop-color="#E98112"/>
<stop offset="0.999" stop-color="#FF8400"/>
<stop offset="1" stop-color="#FF8400"/>
</linearGradient>
<linearGradient id="paint32_linear_373_2832" x1="31.8647" y1="484.912" x2="728.216" y2="484.912" gradientUnits="userSpaceOnUse">
<stop stop-color="#FFD2A1"/>
<stop offset="0.4332" stop-color="white"/>
</linearGradient>
<linearGradient id="paint33_linear_373_2832" x1="35.4699" y1="257.21" x2="923.604" y2="257.21" gradientUnits="userSpaceOnUse">
<stop stop-color="#DAB288"/>
<stop offset="0.0506" stop-color="#D5B593"/>
<stop offset="0.2502" stop-color="#D7C9BA"/>
<stop offset="0.4481" stop-color="#DBC8B3"/>
<stop offset="0.6414" stop-color="#EECCA8"/>
<stop offset="0.8279" stop-color="#FBD0A2"/>
<stop offset="1" stop-color="#FFD1A0"/>
</linearGradient>
<linearGradient id="paint34_linear_373_2832" x1="29.3653" y1="1248.56" x2="2182.92" y2="1248.56" gradientUnits="userSpaceOnUse">
<stop stop-color="#DAB288"/>
<stop offset="0.0506" stop-color="#D5B593"/>
<stop offset="0.2502" stop-color="#D7C9BA"/>
<stop offset="0.4481" stop-color="#DBC8B3"/>
<stop offset="0.6414" stop-color="#EECCA8"/>
<stop offset="0.8279" stop-color="#FBD0A2"/>
<stop offset="1" stop-color="#FFD1A0"/>
</linearGradient>
<linearGradient id="paint35_linear_373_2832" x1="282.086" y1="237.964" x2="1071.77" y2="1757.23" gradientUnits="userSpaceOnUse">
<stop stop-color="#412B13"/>
<stop offset="0.6346" stop-color="#C26D13"/>
<stop offset="0.6906" stop-color="#C57118"/>
<stop offset="0.7595" stop-color="#CC7C27"/>
<stop offset="0.8351" stop-color="#D87F1F"/>
<stop offset="0.9155" stop-color="#E98112"/>
<stop offset="0.999" stop-color="#FF8400"/>
<stop offset="1" stop-color="#FF8400"/>
</linearGradient>
<linearGradient id="paint36_linear_373_2832" x1="1587.89" y1="897.83" x2="266.5" y2="897.83" gradientUnits="userSpaceOnUse">
<stop stop-color="#FF9C33"/>
<stop offset="0.1585" stop-color="#FF9E37"/>
<stop offset="0.3535" stop-color="#FFA443"/>
<stop offset="0.5676" stop-color="#FFA749"/>
<stop offset="0.7937" stop-color="#FF9626"/>
<stop offset="1" stop-color="#FF8400"/>
</linearGradient>
<linearGradient id="paint37_linear_373_2832" x1="1523.27" y1="654.887" x2="674.442" y2="4900.95" gradientUnits="userSpaceOnUse">
<stop stop-color="#D17C22"/>
<stop offset="0.1652" stop-color="#D38027"/>
<stop offset="0.3684" stop-color="#DA872E"/>
<stop offset="0.5916" stop-color="#E48621"/>
<stop offset="0.8272" stop-color="#F2840F"/>
<stop offset="1" stop-color="#FF8400"/>
</linearGradient>
<linearGradient id="paint38_linear_373_2832" x1="1143.57" y1="257.536" x2="282.161" y2="257.536" gradientUnits="userSpaceOnUse">
<stop stop-color="#DAB288"/>
<stop offset="0.0506" stop-color="#D5B593"/>
<stop offset="0.2502" stop-color="#D7C9BA"/>
<stop offset="0.4481" stop-color="#DBC8B3"/>
<stop offset="0.6414" stop-color="#EECCA8"/>
<stop offset="0.8279" stop-color="#FBD0A2"/>
<stop offset="1" stop-color="#FFD1A0"/>
</linearGradient>
<linearGradient id="paint39_linear_373_2832" x1="234.625" y1="248.883" x2="923.978" y2="248.883" gradientUnits="userSpaceOnUse">
<stop stop-color="#FF9C33"/>
<stop offset="0.1585" stop-color="#FF9E37"/>
<stop offset="0.3535" stop-color="#FFA443"/>
<stop offset="0.5676" stop-color="#FFA749"/>
<stop offset="0.7937" stop-color="#FF9626"/>
<stop offset="1" stop-color="#FF8400"/>
</linearGradient>
<linearGradient id="paint40_linear_373_2832" x1="1038.44" y1="172.329" x2="1446.31" y2="3232.6" gradientUnits="userSpaceOnUse">
<stop stop-color="#FF9C33"/>
<stop offset="0.1585" stop-color="#FF9E37"/>
<stop offset="0.3535" stop-color="#FFA443"/>
<stop offset="0.5676" stop-color="#FFA749"/>
<stop offset="0.7937" stop-color="#FF9626"/>
<stop offset="1" stop-color="#FF8400"/>
</linearGradient>
<linearGradient id="paint41_linear_373_2832" x1="-405.633" y1="1151.4" x2="2511.76" y2="740.325" gradientUnits="userSpaceOnUse">
<stop stop-color="#FFB15E"/>
<stop offset="0.1814" stop-color="#FFAF59"/>
<stop offset="0.4044" stop-color="#FFA84A"/>
<stop offset="0.6491" stop-color="#FF9B31"/>
<stop offset="0.9079" stop-color="#FF8B0E"/>
<stop offset="1" stop-color="#FF8400"/>
</linearGradient>
<linearGradient id="paint42_linear_373_2832" x1="650.949" y1="1074.23" x2="1441.95" y2="1576.04" gradientUnits="userSpaceOnUse">
<stop stop-color="#DB7F1D"/>
<stop offset="0.1609" stop-color="#DD8322"/>
<stop offset="0.3589" stop-color="#E18C31"/>
<stop offset="0.5762" stop-color="#E99236"/>
<stop offset="0.8058" stop-color="#F48B1B"/>
<stop offset="1" stop-color="#FF8400"/>
</linearGradient>
<linearGradient id="paint43_linear_373_2832" x1="1135.19" y1="204.239" x2="1135.19" y2="5245.27" gradientUnits="userSpaceOnUse">
<stop stop-color="#412B13"/>
<stop offset="0.2299" stop-color="#C26D13"/>
<stop offset="0.3479" stop-color="#C57118"/>
<stop offset="0.4931" stop-color="#CC7C27"/>
<stop offset="0.6524" stop-color="#D87F1F"/>
<stop offset="0.8219" stop-color="#E98112"/>
<stop offset="0.9978" stop-color="#FF8400"/>
<stop offset="1" stop-color="#FF8400"/>
</linearGradient>
<linearGradient id="paint44_linear_373_2832" x1="691.143" y1="71.66" x2="691.143" y2="1004.46" gradientUnits="userSpaceOnUse">
<stop stop-color="#361C00"/>
<stop offset="0.5936" stop-color="#8B4800"/>
<stop offset="1" stop-color="#B16D24"/>
</linearGradient>
<linearGradient id="paint45_linear_373_2832" x1="680.132" y1="71.66" x2="680.132" y2="1004.46" gradientUnits="userSpaceOnUse">
<stop stop-color="#361C00"/>
<stop offset="0.5936" stop-color="#8B4800"/>
<stop offset="1" stop-color="#B16D24"/>
</linearGradient>
<linearGradient id="paint46_linear_373_2832" x1="80.4935" y1="599.759" x2="3919.71" y2="599.759" gradientUnits="userSpaceOnUse">
<stop stop-color="#412B13"/>
<stop offset="0.2299" stop-color="#C26D13"/>
<stop offset="0.3479" stop-color="#C57118"/>
<stop offset="0.4931" stop-color="#CC7C27"/>
<stop offset="0.6524" stop-color="#D87F1F"/>
<stop offset="0.8219" stop-color="#E98112"/>
<stop offset="0.9978" stop-color="#FF8400"/>
<stop offset="1" stop-color="#FF8400"/>
</linearGradient>
<linearGradient id="paint47_linear_373_2832" x1="62.7611" y1="1152.41" x2="653.368" y2="1152.41" gradientUnits="userSpaceOnUse">
<stop stop-color="#FF9C33"/>
<stop offset="0.1106" stop-color="#FFA340"/>
<stop offset="0.5243" stop-color="#FF9A2F"/>
<stop offset="0.8331" stop-color="#FF8A0D"/>
<stop offset="1" stop-color="#FF8400"/>
</linearGradient>
<linearGradient id="paint48_linear_373_2832" x1="71.4521" y1="546.856" x2="1378.81" y2="546.856" gradientUnits="userSpaceOnUse">
<stop stop-color="#4F2900"/>
<stop offset="1" stop-color="#814300"/>
</linearGradient>
<linearGradient id="paint49_linear_373_2832" x1="45.7473" y1="654.412" x2="1319.7" y2="654.412" gradientUnits="userSpaceOnUse">
<stop stop-color="#4F2900"/>
<stop offset="1" stop-color="#814300"/>
</linearGradient>
<linearGradient id="paint50_linear_373_2832" x1="71.4499" y1="417.627" x2="1358.89" y2="417.627" gradientUnits="userSpaceOnUse">
<stop stop-color="#4F2900"/>
<stop offset="1" stop-color="#814300"/>
</linearGradient>
<linearGradient id="paint51_linear_373_2832" x1="64.0034" y1="1301.45" x2="2313.13" y2="1301.45" gradientUnits="userSpaceOnUse">
<stop stop-color="#FFD2A1"/>
<stop offset="0.4332" stop-color="white"/>
</linearGradient>
<linearGradient id="paint52_linear_373_2832" x1="2862.83" y1="490.812" x2="-392.29" y2="834.78" gradientUnits="userSpaceOnUse">
<stop stop-color="#FFD2A1"/>
<stop offset="0.4332" stop-color="white"/>
</linearGradient>
<linearGradient id="paint53_linear_373_2832" x1="105.706" y1="4555.84" x2="8920.87" y2="4555.84" gradientUnits="userSpaceOnUse">
<stop stop-color="#361C00"/>
<stop offset="0.5936" stop-color="#8B4800"/>
<stop offset="1" stop-color="#B16D24"/>
</linearGradient>
<linearGradient id="paint54_linear_373_2832" x1="-370.753" y1="4489.97" x2="2847.87" y2="1269.97" gradientUnits="userSpaceOnUse">
<stop stop-color="#FF9C33"/>
<stop offset="0.1585" stop-color="#FF9E37"/>
<stop offset="0.3535" stop-color="#FFA443"/>
<stop offset="0.5676" stop-color="#FFA749"/>
<stop offset="0.7937" stop-color="#FF9626"/>
<stop offset="1" stop-color="#FF8400"/>
</linearGradient>
<linearGradient id="paint55_linear_373_2832" x1="87.4402" y1="1321.09" x2="5835.7" y2="1321.09" gradientUnits="userSpaceOnUse">
<stop stop-color="#FFD2A1"/>
<stop offset="0.0888" stop-color="#FFD7AC"/>
<stop offset="0.4988" stop-color="#FFEDD9"/>
<stop offset="0.816" stop-color="#FFFAF5"/>
<stop offset="1" stop-color="white"/>
</linearGradient>
<clipPath id="clip0_373_2832">
<rect width="361.45" height="271" fill="white"/>
</clipPath>
</defs>
</svg>
