<svg width="362" height="272" viewBox="0 0 362 272" fill="none" xmlns="http://www.w3.org/2000/svg">
<path d="M50.6167 203.737C50.6167 203.737 40.6164 198.465 37.1503 190.79C33.6841 183.115 37.0688 172.362 36.0281 168.753C42.4264 175.531 46.3586 177.498 49.1551 185.318C51.9515 193.134 51.1416 201.538 50.6167 203.737Z" fill="#9F5200"/>
<path d="M61.1554 216.53C61.1554 216.53 50.861 224.704 40.0282 216.811C32.4533 210.419 27.4125 201.697 27.4125 201.697C27.4125 201.697 39.5892 203.343 45.6799 204.78C51.7705 206.221 58.9698 213.28 61.1554 216.53Z" fill="#9F5200"/>
<path d="M318.592 203.737C318.592 203.737 328.592 198.465 332.058 190.79C335.524 183.115 332.139 172.362 333.18 168.753C326.782 175.531 322.85 177.498 320.053 185.318C317.257 193.134 318.071 201.538 318.592 203.737Z" fill="#9F5200"/>
<path d="M308.053 216.53C308.053 216.53 318.347 224.704 329.18 216.811C336.755 210.419 341.796 201.697 341.796 201.697C341.796 201.697 329.619 203.343 323.528 204.78C317.438 206.221 310.239 213.28 308.053 216.53Z" fill="#9F5200"/>
<path d="M99.5817 246.822C99.5817 246.822 89.414 255.617 63.169 248.98C44.0418 244.143 28.2812 225.221 28.2812 225.221C28.2812 225.221 65.8297 210.977 99.5817 246.822Z" fill="#9F5200"/>
<path d="M98.731 248.005C98.731 248.005 78.5133 245.648 59.0105 209.503C44.793 183.16 49.7207 146.146 49.7207 146.146C49.7207 146.146 104.07 173.531 98.731 248.005Z" fill="#AC651A"/>
<path d="M97.9572 247.262C97.9572 247.262 81.8754 234.759 83.8573 193.723C85.3008 163.812 108.641 134.694 108.641 134.694C108.641 134.694 140.999 186.306 97.9572 247.262Z" fill="#AC651A"/>
<path d="M268.156 245.294C268.156 245.294 278.197 253.98 304.116 247.425C323.008 242.647 338.57 223.965 338.57 223.965C338.57 223.965 301.492 209.893 268.156 245.294Z" fill="#9F5200"/>
<path d="M269.631 248.005C269.631 248.005 289.849 245.648 309.352 209.503C323.569 183.16 318.641 146.146 318.641 146.146C318.641 146.146 264.292 173.531 269.631 248.005Z" fill="#AC651A"/>
<path d="M270.405 247.262C270.405 247.262 286.487 234.759 284.505 193.723C283.057 163.812 259.721 134.694 259.721 134.694C259.721 134.694 227.363 186.306 270.405 247.262Z" fill="#AC651A"/>
<path d="M321.877 141.34C321.877 65.8829 260.821 4.71466 185.502 4.71466C110.184 4.71466 49.1279 65.8829 49.1279 141.34C49.1279 184.384 69.0017 222.768 100.052 247.81H270.957C301.998 222.768 321.877 184.384 321.877 141.34Z" fill="url(#paint0_linear_373_1007)"/>
<path d="M169.882 46.7613C169.882 47.0605 169.642 47.3008 169.344 47.3008C169.045 47.3008 168.805 47.0605 168.805 46.7613C168.805 46.4621 169.045 46.2219 169.344 46.2219C169.642 46.2219 169.882 46.4667 169.882 46.7613ZM208.345 80.0632C208.345 80.3624 208.105 80.6027 207.806 80.6027C207.507 80.6027 207.268 80.3624 207.268 80.0632C207.268 79.764 207.507 79.5237 207.806 79.5237C208.105 79.5237 208.345 79.764 208.345 80.0632ZM144.284 88.3501C144.284 88.6493 144.044 88.8896 143.746 88.8896C143.447 88.8896 143.207 88.6493 143.207 88.3501C143.207 88.0509 143.447 87.8107 143.746 87.8107C144.044 87.8107 144.284 88.0509 144.284 88.3501ZM103.573 81.8357C103.573 82.1349 103.333 82.3752 103.034 82.3752C102.736 82.3752 102.496 82.1349 102.496 81.8357C102.496 81.5365 102.736 81.2963 103.034 81.2963C103.328 81.2963 103.573 81.5365 103.573 81.8357ZM261.31 114.643C261.31 114.943 261.07 115.183 260.771 115.183C260.473 115.183 260.233 114.943 260.233 114.643C260.233 114.344 260.473 114.104 260.771 114.104C261.07 114.104 261.31 114.344 261.31 114.643Z" fill="white"/>
<path d="M263.074 78.7349L263.645 79.8955L264.925 80.0813L263.998 80.988L264.219 82.2664L263.074 81.6635L261.925 82.2664L262.147 80.988L261.219 80.0813L262.5 79.8955L263.074 78.7349Z" fill="#FFB361"/>
<path d="M130.388 31.5203L131.103 32.9755L132.705 33.2067L131.546 34.34L131.818 35.9357L130.388 35.1832L128.953 35.9357L129.229 34.34L128.071 33.2067L129.673 32.9755L130.388 31.5203ZM290.799 102.657L291.514 104.108L293.116 104.344L291.958 105.473L292.234 107.073L290.799 106.316L289.369 107.073L289.641 105.473L288.482 104.344L290.084 104.108L290.799 102.657Z" fill="#FFC990"/>
<path d="M79.5721 100.237C80.6192 100.237 81.4681 99.3861 81.4681 98.3371C81.4681 97.288 80.6192 96.4376 79.5721 96.4376C78.525 96.4376 77.6761 97.288 77.6761 98.3371C77.6761 99.3861 78.525 100.237 79.5721 100.237Z" fill="#FFC990"/>
<path d="M223.494 57.9904C230.843 65.3888 242.789 65.4205 250.174 58.0584C257.558 50.6963 257.59 38.7328 250.242 31.3344C242.893 23.936 230.951 23.9043 223.562 31.2664C216.182 38.624 216.15 50.5875 223.494 57.9904Z" fill="url(#paint1_linear_373_1007)"/>
<path d="M259.355 188.215C259.224 187.095 265.631 164.769 272.758 154.836C279.885 144.903 287.899 126.548 287.899 126.548C287.899 126.548 290.595 142.873 283.184 153.594C275.772 164.315 272.627 169.61 272.627 169.61C272.627 169.61 277.803 159.156 290.179 158.435C302.555 157.715 299.374 169.066 299.374 169.066C299.374 169.066 285.718 149.509 257.373 193.75" fill="url(#paint2_linear_373_1007)"/>
<path d="M242.418 209.871C242.418 209.871 222.96 214.409 209.784 206.326C196.611 198.247 187.973 186.782 187.973 186.782C187.973 186.782 202.693 181.818 212.182 183.786C221.671 185.749 229.974 196.506 229.997 195.641C230.019 194.77 219.874 181.016 219.051 171.967C218.227 162.914 222.517 145.964 222.517 145.964C222.517 145.964 235.01 155.607 238.124 163.15C241.237 170.694 243.658 186.973 243.658 186.973C243.658 186.973 242.002 172.734 247.762 160.92C253.522 149.106 268.161 139.554 268.161 139.554C268.161 139.554 273.604 154.297 269.133 168.676C264.663 183.056 254.31 192.513 254.31 192.513C254.31 192.513 268.636 182.154 277.478 180.735C286.319 179.316 298.582 187.009 298.582 187.009C298.582 187.009 286.043 200.985 276.342 203.497C266.645 206.008 256.893 204.721 256.893 204.721C256.893 204.721 270.346 204.952 278.26 210.319C286.175 215.682 292.917 226.753 292.917 226.753C292.917 226.753 274.174 228.979 262.355 222.963C250.536 216.943 242.418 209.871 242.418 209.871Z" fill="url(#paint3_linear_373_1007)"/>
<path d="M260.943 205.011C258.518 204.753 256.893 204.721 256.893 204.721C256.893 204.721 258.459 204.92 260.943 205.011Z" fill="url(#paint4_linear_373_1007)"/>
<path d="M225.354 156.382C225.354 156.382 227.739 187.957 242.572 204.866C240.499 200.138 234.938 192.027 231.852 180.803C228.766 169.578 225.354 156.382 225.354 156.382Z" fill="url(#paint5_linear_373_1007)"/>
<path d="M242.169 206.19C242.169 206.19 214.277 198.093 203.498 193.066C195.494 189.566 191.765 187.784 191.765 187.784C191.765 187.784 197.81 192.721 215.073 199.39C232.341 206.063 242.169 206.19 242.169 206.19Z" fill="url(#paint6_linear_373_1007)"/>
<path d="M245.662 206.797C245.662 206.797 262.767 211.349 277.156 218.733C283.962 222.283 288.242 224.835 288.242 224.835C288.242 224.835 276.568 219.595 268.527 216.399C260.491 213.198 245.662 206.797 245.662 206.797Z" fill="url(#paint7_linear_373_1007)"/>
<path d="M113.188 179.094C113.32 177.974 106.912 155.647 99.7853 145.715C92.6584 135.782 84.6446 117.427 84.6446 117.427C84.6446 117.427 81.9477 133.751 89.3597 144.473C96.7716 155.194 99.9165 160.489 99.9165 160.489C99.9165 160.489 94.7399 150.035 82.364 149.314C69.9881 148.594 73.1692 159.945 73.1692 159.945C73.1692 159.945 86.8257 140.388 115.17 184.629" fill="url(#paint8_linear_373_1007)"/>
<path d="M249.178 130.773C249.178 130.773 241.169 142.791 236.155 160.258C231.142 177.725 233.133 197.327 233.133 197.327" stroke="black" stroke-width="2.3099" stroke-miterlimit="10"/>
<path d="M246.291 150.806C246.291 150.806 239.857 152.859 237.54 155.783C237.612 152.569 238.59 140.928 238.59 140.928" stroke="black" stroke-width="2.3099" stroke-miterlimit="10"/>
<path d="M242.214 169.451C242.214 169.451 236.024 170.499 233.639 172.815C232.151 169.338 230.766 160.276 230.766 160.276" stroke="black" stroke-width="2.3099" stroke-miterlimit="10"/>
<path d="M236.567 185.359C236.567 185.359 233.879 186.955 232.739 188.455C230.725 185.422 225.386 179.76 225.386 179.76" stroke="black" stroke-width="2.3099" stroke-miterlimit="10"/>
<path d="M248.201 131.893C248.201 131.893 256.079 131.657 259.513 126.208C262.948 120.759 263.636 116.013 263.636 116.013C263.636 116.013 256.35 117.119 252.061 120.949C247.771 124.78 248.201 131.893 248.201 131.893Z" fill="#9F5200"/>
<path d="M246.291 150.806C246.291 150.806 250.595 144.115 256.432 141.354C261.595 139.269 268.672 143.14 268.672 143.14C268.672 143.14 267.817 148.417 259.916 151.4C254.653 153.385 249.305 152.066 246.291 150.806Z" fill="#9F5200"/>
<path d="M231.169 161.863C231.169 161.863 233.924 150.638 228.761 146.214C223.603 141.789 221.589 140.746 221.589 140.746C221.589 140.746 219.539 149.428 221.802 154.12C224.064 158.803 231.169 161.863 231.169 161.863Z" fill="#9F5200"/>
<path d="M240.662 169.714C240.662 169.714 247.481 163.159 252.581 163.155C257.685 163.146 262.97 165.435 262.97 165.435C262.97 165.435 259.771 171.977 251.857 172.171C243.938 172.362 240.662 169.714 240.662 169.714Z" fill="#9F5200"/>
<path d="M226.304 180.708C226.304 180.708 224.915 172.017 218.417 170.295C212.888 168.93 210.517 170.209 210.517 170.209C210.517 170.209 210.784 174.461 214.037 178.019C217.295 181.574 226.304 180.708 226.304 180.708Z" fill="#9F5200"/>
<path d="M235.771 185.83C235.771 185.83 237.124 180.785 241.395 179.479C245.812 178.201 249.599 180.481 249.599 180.481C249.599 180.481 249.047 185.749 244.097 186.959C239.146 188.17 235.771 185.83 235.771 185.83Z" fill="#9F5200"/>
<path d="M238.843 141.807C238.843 141.807 241.744 133.557 239.925 129.567C238.105 125.573 234.114 123.801 234.114 123.801C234.114 123.801 231.015 128.411 232.137 132.849C233.255 137.287 238.843 141.807 238.843 141.807Z" fill="#9F5200"/>
<path d="M112.197 132.582C112.197 132.582 123.442 141.63 133.465 156.781C143.488 171.931 147.474 191.225 147.474 191.225" stroke="black" stroke-width="2.3099" stroke-miterlimit="10"/>
<path d="M120.958 150.815C120.958 150.815 127.714 150.833 130.8 152.927C129.768 149.881 125.342 139.074 125.342 139.074" stroke="black" stroke-width="2.3099" stroke-miterlimit="10"/>
<path d="M130.442 167.371C130.442 167.371 136.664 166.505 139.628 167.996C140.003 164.234 138.605 155.172 138.605 155.172" stroke="black" stroke-width="2.3099" stroke-miterlimit="10"/>
<path d="M140.601 180.839C140.601 180.839 143.642 181.551 145.18 182.639C146.194 179.139 149.583 172.131 149.583 172.131" stroke="black" stroke-width="2.3099" stroke-miterlimit="10"/>
<path d="M113.464 133.353C113.464 133.353 105.876 135.501 100.971 131.335C96.0612 127.169 93.9797 122.853 93.9797 122.853C93.9797 122.853 101.26 121.711 106.5 124.077C111.74 126.439 113.464 133.353 113.464 133.353Z" fill="#9F5200"/>
<path d="M120.958 150.815C120.958 150.815 114.845 145.729 108.451 144.854C102.899 144.418 97.3147 150.244 97.3147 150.244C97.3147 150.244 99.713 155.017 108.143 155.484C113.759 155.793 118.465 152.923 120.958 150.815Z" fill="#9F5200"/>
<path d="M138.7 156.804C138.7 156.804 132.705 146.93 136.298 141.15C139.89 135.374 141.501 133.774 141.501 133.774C141.501 133.774 146.062 141.44 145.311 146.594C144.556 151.749 138.7 156.804 138.7 156.804Z" fill="#9F5200"/>
<path d="M132.003 167.153C132.003 167.153 123.533 162.955 118.664 164.487C113.795 166.02 109.437 169.791 109.437 169.791C109.437 169.791 114.451 175.068 122.062 172.87C129.673 170.671 132.003 167.153 132.003 167.153Z" fill="#9F5200"/>
<path d="M148.999 173.314C148.999 173.314 147.714 164.605 153.393 161.006C158.257 158.037 160.905 158.544 160.905 158.544C160.905 158.544 161.927 162.679 159.891 167.053C157.85 171.428 148.999 173.314 148.999 173.314Z" fill="#9F5200"/>
<path d="M141.501 181.052C141.501 181.052 138.696 176.646 134.234 176.687C129.641 176.8 126.714 180.109 126.714 180.109C126.714 180.109 128.822 184.969 133.904 184.634C138.985 184.298 141.501 181.052 141.501 181.052Z" fill="#9F5200"/>
<path d="M125.365 139.994C125.365 139.994 120.125 132.999 120.659 128.642C121.193 124.286 124.474 121.394 124.474 121.394C124.474 121.394 128.813 124.857 129.076 129.427C129.338 133.996 125.365 139.994 125.365 139.994Z" fill="#9F5200"/>
<path d="M233.01 249.329C233.01 249.329 216.195 260.136 201.077 256.949C185.964 253.762 173.991 245.861 173.991 245.861C173.991 245.861 186.199 236.246 195.797 234.908C205.394 233.571 216.82 240.919 216.548 240.094C216.277 239.269 202.118 229.718 198.313 221.467C194.507 213.216 192.878 195.804 192.878 195.804C192.878 195.804 207.874 200.695 213.331 206.756C218.788 212.817 226.517 227.342 226.517 227.342C226.517 227.342 220.191 214.481 221.666 201.416C223.141 188.351 233.739 174.434 233.739 174.434C233.739 174.434 243.802 186.497 244.4 201.543C245.002 216.594 238.409 228.979 238.409 228.979C238.409 228.979 248.441 214.409 256.296 210.102C264.151 205.795 278.278 208.923 278.278 208.923C278.278 208.923 271.138 226.304 262.839 231.925C254.54 237.551 244.925 239.609 244.925 239.609C244.925 239.609 257.676 235.312 266.93 237.705C276.183 240.103 286.238 248.268 286.238 248.268C286.238 248.268 269.323 256.659 256.178 254.959C243.024 253.264 233.01 249.329 233.01 249.329Z" fill="url(#paint9_linear_373_1007)"/>
<path d="M248.834 238.526C246.463 239.097 244.92 239.609 244.92 239.609C244.92 239.609 246.468 239.278 248.834 238.526Z" fill="url(#paint10_linear_373_1007)"/>
<path d="M199.037 204.662C199.037 204.662 211.847 233.612 231.481 244.56C227.947 240.797 219.992 235.026 213.331 225.488C206.666 215.95 199.037 204.662 199.037 204.662Z" fill="url(#paint11_linear_373_1007)"/>
<path d="M231.544 245.947C231.544 245.947 202.557 247.688 190.72 246.568C182.009 245.956 177.9 245.53 177.9 245.53C177.9 245.53 185.249 248.155 203.747 248.635C222.241 249.12 231.544 245.947 231.544 245.947Z" fill="url(#paint12_linear_373_1007)"/>
<path d="M134.257 208.597C134.257 208.597 152.764 201.062 158.877 186.85C164.991 172.638 165.452 158.286 165.452 158.286C165.452 158.286 150.569 162.733 143.949 169.823C137.329 176.909 136.732 190.495 136.216 189.797C135.7 189.099 136.071 172.004 131.533 164.129C126.994 156.259 113.736 144.885 113.736 144.885C113.736 144.885 109.08 159.981 110.876 167.942C112.672 175.902 120.066 190.604 120.066 190.604C120.066 190.604 113.225 178.01 101.717 171.686C90.2104 165.362 72.7529 166.011 72.7529 166.011C72.7529 166.011 76.7892 181.202 88.7171 190.368C100.645 199.535 114.546 201.28 114.546 201.28C114.546 201.28 96.8802 201.094 88.8393 205.038C80.7984 208.987 75.2055 222.355 75.2055 222.355C75.2055 222.355 93.4955 226.531 102.867 222.981C112.238 219.431 119.46 212.749 119.46 212.749C119.46 212.749 108.605 220.705 105.224 229.663C101.844 238.621 102.708 251.555 102.708 251.555C102.708 251.555 119.302 242.547 125.496 230.806C131.696 219.064 134.257 208.597 134.257 208.597Z" fill="url(#paint13_linear_373_1007)"/>
<path d="M116.324 215.324C118.161 213.715 119.464 212.749 119.464 212.749C119.464 212.749 118.302 213.819 116.324 215.324Z" fill="url(#paint14_linear_373_1007)"/>
<path d="M150.13 248.599C150.13 248.599 167.846 257.851 182.615 253.318C197.385 248.785 208.602 239.841 208.602 239.841C208.602 239.841 195.584 231.359 185.905 230.892C176.226 230.425 165.506 238.766 165.701 237.918C165.896 237.071 179.145 226.286 182.195 217.727C185.244 209.168 185.312 191.678 185.312 191.678C185.312 191.678 170.814 197.898 165.918 204.426C161.027 210.954 154.628 226.114 154.628 226.114C154.628 226.114 159.778 212.736 157.14 199.857C154.502 186.977 142.705 174.066 142.705 174.066C142.705 174.066 133.763 186.982 134.515 202.023C135.261 217.065 142.94 228.811 142.94 228.811C142.94 228.811 131.646 215.202 123.437 211.616C115.229 208.03 101.437 212.418 101.437 212.418C101.437 212.418 110.102 229.087 118.872 233.943C127.637 238.798 137.402 239.986 137.402 239.986C137.402 239.986 124.32 236.849 115.315 240.067C106.315 243.286 97.0341 252.321 97.0341 252.321C97.0341 252.321 114.632 259.157 127.573 256.287C140.51 253.422 150.13 248.599 150.13 248.599Z" fill="url(#paint15_linear_373_1007)"/>
<path opacity="0.3" d="M142.705 174.071C142.705 174.071 154.502 186.982 157.14 199.861C159.778 212.74 154.628 226.118 154.628 226.118C154.628 226.118 161.027 210.954 165.918 204.431C170.81 197.903 185.312 191.683 185.312 191.683C185.312 191.683 185.249 209.173 182.195 217.732C179.145 226.29 165.895 237.08 165.701 237.923C165.506 238.771 176.226 230.425 185.905 230.896C195.584 231.363 208.602 239.845 208.602 239.845C208.602 239.845 197.385 248.789 182.615 253.323C167.846 257.856 150.13 248.604 150.13 248.604L149.655 248.835C151.153 215.995 142.705 174.071 142.705 174.071Z" fill="#9F5200"/>
<path d="M133.401 239.265C135.813 239.623 137.393 239.995 137.393 239.995C137.393 239.995 135.827 239.8 133.401 239.265Z" fill="url(#paint16_linear_373_1007)"/>
<path d="M179.968 201.062C179.968 201.062 169.801 231.046 151.225 243.712C154.407 239.65 161.814 233.186 167.597 223.09C173.38 212.99 179.968 201.062 179.968 201.062Z" fill="url(#paint17_linear_373_1007)"/>
<path d="M151.289 245.099C151.289 245.099 180.317 244.229 192.005 242.053C200.625 240.661 204.679 239.868 204.679 239.868C204.679 239.868 197.598 243.141 179.217 245.285C160.837 247.429 151.289 245.099 151.289 245.099Z" fill="url(#paint18_linear_373_1007)"/>
<path d="M148.592 244.442C148.592 244.442 137.637 233.054 127.447 225.601C117.261 218.144 105.645 214.028 105.645 214.028C105.645 214.028 120.899 223.181 126.619 227.297C132.334 231.413 148.592 244.442 148.592 244.442Z" fill="url(#paint19_linear_373_1007)"/>
<path d="M147.393 107.585C147.393 107.585 149.366 117.373 139.28 122.722C135.904 123.891 129.614 124.005 126.116 120.659C131.248 123.157 135.818 123.574 139.194 122.255C141.112 120.655 146.624 118.56 147.393 107.585Z" fill="black"/>
<path d="M141.99 108.596C141.99 108.596 144.194 116.969 139.148 122.513C134.139 121.407 129.99 117.572 128.777 114.847C130.401 116.72 134.831 121.135 138.913 122.128C140.827 118.896 142.723 114.829 141.99 108.596Z" fill="black"/>
<path d="M138.569 113.215C138.569 113.215 141.121 119.027 139.325 122.309C138.37 121.752 133.768 117.577 132.465 111.194C134.374 114.757 135.049 117.935 139.04 121.385C139.551 119.199 138.737 114.086 138.569 113.215Z" fill="black"/>
<path d="M147.515 109.711C147.515 109.711 148.981 108.85 149.139 106.647C149.302 104.443 147.999 103.655 147.316 104.598C147.022 103.931 146.723 104.262 146.719 104.693C146.307 104.276 145.497 104.253 145.393 105.214C145.289 106.175 146.126 109.512 147.515 109.711Z" fill="url(#paint20_linear_373_1007)"/>
<path d="M142.13 110.31C142.13 110.31 143.8 109.258 143.035 106.796C142.56 105.527 141.909 105.432 141.759 105.767C141.574 105.618 140.795 105.5 140.755 106.171C140.366 105.962 139.691 106.52 139.877 107.299C140.053 108.079 140.483 109.929 142.13 110.31Z" fill="url(#paint21_linear_373_1007)"/>
<path d="M139.04 115.224C139.04 115.224 140.365 114.34 139.592 112.227C139.098 110.795 138.402 111.275 138.393 111.579C138.126 111.175 137.673 111.253 137.623 111.611C137.234 111.425 136.75 111.982 136.931 112.758C137.112 113.533 137.691 115.119 139.04 115.224Z" fill="url(#paint22_linear_373_1007)"/>
<path d="M133.216 113.179C133.216 113.179 134.492 112.567 134.144 110.595C133.795 108.623 132.709 107.377 132.311 108.17C131.917 107.871 131.252 107.295 130.65 108.433C129.931 108.601 130.049 109.72 130.365 110.541C130.678 111.357 131.845 113.238 133.216 113.179Z" fill="url(#paint23_linear_373_1007)"/>
<path d="M128.46 122.051C128.46 122.051 128.84 120.682 127.13 119.648C125.419 118.615 123.768 118.61 124.098 119.435C123.614 119.535 122.745 119.657 123.202 120.863C122.854 121.516 123.772 122.164 124.6 122.463C125.424 122.763 127.605 123.121 128.46 122.051Z" fill="url(#paint24_linear_373_1007)"/>
<path d="M129.877 116.171C129.877 116.171 130.492 115.546 129.727 114.195C129.229 113.184 127.682 111.479 127.438 112.789C126.718 112.803 125.895 112.613 126.238 114.077C125.582 114.458 126.166 115.151 126.831 115.827C127.501 116.498 129.229 116.729 129.877 116.171Z" fill="url(#paint25_linear_373_1007)"/>
<path d="M139.605 121.684C139.605 121.684 139.632 121.734 139.687 121.838C140.574 123.547 148.488 139.114 145.311 143.938C145.624 141.481 145.239 138.407 143.067 132.21C140.895 126.013 138.917 122.123 138.917 122.123L139.637 121.738" fill="black"/>
<path d="M217.263 110.962C217.263 110.962 215.29 120.75 225.377 126.099C228.752 127.269 235.042 127.382 238.54 124.037C233.408 126.534 228.838 126.951 225.463 125.632C223.544 124.032 218.033 121.938 217.263 110.962Z" fill="black"/>
<path d="M222.666 111.973C222.666 111.973 220.463 120.346 225.508 125.891C230.517 124.785 234.667 120.949 235.879 118.225C234.255 120.097 229.825 124.513 225.743 125.505C223.829 122.278 221.938 118.207 222.666 111.973Z" fill="black"/>
<path d="M226.087 116.593C226.087 116.593 223.535 122.405 225.331 125.687C226.286 125.129 230.888 120.954 232.191 114.571C230.282 118.134 229.608 121.312 225.616 124.762C225.105 122.577 225.92 117.463 226.087 116.593Z" fill="black"/>
<path d="M217.141 113.089C217.141 113.089 215.675 112.227 215.517 110.024C215.354 107.821 216.657 107.032 217.34 107.975C217.634 107.309 217.933 107.639 217.938 108.07C218.349 107.653 219.159 107.63 219.263 108.591C219.367 109.553 218.53 112.889 217.141 113.089Z" fill="url(#paint26_linear_373_1007)"/>
<path d="M222.526 113.687C222.526 113.687 220.856 112.635 221.621 110.174C222.096 108.904 222.748 108.809 222.897 109.145C223.082 108.995 223.861 108.877 223.901 109.548C224.291 109.339 224.965 109.897 224.779 110.677C224.603 111.461 224.173 113.311 222.526 113.687Z" fill="url(#paint27_linear_373_1007)"/>
<path d="M225.616 118.601C225.616 118.601 224.291 117.717 225.064 115.609C225.558 114.177 226.254 114.657 226.263 114.961C226.53 114.557 226.983 114.634 227.033 114.993C227.422 114.807 227.906 115.364 227.725 116.139C227.544 116.91 226.969 118.497 225.616 118.601Z" fill="url(#paint28_linear_373_1007)"/>
<path d="M231.445 116.557C231.445 116.557 230.169 115.945 230.517 113.973C230.865 112.001 231.947 110.754 232.35 111.547C232.743 111.248 233.409 110.672 234.01 111.81C234.73 111.978 234.612 113.098 234.295 113.918C233.979 114.734 232.811 116.615 231.445 116.557Z" fill="url(#paint29_linear_373_1007)"/>
<path d="M236.196 125.428C236.196 125.428 235.816 124.059 237.526 123.026C239.237 121.992 240.888 121.987 240.558 122.813C241.042 122.912 241.911 123.035 241.454 124.241C241.802 124.893 240.884 125.542 240.056 125.841C239.232 126.14 237.051 126.498 236.196 125.428Z" fill="url(#paint30_linear_373_1007)"/>
<path d="M234.78 119.549C234.78 119.549 234.164 118.923 234.929 117.572C235.427 116.561 236.974 114.857 237.218 116.167C237.938 116.18 238.762 115.99 238.418 117.454C239.074 117.835 238.49 118.529 237.825 119.204C237.155 119.879 235.431 120.106 234.78 119.549Z" fill="url(#paint31_linear_373_1007)"/>
<path d="M225.051 125.066C225.051 125.066 225.024 125.115 224.969 125.22C224.082 126.929 216.168 142.496 219.345 147.32C219.033 144.863 219.417 141.789 221.589 135.592C223.761 129.395 225.739 125.505 225.739 125.505L225.019 125.12" fill="black"/>
<path d="M188.009 269.67C264.249 269.67 326.053 264.793 326.053 258.776C326.053 252.76 264.249 247.883 188.009 247.883C111.77 247.883 49.9651 252.76 49.9651 258.776C49.9651 264.793 111.77 269.67 188.009 269.67Z" fill="url(#paint32_linear_373_1007)"/>
<path d="M180.824 108.215L165.656 134.431C165.656 134.431 184.24 150.77 187.652 149.251C191.064 147.732 207.752 141.272 207.752 141.272C207.752 141.272 208.132 131.775 206.992 128.733C205.856 125.696 191.824 103.659 190.684 104.416C189.543 105.178 180.824 108.215 180.824 108.215Z" fill="url(#paint33_linear_373_1007)"/>
<path d="M122.537 226.227C123.297 226.735 129.239 234.84 137.456 240.539C145.673 246.237 156.796 251.809 156.796 251.809L218.738 252.819C218.738 252.819 232.644 246.867 241.241 239.523C249.839 232.179 251.735 226.603 251.735 226.603L200.412 230.529L199.905 230.021L174.117 230.275" fill="black"/>
<path d="M122.537 226.227C123.297 226.735 129.239 234.84 137.456 240.539C145.673 246.237 156.796 251.809 156.796 251.809L218.738 252.819C218.738 252.819 232.644 246.867 241.241 239.523C249.839 232.179 251.735 226.603 251.735 226.603L200.412 230.529L199.905 230.021L174.117 230.275" stroke="#23211F" stroke-width="2" stroke-miterlimit="10"/>
<path d="M169.439 90.9251C169.439 90.9251 171.04 102.24 175.167 107.222C179.294 112.205 183.511 115.242 186.715 115.242C189.919 115.242 196.322 111.443 199.186 105.871C202.05 100.3 203.317 91.0973 203.317 91.0973C203.317 91.0973 209.974 74.9723 195.566 73.1997C181.154 71.4272 173.063 68.6392 171.968 71.9349C170.873 75.2216 169.439 90.9251 169.439 90.9251Z" fill="url(#paint34_linear_373_1007)"/>
<path d="M196.408 77.3296C196.548 77.1029 203.236 87.9693 202.476 93.9624C201.715 99.9555 199.611 105.867 198.177 107.726C196.743 109.584 192.869 112.789 192.869 112.789C192.869 112.789 192.53 121.317 195.819 125.709C199.109 130.102 205.259 132.886 208.041 133.139C210.824 133.393 213.349 133.729 213.096 133.729C212.842 133.729 209.137 122.246 210.566 114.14C212.001 106.035 210.232 83.1549 207.109 74.6277C203.992 66.1005 201.969 65.4251 201.969 65.4251C201.969 65.4251 193.457 57.4056 176.181 63.0632C166.208 66.3272 163.959 77.5835 164.045 89.828C164.131 102.073 165.393 111.865 162.022 121.407C158.651 130.95 159.325 133.819 159.325 133.819C159.325 133.819 172.136 133.566 175.928 129.681C179.719 125.795 180.647 123.012 180.901 119.889C181.154 116.765 181.407 113.22 181.407 113.22C181.407 113.22 175 109.589 172.642 102.58C170.285 95.5717 170.113 94.9824 170.113 94.9824C170.113 94.9824 175 92.7021 180.815 87.0445C186.629 81.3869 187.217 80.2037 187.217 80.2037L183.258 86.4507C183.258 86.4507 190.928 86.0291 196.408 77.3296Z" fill="black"/>
<path d="M165.9 133.266C165.9 133.266 156.293 133.266 153.891 136.558C151.488 139.849 137.456 179.239 138.089 181.769C138.723 184.298 160.339 212.672 160.339 212.672C160.339 212.672 160.972 197.35 160.846 196.588C160.719 195.826 149.216 178.731 149.216 178.35C149.216 177.97 160.217 157.959 160.217 157.959L165.9 133.266Z" fill="url(#paint35_linear_373_1007)"/>
<path d="M207.996 133.266C207.996 133.266 217.603 133.266 220.005 136.558C222.408 139.849 236.44 179.239 235.807 181.769C235.173 184.298 213.557 212.672 213.557 212.672C213.557 212.672 212.924 197.35 213.051 196.588C213.177 195.826 224.68 178.731 224.68 178.35C224.68 177.97 213.679 157.959 213.679 157.959L207.996 133.266Z" fill="url(#paint36_linear_373_1007)"/>
<path d="M206.856 132.759C206.856 132.759 201.168 140.991 188.018 141.626C174.873 142.261 168.045 133.013 168.045 133.013L165.896 133.266C165.896 133.266 160.588 144.663 160.081 152.388C159.574 160.113 160.968 163.658 162.864 167.334C164.76 171.011 166.402 171.387 166.402 171.387L167.163 223.312C167.163 223.312 202.304 227.111 202.181 226.73C202.055 226.349 209.259 171.763 209.259 171.26C209.259 170.753 213.431 162.266 213.684 156.065C213.937 149.863 209.639 133.52 209.639 133.52L206.856 132.759Z" fill="url(#paint37_linear_373_1007)"/>
<path d="M151.868 231.291C151.868 231.291 146.18 179.239 146.307 178.731C146.433 178.223 145.8 176.197 152.882 176.324C159.959 176.451 225.191 176.324 225.191 176.324C225.191 176.324 229.11 175.562 228.73 180.758C228.35 185.948 225.947 229.137 225.947 229.137L151.868 231.291Z" fill="url(#paint38_linear_373_1007)"/>
<path opacity="0.3" d="M186.629 206.217C189.631 206.217 192.064 203.779 192.064 200.772C192.064 197.765 189.631 195.328 186.629 195.328C183.628 195.328 181.195 197.765 181.195 200.772C181.195 203.779 183.628 206.217 186.629 206.217Z" fill="white"/>
<path d="M196.828 240.285C196.593 239.469 180.774 232.433 176.348 228.761C171.923 225.089 159.031 217.741 148.538 213.942C138.044 210.143 128.944 205.709 126.795 205.074C124.646 204.44 120.6 203.937 116.682 209.127C112.763 214.318 113.143 218.625 116.555 222.047C119.967 225.465 133.243 237.121 145.252 240.539C157.262 243.957 165.859 245.729 175.213 248.39C184.566 251.051 190.38 252.951 190.38 252.951C190.38 252.951 199.105 248.137 196.828 240.285Z" fill="url(#paint39_linear_373_1007)"/>
<path d="M191.688 252.316C191.688 252.316 195.987 252.697 197.376 253.708C198.765 254.719 201.421 256.242 202.81 256.242C204.2 256.242 209.132 257.004 212.544 258.522C215.956 260.041 223.544 264.348 225.313 263.586L227.083 262.825C227.083 262.825 228.345 262.825 229.105 262.19C229.865 261.555 229.992 260.925 229.992 260.925C229.992 260.925 231.381 260.925 232.015 260.29C232.648 259.656 232.648 258.518 232.648 258.518C232.648 258.518 233.784 258.645 234.164 257.883L234.544 257.122C234.544 257.122 235.933 256.233 236.44 255.222C236.947 254.211 236.947 254.084 236.694 253.703C236.44 253.323 231.386 249.905 230.246 249.905C229.11 249.905 223.544 249.27 220.512 248.386C217.48 247.497 215.458 247.248 209.639 246.486C203.824 245.729 191.688 252.316 191.688 252.316Z" fill="url(#paint40_linear_373_1007)"/>
<path d="M180.312 240.793C180.547 239.977 196.367 232.941 200.792 229.269C205.218 225.597 218.109 218.248 228.603 214.449C239.096 210.65 248.196 206.217 250.346 205.582C252.495 204.947 256.54 204.444 260.459 209.635C264.378 214.826 263.998 219.132 260.586 222.555C257.174 225.973 243.897 237.628 231.888 241.046C219.879 244.465 211.281 246.237 201.928 248.898C192.575 251.559 186.76 253.459 186.76 253.459C186.76 253.459 178.036 248.644 180.312 240.793Z" fill="url(#paint41_linear_373_1007)"/>
<path d="M180.14 241.55C180.14 241.55 166.149 248.472 163.705 248.472C161.262 248.472 160.669 247.629 159.493 247.121C158.312 246.613 156.036 246.867 152.75 248.386C149.465 249.905 147.103 251.255 144.913 251.088C142.723 250.92 138.257 249.569 135.727 250.834C133.198 252.099 128.478 256.659 130.166 258.432C131.854 260.204 136.234 262.149 138.089 261.134C139.945 260.123 145.085 259.869 149.298 260.29C153.511 260.712 158.23 262.063 161.52 260.88C164.809 259.697 170.62 256.319 175.593 255.054C180.566 253.79 185.62 252.86 185.62 252.86C185.62 252.86 179.045 249.574 180.14 241.55Z" fill="url(#paint42_linear_373_1007)"/>
<path d="M228.748 180.005C228.707 175.649 225.187 176.324 225.187 176.324C225.187 176.324 159.959 176.451 152.877 176.324C145.8 176.197 146.429 178.224 146.302 178.731C146.293 178.772 146.316 179.121 146.37 179.729C146.958 178.885 147.678 177.466 151.764 177.466H224.748C224.748 177.466 227.322 177.34 228.748 180.005Z" fill="white"/>
<path d="M274.473 260.399L257.251 181.306L255.246 181.592L256.405 186.918C256.708 187.254 248.699 186.918 248.699 186.918L247.481 181.32L245.418 181.338L262.726 260.825C262.754 260.956 262.808 261.079 262.883 261.188C262.959 261.298 263.056 261.391 263.167 261.463C263.279 261.535 263.404 261.584 263.535 261.608C263.666 261.632 263.8 261.629 263.93 261.601C264.192 261.543 264.42 261.384 264.565 261.158C264.71 260.932 264.76 260.657 264.704 260.395L263.437 254.569H271.143L272.505 260.825C272.622 261.374 273.161 261.718 273.708 261.601C274.256 261.483 274.591 260.948 274.473 260.399ZM249.074 188.65H256.78L257.997 194.249H250.291L249.074 188.65ZM250.671 195.976H258.378L259.599 201.575H251.893L250.671 195.976ZM252.264 203.302H259.97L261.188 208.901H253.482L252.264 203.302ZM253.862 210.623H261.568L262.785 216.222H255.079L253.862 210.623ZM255.454 217.949H263.161L264.378 223.548H256.672L255.454 217.949ZM257.052 225.275H264.758L265.975 230.874H258.269L257.052 225.275ZM258.645 232.601H266.351L267.568 238.199H259.862L258.645 232.601ZM260.242 239.927H267.948L269.165 245.525H261.459L260.242 239.927ZM263.056 252.851L261.839 247.253H269.545L270.762 252.851H263.056Z" fill="black"/>
<path d="M263.373 188.165C263.387 188.192 263.559 191.61 261.572 191.279C260.454 191.094 259.952 186.529 257.907 183.41C257.427 182.68 255.699 177.747 255.332 176.99C254.744 175.766 256.735 175.526 257.183 176.038C257.536 176.442 258.482 178.382 260.074 181.043C261.88 184.04 263.025 187.29 263.373 188.165Z" fill="url(#paint43_linear_373_1007)"/>
<path d="M264.215 225.842C263.314 225.411 261.26 224.826 260.925 223.688C260.916 223.657 260.916 223.629 260.907 223.598C260.649 222.546 261.445 222.387 262.35 222.578C263.278 222.773 266.007 223.276 266.007 223.276C266.007 223.276 266.486 224.409 266.486 225.08C266.486 225.76 265.102 226.268 264.215 225.842Z" fill="black"/>
<path d="M265.921 222.686L265.993 223.185C266.02 223.38 265.925 223.575 265.749 223.666C265.441 223.815 264.912 223.997 264.256 223.888C264.056 223.851 263.898 223.693 263.866 223.493L263.776 222.863L265.921 222.686Z" fill="white"/>
<path d="M262.287 233.371C261.269 232.886 258.934 232.22 258.559 230.928C258.545 230.892 258.549 230.86 258.54 230.828C258.251 229.636 259.151 229.455 260.178 229.668C261.233 229.89 264.328 230.461 264.328 230.461C264.328 230.461 264.884 231.762 264.884 232.732C264.88 233.702 263.292 233.852 262.287 233.371Z" fill="black"/>
<path d="M264.224 229.79L264.305 230.352C264.545 231.159 263.079 231.273 262.337 231.146C262.111 231.105 261.93 230.928 261.898 230.697L261.794 229.981L264.224 229.79Z" fill="white"/>
<path d="M266.509 203.832C266.509 203.832 267.056 205.573 267.206 207.69C267.391 210.347 264.943 213.166 265.17 214.903C265.577 218.026 266.455 221.29 266.545 222.224C266.636 223.162 263.301 223.697 263.056 222.686C262.812 221.675 260.409 216.467 260.151 214.984C259.703 212.432 262.853 211.258 262.853 211.258C262.853 211.258 262.536 218.475 262.925 220.615C263.147 221.83 264.559 228.688 264.712 229.595C264.753 229.844 264.301 230.547 263.409 230.706C262.464 230.874 261.355 230.62 261.206 230.239C260.821 229.242 259.459 221.825 259.246 220.669C259.029 219.513 258.4 208.551 258.215 207.74C258.025 206.924 266.138 203.007 266.509 203.832Z" fill="url(#paint44_linear_373_1007)"/>
<path d="M256.029 191.914C256.011 195.087 257.988 208.057 258.391 208.198C260.916 209.068 267.047 205.378 266.966 204.381C266.427 197.848 264.301 188.192 263.016 187.875C260.314 187.199 256.038 190.359 256.029 191.914Z" fill="url(#paint45_linear_373_1007)"/>
<path d="M260.776 167.924C260.776 172.221 257.301 175.707 253.006 175.707C248.717 175.707 245.241 172.221 245.241 167.924C245.241 163.626 248.717 160.145 253.006 160.145C257.296 160.145 260.776 163.626 260.776 167.924Z" fill="url(#paint46_linear_373_1007)"/>
<path d="M248.083 169.723V166.087H249.311C249.597 166.087 249.83 166.138 250.011 166.241C250.193 166.343 250.328 166.481 250.416 166.655C250.503 166.829 250.547 167.023 250.547 167.237C250.547 167.452 250.503 167.646 250.416 167.822C250.329 167.997 250.196 168.136 250.014 168.241C249.833 168.344 249.601 168.395 249.318 168.395H248.438V168.004H249.304C249.5 168.004 249.656 167.971 249.775 167.903C249.893 167.836 249.979 167.745 250.032 167.63C250.087 167.514 250.114 167.383 250.114 167.237C250.114 167.092 250.087 166.962 250.032 166.847C249.979 166.732 249.893 166.642 249.773 166.577C249.653 166.511 249.495 166.477 249.297 166.477H248.523V169.723H248.083ZM251.257 169.723V166.087H251.697V167.706H253.636V166.087H254.076V169.723H253.636V168.097H251.697V169.723H251.257ZM254.958 169.723V166.087H256.186C256.472 166.087 256.705 166.138 256.886 166.241C257.068 166.343 257.203 166.481 257.291 166.655C257.378 166.829 257.422 167.023 257.422 167.237C257.422 167.452 257.378 167.646 257.291 167.822C257.204 167.997 257.071 168.136 256.889 168.241C256.708 168.344 256.476 168.395 256.193 168.395H255.313V168.004H256.179C256.375 168.004 256.531 167.971 256.65 167.903C256.768 167.836 256.854 167.745 256.907 167.63C256.962 167.514 256.989 167.383 256.989 167.237C256.989 167.092 256.962 166.962 256.907 166.847C256.854 166.732 256.768 166.642 256.648 166.577C256.528 166.511 256.37 166.477 256.172 166.477H255.398V169.723H254.958Z" fill="#431CA3"/>
<path d="M250.69 203.719C250.305 203.964 250.088 204.227 249.816 204.635C249.409 205.219 250.269 206.987 250.807 206.489C250.699 205.936 251.504 205.668 251.794 205.528C252.748 205.074 252.843 204.607 252.78 204.245C252.604 203.252 251.884 202.957 250.69 203.719Z" fill="#F4B877"/>
<path d="M255.672 199.671C255.595 200.795 252.49 202.341 252.02 203.043C251.59 203.687 251.961 204.635 253.165 204.549C253.776 204.485 258.871 201.711 258.984 200.663C259.187 198.764 259.233 190.5 256.893 190.726C254.893 190.917 255.753 198.546 255.672 199.671Z" fill="url(#paint47_linear_373_1007)"/>
<path d="M260.721 183.147C260.405 180.984 258.658 180.114 256.432 181.079C253.771 182.24 254.853 184.343 255.02 185.264C255.233 186.451 255.739 188.791 256.4 188.972C256.875 189.103 257.215 188.886 257.712 188.718C257.884 189.357 257.862 189.706 257.966 189.793C258.45 190.196 260.785 189.126 260.694 188.351C260.654 187.997 260.586 187.413 260.545 186.832C260.373 185.309 260.984 184.915 260.721 183.147Z" fill="#F4B877"/>
<path d="M257.595 184.842C257.187 184.674 256.78 184.906 256.608 185.744C256.595 185.808 256.187 185.966 256.196 185.844C256.482 182.988 255.169 183.795 254.88 183.328C254.866 182.063 255.337 181.093 256.726 180.667C258.984 179.973 261.188 180.971 261.504 183.138C261.721 184.62 260.703 185.635 260.758 187.118C260.767 187.322 260.626 187.263 260.197 187.367C259.862 187.449 259.473 187.821 259.129 187.757C258.699 187.675 257.753 186.805 257.866 186.234C257.975 185.713 258.011 185.014 257.595 184.842Z" fill="#A25400"/>
<path d="M263.581 222.949C263.581 222.949 262.699 217.364 262.785 216.163C262.871 214.962 263.201 208.62 263.201 208.62L264.052 207.858C264.052 207.858 263.21 214.925 263.319 217.011C263.427 219.096 263.581 222.949 263.581 222.949Z" fill="url(#paint48_linear_373_1007)"/>
<path d="M255.151 176.297C254.952 175.943 255.156 174.647 255.468 173.844C255.803 172.978 256.4 171.247 256.875 171.464C257.174 171.6 256.767 172.919 256.767 174.325C256.767 175.218 256.527 176.084 256.377 176.483C256.269 176.782 255.423 176.823 255.151 176.297Z" fill="#F4B877"/>
<path d="M142.347 157.715C142.347 152.397 138.044 148.086 132.736 148.086C127.429 148.086 123.125 152.397 123.125 157.715C123.125 163.032 127.429 167.343 132.736 167.343C138.044 167.348 142.347 163.037 142.347 157.715Z" fill="url(#paint49_linear_373_1007)"/>
<path d="M129.376 156.255H128.671C128.63 156.053 128.557 155.875 128.453 155.721C128.35 155.568 128.225 155.439 128.078 155.335C127.932 155.229 127.77 155.149 127.592 155.096C127.414 155.043 127.228 155.017 127.035 155.017C126.683 155.017 126.364 155.106 126.078 155.284C125.793 155.462 125.567 155.724 125.399 156.071C125.232 156.417 125.149 156.843 125.149 157.346C125.149 157.85 125.232 158.275 125.399 158.622C125.567 158.969 125.793 159.231 126.078 159.409C126.364 159.587 126.683 159.676 127.035 159.676C127.228 159.676 127.414 159.649 127.592 159.596C127.77 159.543 127.932 159.465 128.078 159.361C128.225 159.255 128.35 159.125 128.453 158.971C128.557 158.816 128.63 158.638 128.671 158.437H129.376C129.323 158.735 129.226 159.001 129.086 159.236C128.946 159.47 128.772 159.67 128.563 159.835C128.355 159.998 128.121 160.122 127.862 160.207C127.604 160.292 127.329 160.335 127.035 160.335C126.539 160.335 126.097 160.214 125.711 159.971C125.325 159.729 125.021 159.384 124.799 158.937C124.578 158.49 124.467 157.96 124.467 157.346C124.467 156.733 124.578 156.202 124.799 155.755C125.021 155.309 125.325 154.964 125.711 154.721C126.097 154.479 126.539 154.358 127.035 154.358C127.329 154.358 127.604 154.4 127.862 154.486C128.121 154.571 128.355 154.696 128.563 154.861C128.772 155.023 128.946 155.222 129.086 155.457C129.226 155.69 129.323 155.956 129.376 156.255ZM133.696 155.892C133.662 155.604 133.524 155.38 133.281 155.221C133.039 155.062 132.742 154.983 132.389 154.983C132.132 154.983 131.906 155.024 131.713 155.108C131.522 155.191 131.372 155.306 131.264 155.452C131.158 155.597 131.105 155.763 131.105 155.949C131.105 156.104 131.142 156.238 131.216 156.349C131.292 156.459 131.388 156.551 131.506 156.625C131.623 156.697 131.746 156.756 131.875 156.804C132.004 156.849 132.122 156.886 132.23 156.915L132.821 157.074C132.973 157.113 133.141 157.168 133.327 157.238C133.514 157.309 133.693 157.404 133.864 157.525C134.036 157.645 134.178 157.798 134.29 157.986C134.402 158.173 134.458 158.403 134.458 158.676C134.458 158.99 134.375 159.274 134.21 159.528C134.048 159.782 133.809 159.984 133.494 160.133C133.182 160.283 132.802 160.358 132.355 160.358C131.939 160.358 131.578 160.291 131.273 160.156C130.97 160.022 130.731 159.834 130.557 159.594C130.385 159.353 130.287 159.074 130.264 158.755H130.992C131.011 158.975 131.084 159.157 131.213 159.301C131.344 159.443 131.509 159.549 131.708 159.619C131.908 159.687 132.124 159.721 132.355 159.721C132.624 159.721 132.866 159.678 133.08 159.591C133.294 159.502 133.463 159.379 133.588 159.221C133.713 159.062 133.776 158.877 133.776 158.665C133.776 158.471 133.722 158.314 133.614 158.193C133.506 158.072 133.364 157.973 133.188 157.898C133.012 157.822 132.821 157.755 132.617 157.699L131.901 157.494C131.446 157.363 131.086 157.177 130.821 156.934C130.556 156.692 130.423 156.375 130.423 155.983C130.423 155.657 130.512 155.373 130.688 155.13C130.866 154.886 131.104 154.697 131.404 154.562C131.705 154.426 132.041 154.358 132.412 154.358C132.787 154.358 133.12 154.425 133.412 154.559C133.704 154.692 133.935 154.874 134.105 155.105C134.278 155.336 134.369 155.598 134.378 155.892H133.696ZM138.798 155.892C138.764 155.604 138.625 155.38 138.383 155.221C138.141 155.062 137.843 154.983 137.491 154.983C137.233 154.983 137.008 155.024 136.815 155.108C136.623 155.191 136.474 155.306 136.366 155.452C136.26 155.597 136.207 155.763 136.207 155.949C136.207 156.104 136.244 156.238 136.318 156.349C136.393 156.459 136.49 156.551 136.607 156.625C136.725 156.697 136.848 156.756 136.977 156.804C137.106 156.849 137.224 156.886 137.332 156.915L137.923 157.074C138.074 157.113 138.243 157.168 138.428 157.238C138.616 157.309 138.795 157.404 138.965 157.525C139.138 157.645 139.28 157.798 139.391 157.986C139.503 158.173 139.559 158.403 139.559 158.676C139.559 158.99 139.477 159.274 139.312 159.528C139.149 159.782 138.91 159.984 138.596 160.133C138.284 160.283 137.904 160.358 137.457 160.358C137.04 160.358 136.679 160.291 136.374 160.156C136.071 160.022 135.833 159.834 135.659 159.594C135.486 159.353 135.389 159.074 135.366 158.755H136.093C136.112 158.975 136.186 159.157 136.315 159.301C136.445 159.443 136.61 159.549 136.809 159.619C137.01 159.687 137.226 159.721 137.457 159.721C137.726 159.721 137.967 159.678 138.181 159.591C138.395 159.502 138.565 159.379 138.69 159.221C138.815 159.062 138.877 158.877 138.877 158.665C138.877 158.471 138.823 158.314 138.715 158.193C138.607 158.072 138.465 157.973 138.289 157.898C138.113 157.822 137.923 157.755 137.718 157.699L137.002 157.494C136.548 157.363 136.188 157.177 135.923 156.934C135.658 156.692 135.525 156.375 135.525 155.983C135.525 155.657 135.613 155.373 135.789 155.13C135.967 154.886 136.206 154.697 136.505 154.562C136.806 154.426 137.142 154.358 137.514 154.358C137.889 154.358 138.222 154.425 138.514 154.559C138.805 154.692 139.036 154.874 139.207 155.105C139.379 155.336 139.47 155.598 139.48 155.892H138.798ZM126.558 170.335C126.183 170.335 125.848 170.271 125.555 170.142C125.263 170.013 125.031 169.834 124.859 169.605C124.688 169.374 124.596 169.106 124.58 168.801H125.296C125.311 168.988 125.376 169.15 125.49 169.287C125.603 169.421 125.752 169.525 125.936 169.599C126.119 169.673 126.323 169.71 126.546 169.71C126.796 169.71 127.018 169.666 127.211 169.579C127.404 169.492 127.556 169.371 127.666 169.216C127.775 169.06 127.83 168.88 127.83 168.676C127.83 168.462 127.777 168.273 127.671 168.111C127.565 167.946 127.41 167.817 127.205 167.724C127.001 167.631 126.751 167.585 126.455 167.585H125.99V166.96H126.455C126.686 166.96 126.889 166.918 127.063 166.835C127.24 166.752 127.377 166.634 127.475 166.483C127.576 166.331 127.626 166.153 127.626 165.949C127.626 165.752 127.582 165.58 127.495 165.434C127.408 165.289 127.285 165.175 127.126 165.094C126.969 165.012 126.783 164.971 126.569 164.971C126.368 164.971 126.179 165.008 126.001 165.082C125.825 165.154 125.681 165.259 125.569 165.398C125.457 165.534 125.397 165.699 125.387 165.892H124.705C124.717 165.587 124.809 165.32 124.981 165.091C125.153 164.86 125.379 164.68 125.657 164.551C125.937 164.422 126.245 164.358 126.58 164.358C126.94 164.358 127.249 164.431 127.507 164.577C127.764 164.72 127.962 164.911 128.1 165.148C128.239 165.384 128.308 165.64 128.308 165.915C128.308 166.242 128.222 166.522 128.049 166.753C127.879 166.984 127.647 167.144 127.353 167.233V167.278C127.721 167.339 128.007 167.495 128.214 167.747C128.42 167.997 128.524 168.307 128.524 168.676C128.524 168.992 128.437 169.276 128.265 169.528C128.095 169.778 127.862 169.975 127.566 170.119C127.271 170.263 126.935 170.335 126.558 170.335Z" fill="#125CAE"/>
<path d="M126.858 204.843C126.858 204.843 126.831 205.31 126.818 205.705C126.813 205.809 126.813 205.909 126.813 205.995C126.813 206.117 127.438 206.217 127.949 206.076C128.352 205.967 128.7 205.655 128.537 205.469C128.365 205.278 128.189 204.607 128.189 204.607L126.858 204.843Z" fill="white"/>
<path d="M126.822 205.705C126.822 205.705 127.759 206.113 128.542 205.469C128.962 205.451 132.537 206.235 132.18 206.806C131.818 207.386 127.189 207.622 126.781 207.314C126.623 207.196 126.659 206.099 126.822 205.705Z" fill="black"/>
<path d="M119.374 203.859C119.374 203.859 119.293 204.317 119.238 204.707C119.225 204.811 119.211 204.907 119.202 204.997C119.189 205.12 119.799 205.287 120.324 205.206C120.736 205.142 121.121 204.87 120.976 204.666C120.827 204.458 120.723 203.773 120.723 203.773L119.374 203.859Z" fill="#EBCEAF"/>
<path d="M125.686 185.332L122.56 184.058C122.338 187.286 122.65 189.847 121.741 194.716C121.356 196.765 119.483 201.534 118.754 203.869C118.967 204.367 121.075 204.426 121.365 203.905C121.741 203.107 124.198 198.569 124.872 195.668C125.18 194.326 125.7 188.578 125.686 185.332ZM119.238 204.712C119.238 204.712 120.121 205.224 120.971 204.671C121.392 204.698 124.863 205.392 124.478 206.153C124.324 206.457 119.392 206.661 119.021 206.312C118.881 206.171 119.039 205.088 119.238 204.712Z" fill="black"/>
<path d="M123.75 170.526C123.75 170.526 124.026 169.597 123.953 169.139C123.881 168.681 122.854 168.055 122.691 167.099C122.528 166.142 123.08 164.859 124.51 164.759C126.668 164.605 126.6 166.296 126.677 166.881C126.804 167.829 126.704 169.338 126.487 169.442C126.424 169.474 126.157 169.506 125.691 169.347C125.609 169.583 125.401 170.685 125.56 171.025C125.718 171.365 123.75 170.526 123.75 170.526Z" fill="white"/>
<path d="M122.668 181.991C122.56 182.698 122.487 183.478 122.555 184.062C122.899 186.869 124.976 190.386 125.682 195.069C125.994 197.132 126.148 202.74 126.239 204.92C126.505 205.396 128.605 205.215 128.836 204.671C128.605 203.646 129.664 196.774 129.365 193.288C129.239 191.796 127.062 181.415 127.062 181.415C127.062 181.415 124.116 181.157 122.668 181.991Z" fill="black"/>
<path d="M125.759 170.653C125.759 170.653 124.419 169.782 123.329 169.955C123.175 170.054 123.125 170.53 122.917 171.106C122.691 171.736 122.311 172.502 122.22 173.368C122.066 174.887 122.356 179.008 122.071 182.838C122.519 183.559 125.981 184.67 127.809 183.042C127.809 183.042 127.334 180.69 127.225 178.786C127.112 176.814 128.447 176.605 128.193 175.05C128.03 174.053 126.211 172.87 125.718 171.369C125.655 171.17 125.795 170.875 125.759 170.653Z" fill="url(#paint50_linear_373_1007)"/>
<path d="M126.542 164.959C127.252 166.577 125.067 166.491 124.501 169.411C124.134 171.297 122.148 171.94 122.22 174.787C120.971 174.542 120.437 172.493 121.763 170.159C122.614 168.663 121.922 167.13 122.161 165.938C122.641 163.567 125.872 163.44 126.542 164.959Z" fill="url(#paint51_linear_373_1007)"/>
<path d="M123.713 173.323C123.845 172.289 124.836 172.335 126.596 172.045C127.419 171.909 128.935 171.6 130.103 171.197C130.578 171.034 131.27 166.283 131.338 165.004C131.365 164.451 130.967 164.329 130.723 163.866C130.483 163.409 130.338 162.629 130.582 162.552C130.763 162.493 130.908 163.195 131.044 163.227C130.994 162.683 130.84 161.854 131.053 161.31C131.266 160.766 132.053 161.115 132.239 161.291C132.465 161.505 132.533 161.845 132.573 162.334C132.628 162.919 132.84 163.699 132.655 164.093C132.496 164.438 132.347 164.905 132.352 165.149C132.356 165.394 132.288 172.249 131.682 172.652C130.858 173.201 128.569 173.917 126.456 174.284C124.781 174.57 123.609 174.134 123.713 173.323Z" fill="white"/>
<path d="M271.781 215.356C271.781 208.728 277.143 203.356 283.758 203.356C290.374 203.356 295.736 208.728 295.736 215.356C295.736 221.984 290.374 227.356 283.758 227.356C277.143 227.351 271.781 221.979 271.781 215.356Z" fill="url(#paint52_linear_373_1007)"/>
<path d="M276.894 211.413H277.598V215.572C277.598 215.944 277.53 216.259 277.394 216.518C277.257 216.778 277.065 216.975 276.817 217.109C276.569 217.244 276.276 217.311 275.939 217.311C275.621 217.311 275.338 217.253 275.09 217.138C274.842 217.02 274.647 216.854 274.505 216.638C274.363 216.422 274.292 216.165 274.292 215.868H274.985C274.985 216.033 275.025 216.177 275.107 216.3C275.19 216.421 275.304 216.516 275.448 216.584C275.592 216.652 275.756 216.686 275.939 216.686C276.142 216.686 276.314 216.643 276.456 216.558C276.598 216.473 276.706 216.348 276.78 216.183C276.856 216.016 276.894 215.813 276.894 215.572V211.413ZM280.204 217.334C279.927 217.334 279.676 217.282 279.451 217.177C279.225 217.071 279.046 216.919 278.914 216.72C278.781 216.519 278.715 216.277 278.715 215.993C278.715 215.743 278.764 215.54 278.863 215.385C278.961 215.228 279.093 215.105 279.257 215.016C279.422 214.927 279.604 214.86 279.803 214.817C280.004 214.771 280.205 214.735 280.408 214.709C280.673 214.675 280.888 214.649 281.053 214.632C281.22 214.613 281.341 214.582 281.417 214.538C281.494 214.495 281.533 214.419 281.533 214.311V214.288C281.533 214.008 281.456 213.79 281.303 213.635C281.151 213.48 280.921 213.402 280.613 213.402C280.293 213.402 280.042 213.472 279.86 213.612C279.678 213.752 279.55 213.902 279.476 214.061L278.84 213.834C278.954 213.569 279.105 213.362 279.294 213.214C279.486 213.065 279.694 212.961 279.919 212.902C280.147 212.841 280.37 212.811 280.59 212.811C280.73 212.811 280.891 212.828 281.073 212.862C281.257 212.894 281.434 212.962 281.604 213.064C281.776 213.166 281.919 213.32 282.033 213.527C282.147 213.733 282.204 214.01 282.204 214.356V217.231H281.533V216.641H281.499C281.454 216.735 281.378 216.837 281.272 216.945C281.166 217.052 281.025 217.144 280.848 217.22C280.672 217.296 280.457 217.334 280.204 217.334ZM280.306 216.731C280.571 216.731 280.794 216.679 280.976 216.575C281.16 216.471 281.298 216.337 281.391 216.172C281.486 216.007 281.533 215.834 281.533 215.652V215.038C281.505 215.072 281.442 215.104 281.346 215.132C281.251 215.159 281.141 215.182 281.016 215.203C280.893 215.222 280.773 215.239 280.655 215.254C280.54 215.267 280.446 215.279 280.374 215.288C280.2 215.311 280.037 215.348 279.885 215.399C279.736 215.448 279.614 215.523 279.522 215.623C279.431 215.722 279.385 215.856 279.385 216.027C279.385 216.26 279.472 216.436 279.644 216.555C279.818 216.673 280.039 216.731 280.306 216.731ZM286.839 212.868L285.226 217.231H284.544L282.93 212.868H283.657L284.862 216.345H284.907L286.112 212.868H286.839ZM288.875 217.334C288.599 217.334 288.348 217.282 288.123 217.177C287.897 217.071 287.718 216.919 287.586 216.72C287.453 216.519 287.387 216.277 287.387 215.993C287.387 215.743 287.436 215.54 287.534 215.385C287.633 215.228 287.765 215.105 287.929 215.016C288.094 214.927 288.276 214.86 288.475 214.817C288.676 214.771 288.877 214.735 289.08 214.709C289.345 214.675 289.56 214.649 289.725 214.632C289.891 214.613 290.013 214.582 290.088 214.538C290.166 214.495 290.205 214.419 290.205 214.311V214.288C290.205 214.008 290.128 213.79 289.975 213.635C289.823 213.48 289.593 213.402 289.284 213.402C288.964 213.402 288.713 213.472 288.532 213.612C288.35 213.752 288.222 213.902 288.148 214.061L287.512 213.834C287.625 213.569 287.777 213.362 287.966 213.214C288.158 213.065 288.366 212.961 288.591 212.902C288.819 212.841 289.042 212.811 289.262 212.811C289.402 212.811 289.563 212.828 289.745 212.862C289.928 212.894 290.106 212.962 290.276 213.064C290.448 213.166 290.591 213.32 290.705 213.527C290.819 213.733 290.875 214.01 290.875 214.356V217.231H290.205V216.641H290.171C290.125 216.735 290.05 216.837 289.944 216.945C289.838 217.052 289.696 217.144 289.52 217.22C289.344 217.296 289.129 217.334 288.875 217.334ZM288.978 216.731C289.243 216.731 289.466 216.679 289.648 216.575C289.832 216.471 289.97 216.337 290.063 216.172C290.158 216.007 290.205 215.834 290.205 215.652V215.038C290.177 215.072 290.114 215.104 290.017 215.132C289.923 215.159 289.813 215.182 289.688 215.203C289.565 215.222 289.445 215.239 289.327 215.254C289.212 215.267 289.118 215.279 289.046 215.288C288.872 215.311 288.709 215.348 288.557 215.399C288.408 215.448 288.286 215.523 288.194 215.623C288.103 215.722 288.057 215.856 288.057 216.027C288.057 216.26 288.143 216.436 288.316 216.555C288.49 216.673 288.711 216.731 288.978 216.731Z" fill="#731BA3"/>
<path d="M295.949 204.521L297.093 204.952C297.464 205.093 297.759 205.387 297.899 205.759L298.446 207.228C298.65 207.776 298.686 208.375 298.55 208.941C298.365 209.717 297.994 210.428 297.478 211.031C299.849 211.362 301.759 211.412 304.085 211.013C303.469 209.086 302.999 207.409 301.659 205.886L301.152 205.283C301.329 205.251 301.772 201.221 301.229 200.292C300.17 198.478 298.021 198.859 297.406 199.285C296.514 200.006 296.718 200.849 296.378 201.189C296.003 201.57 295.691 201.584 295.673 201.738C295.654 201.892 295.858 202.033 295.921 202.132C295.844 202.894 295.532 203.501 295.546 203.973C295.555 204.168 295.759 204.449 295.949 204.521Z" fill="white"/>
<path opacity="0.35" d="M297.899 205.759L298.152 206.439C297.935 205.328 298.768 204.811 298.768 204.811C298.763 204.811 298.347 204.961 297.673 204.92C297.347 204.902 296.867 204.793 296.632 204.73C296.396 204.662 296.057 204.562 296.057 204.562L297.093 204.952C297.464 205.088 297.759 205.383 297.899 205.759Z" fill="#F5C48F"/>
<path d="M313.981 249.419C313.981 249.419 314.438 250 315.411 250.616C316.361 251.215 317.311 251.804 317.171 252.085C317.031 252.366 314.764 255.685 313.438 256.451C312.112 257.221 313.248 255.775 313.32 255.426C313.392 255.077 314.067 253.413 313.51 252.643C312.954 251.877 312.288 251.419 312.465 251.07C312.637 250.721 313.51 249.184 313.981 249.419Z" fill="white"/>
<path d="M304.27 228.108C304.27 228.108 304.057 237.447 305.175 239.124C306.293 240.802 313.148 246.718 314.637 249.696C314.637 249.696 313.709 251.931 312.035 251.84C312.035 251.84 308.193 247.321 305.365 245.63C302.953 244.188 301.528 242.946 301.017 241.686C300.505 240.425 296.691 228.548 296.691 228.548L304.27 228.108ZM315.836 250.884C315.836 250.884 316.126 251.663 315.27 252.185C314.546 252.625 313.392 252.538 313.451 253.277C313.515 254.089 313.293 255.467 312.641 256.265C312.166 256.85 310.795 257.956 311.103 258.228C311.325 258.427 313.546 258.794 315.972 256.41C318.519 253.903 318.596 252.597 318.483 252.33C318.325 251.99 317.144 251.065 315.836 250.884Z" fill="black"/>
<path d="M295.134 253.867C295.134 253.867 295.17 255.825 294.994 256.31C294.817 256.8 290.776 256.727 289.867 255.961C288.962 255.19 292.03 255.018 292.623 254.42C292.89 254.152 293.188 253.409 293.188 253.409L295.134 253.867Z" fill="white"/>
<path d="M303.99 222.682C303.99 222.682 305.039 225.402 304.885 227.369C304.591 231.168 299.713 239.31 299.152 240.988C298.596 242.665 299.759 245.271 298.641 247.973C297.523 250.675 295.573 254.121 295.528 254.306C295.483 254.492 293.166 254.733 292.663 253.545C293.157 251.94 294.044 248.912 294.369 246.16C294.695 243.413 295.243 239.85 295.338 238.127C295.433 236.404 297.627 222.954 297.627 222.954C297.627 222.954 298.55 223.099 303.99 222.682ZM295.121 255.136C295.121 255.136 294.854 256.31 293.691 256.006C292.528 255.703 292.994 254.955 292.6 254.651C292.356 254.461 291.777 254.578 290.5 254.864C288.881 255.227 286.292 255.394 286.288 256.31C286.288 256.754 288.265 257.82 290.627 258.078C292.989 258.337 295.292 257.847 295.546 257.706C295.808 257.566 295.614 255.87 295.121 255.136Z" fill="black"/>
<path d="M298.302 208.901C298.632 207.64 300.225 206.661 301.636 206.974C302.79 207.228 304.175 209.499 304.406 211.271C304.637 213.039 303.537 220.841 304.754 223.706C304.754 223.706 298.564 225.674 296.148 224.853C296.148 224.853 296.903 222.102 297.139 220.03C297.578 216.154 295.962 215.714 296.012 213.588C296.048 212.251 298.044 209.88 298.302 208.901Z" fill="url(#paint53_linear_373_1007)"/>
<path d="M301.324 209.748C302.243 209.571 303.026 210.392 303.37 212.808C303.804 215.841 304.27 220.238 304.008 221.621C303.858 222.392 299.13 221.403 294.912 219.957C294.265 219.735 293.378 220.492 292.777 220.442C291.605 220.343 289.777 219.794 290.062 219.159C290.229 218.783 291.437 218.57 291.374 218.52L289.894 217.963C289.93 217.6 290.731 217.713 291.537 217.564C292.722 217.351 293.759 217.568 294.921 218.008C295.75 218.321 299.686 219.159 301.211 218.878C300.967 217.174 300.641 215.075 300.469 213.987C300.075 211.466 299.854 210.034 301.324 209.748Z" fill="white"/>
<path d="M300.112 214.223C301.094 214.005 302.08 213.928 303.089 213.86C303.32 213.846 303.546 213.828 303.777 213.815C303.736 213.443 303.691 213.08 303.641 212.74C303.297 210.324 302.184 208.928 301.247 209.232C299.84 209.689 299.682 211.476 300.071 213.992C300.085 214.064 300.098 214.141 300.112 214.223Z" fill="url(#paint54_linear_373_1007)"/>
<path d="M300.867 198.27C298.994 197.581 297.623 198.8 297.41 199.281C298.836 199.458 297.817 200.935 298.863 201.729C299.831 202.463 299.374 203.56 299.569 205.478C299.885 208.57 303.609 207.953 304.302 210.723C305.695 207.128 302.261 205.437 302.646 203.071C303.039 200.641 302.419 198.841 300.867 198.27Z" fill="black"/>
<path d="M109.718 220.832C116.393 220.832 121.804 215.411 121.804 208.724C121.804 202.036 116.393 196.615 109.718 196.615C103.043 196.615 97.6313 202.036 97.6313 208.724C97.6313 215.411 103.043 220.832 109.718 220.832Z" fill="url(#paint55_linear_373_1007)"/>
<path d="M99.7759 207.383V203.746H100.216V205.365H102.155V203.746H102.596V207.383H102.155V205.756H100.216V207.383H99.7759ZM103.278 204.137V203.746H106.005V204.137H104.862V207.383H104.422V204.137H103.278ZM106.685 203.746H107.211L108.446 206.765H108.489L109.725 203.746H110.25V207.383H109.839V204.62H109.803L108.667 207.383H108.269L107.133 204.62H107.097V207.383H106.685V203.746ZM111.133 207.383V203.746H111.574V206.992H113.264V207.383H111.133ZM115.018 207.432C114.81 207.432 114.622 207.391 114.455 207.308C114.289 207.225 114.155 207.111 114.054 206.967C113.954 206.823 113.898 206.658 113.889 206.473H114.315C114.332 206.638 114.406 206.774 114.539 206.882C114.673 206.988 114.832 207.042 115.018 207.042C115.167 207.042 115.3 207.007 115.416 206.937C115.533 206.867 115.625 206.771 115.691 206.649C115.759 206.526 115.792 206.387 115.792 206.232C115.792 206.073 115.758 205.932 115.688 205.808C115.619 205.682 115.524 205.583 115.404 205.511C115.283 205.439 115.145 205.402 114.99 205.401C114.879 205.4 114.764 205.417 114.647 205.452C114.53 205.487 114.434 205.531 114.358 205.586L113.946 205.536L114.166 203.746H116.055V204.137H114.535L114.407 205.209H114.429C114.503 205.15 114.597 205.101 114.709 205.062C114.822 205.023 114.939 205.003 115.061 205.003C115.283 205.003 115.482 205.057 115.656 205.163C115.831 205.268 115.968 205.413 116.068 205.596C116.168 205.78 116.219 205.989 116.219 206.225C116.219 206.457 116.166 206.664 116.062 206.846C115.959 207.027 115.817 207.171 115.636 207.276C115.455 207.38 115.249 207.432 115.018 207.432Z" fill="#431CA3"/>
<path d="M98.8395 198.501L97.5499 198.982C97.1291 199.14 96.7987 199.471 96.6449 199.888L96.0295 201.538C95.7989 202.156 95.7579 202.829 95.9118 203.47C96.12 204.34 96.5363 205.147 97.12 205.827C94.4457 206.199 92.2964 206.258 89.6764 205.804C90.3687 203.633 90.8981 201.742 92.405 200.029L92.9751 199.349C92.776 199.313 92.2737 194.775 92.8846 193.723C94.0747 191.678 96.4956 192.109 97.1924 192.59C98.197 193.401 97.9662 194.349 98.3508 194.734C98.7762 195.16 99.1291 195.178 99.1472 195.35C99.1698 195.523 98.9391 195.686 98.8667 195.795C98.9526 196.651 99.3056 197.336 99.2875 197.866C99.283 198.102 99.0567 198.419 98.8395 198.501Z" fill="#683804"/>
<path d="M78.5268 249.075C78.5268 249.075 78.011 249.728 76.9159 250.421C75.848 251.097 74.7756 251.759 74.9295 252.076C75.0878 252.389 77.6399 256.129 79.1332 256.995C80.6264 257.861 79.3459 256.233 79.2689 255.839C79.192 255.444 78.4273 253.567 79.0563 252.702C79.6852 251.836 80.4319 251.323 80.2328 250.929C80.0382 250.544 79.0563 248.812 78.5268 249.075Z" fill="black"/>
<path d="M89.4638 225.066C89.4638 225.066 89.7036 235.588 88.4457 237.479C87.1877 239.369 79.4636 246.033 77.7893 249.388C77.7893 249.388 78.8346 251.904 80.7215 251.799C80.7215 251.799 85.0474 246.709 88.233 244.805C90.948 243.182 92.5544 241.781 93.1336 240.362C93.7083 238.943 98.0025 225.565 98.0025 225.565L89.4638 225.066Z" fill="url(#paint56_linear_373_1007)"/>
<path d="M76.4363 250.73C76.4363 250.73 76.1105 251.609 77.0744 252.198C77.8889 252.697 79.1921 252.597 79.1242 253.431C79.0518 254.343 79.3007 255.902 80.0382 256.8C80.5767 257.457 82.1197 258.704 81.7713 259.012C81.5224 259.234 79.0201 259.651 76.2915 256.967C73.4182 254.143 73.3322 252.67 73.4634 252.375C73.6354 251.967 74.9657 250.929 76.4363 250.73ZM99.7582 254.084C99.7582 254.084 99.7175 256.287 99.9166 256.841C100.111 257.394 104.668 257.312 105.69 256.446C106.713 255.58 103.256 255.381 102.586 254.714C102.288 254.415 101.953 253.577 101.953 253.577L99.7582 254.084Z" fill="black"/>
<path d="M89.7806 218.955C89.7806 218.955 88.5996 222.02 88.7715 224.237C89.1018 228.516 94.5997 237.687 95.2287 239.578C95.8577 241.468 94.5499 244.406 95.8034 247.447C97.0613 250.489 99.2605 254.374 99.3148 254.583C99.3691 254.791 101.98 255.059 102.537 253.722C101.985 251.913 100.984 248.499 100.618 245.403C100.251 242.307 99.6315 238.295 99.5274 236.354C99.4234 234.414 96.9482 219.264 96.9482 219.264C96.9482 219.264 95.9074 219.427 89.7806 218.955Z" fill="url(#paint57_linear_373_1007)"/>
<path d="M99.7718 255.517C99.7718 255.517 100.075 256.841 101.383 256.501C102.69 256.161 102.17 255.313 102.609 254.977C102.885 254.764 103.537 254.896 104.971 255.218C106.795 255.626 109.713 255.816 109.713 256.845C109.713 257.348 107.487 258.55 104.826 258.835C102.166 259.125 99.5727 258.572 99.2831 258.414C98.998 258.255 99.2197 256.346 99.7718 255.517Z" fill="black"/>
<path d="M96.1879 203.433C95.8169 202.014 94.0205 200.913 92.4277 201.262C91.1245 201.547 89.5679 204.104 89.3054 206.099C89.043 208.094 90.2828 216.879 88.9117 220.107C88.9117 220.107 95.8802 222.324 98.6043 221.399C98.6043 221.399 97.7491 218.298 97.4866 215.968C96.9934 211.602 98.8124 211.108 98.7536 208.71C98.7265 207.205 96.4775 204.535 96.1879 203.433Z" fill="url(#paint58_linear_373_1007)"/>
<path d="M92.7851 204.39C91.7534 204.19 90.871 205.115 90.4819 207.835C89.9932 211.249 89.4683 216.204 89.7669 217.759C89.9344 218.629 95.2603 217.514 100.016 215.886C100.745 215.637 101.74 216.489 102.423 216.43C103.74 216.317 105.799 215.701 105.482 214.984C105.292 214.558 103.935 214.318 104.007 214.263L105.677 213.638C105.636 213.23 104.736 213.357 103.826 213.189C102.491 212.949 101.319 213.194 100.012 213.688C99.0794 214.041 94.6449 214.984 92.9299 214.667C93.2059 212.749 93.5725 210.383 93.7625 209.159C94.1924 206.326 94.4413 204.707 92.7851 204.39Z" fill="#683804"/>
<path d="M94.1472 209.426C93.0431 209.177 91.9299 209.091 90.7942 209.014L90.0204 208.959C90.0702 208.542 90.1199 208.134 90.1742 207.749C90.5634 205.029 91.8168 203.456 92.8711 203.801C94.4549 204.317 94.6359 206.326 94.197 209.163C94.1834 209.245 94.1653 209.336 94.1472 209.426Z" fill="url(#paint59_linear_373_1007)"/>
<path d="M93.301 191.456C95.4142 190.681 96.9527 192.055 97.1925 192.594C95.5906 192.789 96.7309 194.457 95.559 195.35C94.4684 196.175 94.9843 197.413 94.7626 199.575C94.4051 203.057 90.2059 202.363 89.4321 205.482C87.8619 201.434 91.7308 199.526 91.3009 196.865C90.853 194.126 91.5543 192.1 93.301 191.456Z" fill="black"/>
<defs>
<linearGradient id="paint0_linear_373_1007" x1="185.501" y1="2.12885" x2="185.501" y2="248.067" gradientUnits="userSpaceOnUse">
<stop stop-color="#BB6100"/>
<stop offset="1"/>
</linearGradient>
<linearGradient id="paint1_linear_373_1007" x1="240.429" y1="26.9307" x2="232.963" y2="63.9842" gradientUnits="userSpaceOnUse">
<stop stop-color="#DAB288"/>
<stop offset="0.008" stop-color="#D9B289"/>
<stop offset="0.478" stop-color="#D9CABB"/>
<stop offset="0.822" stop-color="#F0CDA7"/>
<stop offset="1" stop-color="#FFD1A0"/>
</linearGradient>
<linearGradient id="paint2_linear_373_1007" x1="252.941" y1="176.306" x2="323.124" y2="127.335" gradientUnits="userSpaceOnUse">
<stop offset="1"/>
</linearGradient>
<linearGradient id="paint3_linear_373_1007" x1="229.038" y1="225.727" x2="278.09" y2="144.503" gradientUnits="userSpaceOnUse">
<stop stop-color="#FF9C33"/>
<stop offset="0.159" stop-color="#FF9E37"/>
<stop offset="0.353" stop-color="#FFA443"/>
<stop offset="0.568" stop-color="#FFA749"/>
<stop offset="0.794" stop-color="#FF9626"/>
<stop offset="1" stop-color="#FF8400"/>
</linearGradient>
<linearGradient id="paint4_linear_373_1007" x1="258.817" y1="205.07" x2="258.629" y2="205.389" gradientUnits="userSpaceOnUse">
<stop offset="0.074" stop-color="#CE7E28"/>
<stop offset="0.58" stop-color="#B26818"/>
</linearGradient>
<linearGradient id="paint5_linear_373_1007" x1="229.986" y1="181.517" x2="237.04" y2="179.95" gradientUnits="userSpaceOnUse">
<stop stop-color="#BB6100"/>
<stop offset="1"/>
</linearGradient>
<linearGradient id="paint6_linear_373_1007" x1="194.913" y1="201.914" x2="239.043" y2="192.107" gradientUnits="userSpaceOnUse">
<stop stop-color="#BB6100"/>
<stop offset="1"/>
</linearGradient>
<linearGradient id="paint7_linear_373_1007" x1="248.585" y1="219.92" x2="285.341" y2="211.751" gradientUnits="userSpaceOnUse">
<stop stop-color="#BB6100"/>
<stop offset="1"/>
</linearGradient>
<linearGradient id="paint8_linear_373_1007" x1="119.612" y1="167.172" x2="49.4192" y2="118.214" gradientUnits="userSpaceOnUse">
<stop offset="1"/>
</linearGradient>
<linearGradient id="paint9_linear_373_1007" x1="217.679" y1="256.801" x2="261.787" y2="186.965" gradientUnits="userSpaceOnUse">
<stop stop-color="#592F02"/>
<stop offset="0.119" stop-color="#593004"/>
<stop offset="0.265" stop-color="#5A330A"/>
<stop offset="0.426" stop-color="#6C4215"/>
<stop offset="0.597" stop-color="#8F5B23"/>
<stop offset="0.776" stop-color="#BC7B35"/>
<stop offset="0.96" stop-color="#F2A24C"/>
<stop offset="1" stop-color="#FFAB51"/>
</linearGradient>
<linearGradient id="paint10_linear_373_1007" x1="246.843" y1="239.298" x2="246.773" y2="239.662" gradientUnits="userSpaceOnUse">
<stop offset="0.074" stop-color="#CE7E28"/>
<stop offset="0.58" stop-color="#B26818"/>
</linearGradient>
<linearGradient id="paint11_linear_373_1007" x1="211.81" y1="226.796" x2="217.934" y2="222.955" gradientUnits="userSpaceOnUse">
<stop stop-color="#BB6100"/>
<stop offset="1"/>
</linearGradient>
<linearGradient id="paint12_linear_373_1007" x1="185.591" y1="257.794" x2="223.907" y2="233.764" gradientUnits="userSpaceOnUse">
<stop stop-color="#BB6100"/>
<stop offset="1"/>
</linearGradient>
<linearGradient id="paint13_linear_373_1007" x1="138.382" y1="207.226" x2="36.2866" y2="152.674" gradientUnits="userSpaceOnUse">
<stop stop-color="#FF9C33"/>
<stop offset="0.159" stop-color="#FF9E37"/>
<stop offset="0.353" stop-color="#FFA443"/>
<stop offset="0.568" stop-color="#FFA749"/>
<stop offset="0.794" stop-color="#FF9626"/>
<stop offset="1" stop-color="#FF8400"/>
</linearGradient>
<linearGradient id="paint14_linear_373_1007" x1="118.1" y1="214.126" x2="118.437" y2="214.278" gradientUnits="userSpaceOnUse">
<stop offset="0.074" stop-color="#CE7E28"/>
<stop offset="0.58" stop-color="#B26818"/>
</linearGradient>
<linearGradient id="paint15_linear_373_1007" x1="161.839" y1="257.281" x2="115.699" y2="178.834" gradientUnits="userSpaceOnUse">
<stop stop-color="#592F02"/>
<stop offset="0.119" stop-color="#593004"/>
<stop offset="0.265" stop-color="#5A330A"/>
<stop offset="0.426" stop-color="#6C4215"/>
<stop offset="0.597" stop-color="#8F5B23"/>
<stop offset="0.776" stop-color="#BC7B35"/>
<stop offset="0.96" stop-color="#F2A24C"/>
<stop offset="1" stop-color="#FFAB51"/>
</linearGradient>
<linearGradient id="paint16_linear_373_1007" x1="135.451" y1="239.864" x2="135.553" y2="240.22" gradientUnits="userSpaceOnUse">
<stop offset="0.074" stop-color="#CE7E28"/>
<stop offset="0.58" stop-color="#B26818"/>
</linearGradient>
<linearGradient id="paint17_linear_373_1007" x1="169.247" y1="224.258" x2="162.802" y2="220.981" gradientUnits="userSpaceOnUse">
<stop stop-color="#BB6100"/>
<stop offset="1"/>
</linearGradient>
<linearGradient id="paint18_linear_373_1007" x1="198.135" y1="252.777" x2="157.824" y2="232.279" gradientUnits="userSpaceOnUse">
<stop stop-color="#BB6100"/>
<stop offset="1"/>
</linearGradient>
<linearGradient id="paint19_linear_373_1007" x1="150.454" y1="240.811" x2="104.039" y2="217.209" gradientUnits="userSpaceOnUse">
<stop stop-color="#BB6100"/>
<stop offset="1"/>
</linearGradient>
<linearGradient id="paint20_linear_373_1007" x1="145.081" y1="105.721" x2="149.057" y2="107.531" gradientUnits="userSpaceOnUse">
<stop stop-color="#FF9C33"/>
<stop offset="0.159" stop-color="#FF9E37"/>
<stop offset="0.353" stop-color="#FFA443"/>
<stop offset="0.568" stop-color="#FFA749"/>
<stop offset="0.794" stop-color="#FF9626"/>
<stop offset="1" stop-color="#FF8400"/>
</linearGradient>
<linearGradient id="paint21_linear_373_1007" x1="139.79" y1="106.916" x2="143.31" y2="108.518" gradientUnits="userSpaceOnUse">
<stop stop-color="#FF9C33"/>
<stop offset="0.159" stop-color="#FF9E37"/>
<stop offset="0.353" stop-color="#FFA443"/>
<stop offset="0.568" stop-color="#FFA749"/>
<stop offset="0.794" stop-color="#FF9626"/>
<stop offset="1" stop-color="#FF8400"/>
</linearGradient>
<linearGradient id="paint22_linear_373_1007" x1="136.819" y1="112.316" x2="139.955" y2="113.743" gradientUnits="userSpaceOnUse">
<stop stop-color="#FF9C33"/>
<stop offset="0.159" stop-color="#FF9E37"/>
<stop offset="0.353" stop-color="#FFA443"/>
<stop offset="0.568" stop-color="#FFA749"/>
<stop offset="0.794" stop-color="#FF9626"/>
<stop offset="1" stop-color="#FF8400"/>
</linearGradient>
<linearGradient id="paint23_linear_373_1007" x1="129.985" y1="109.282" x2="134.438" y2="111.309" gradientUnits="userSpaceOnUse">
<stop stop-color="#FF9C33"/>
<stop offset="0.159" stop-color="#FF9E37"/>
<stop offset="0.353" stop-color="#FFA443"/>
<stop offset="0.568" stop-color="#FFA749"/>
<stop offset="0.794" stop-color="#FF9626"/>
<stop offset="1" stop-color="#FF8400"/>
</linearGradient>
<linearGradient id="paint24_linear_373_1007" x1="123.191" y1="119.814" x2="128.395" y2="122.183" gradientUnits="userSpaceOnUse">
<stop stop-color="#FF9C33"/>
<stop offset="0.159" stop-color="#FF9E37"/>
<stop offset="0.353" stop-color="#FFA443"/>
<stop offset="0.568" stop-color="#FFA749"/>
<stop offset="0.794" stop-color="#FF9626"/>
<stop offset="1" stop-color="#FF8400"/>
</linearGradient>
<linearGradient id="paint25_linear_373_1007" x1="126.046" y1="113.506" x2="130.247" y2="115.418" gradientUnits="userSpaceOnUse">
<stop stop-color="#FF9C33"/>
<stop offset="0.159" stop-color="#FF9E37"/>
<stop offset="0.353" stop-color="#FFA443"/>
<stop offset="0.568" stop-color="#FFA749"/>
<stop offset="0.794" stop-color="#FF9626"/>
<stop offset="1" stop-color="#FF8400"/>
</linearGradient>
<linearGradient id="paint26_linear_373_1007" x1="219.561" y1="109.1" x2="215.585" y2="110.91" gradientUnits="userSpaceOnUse">
<stop stop-color="#FF9C33"/>
<stop offset="0.159" stop-color="#FF9E37"/>
<stop offset="0.353" stop-color="#FFA443"/>
<stop offset="0.568" stop-color="#FFA749"/>
<stop offset="0.794" stop-color="#FF9626"/>
<stop offset="1" stop-color="#FF8400"/>
</linearGradient>
<linearGradient id="paint27_linear_373_1007" x1="224.852" y1="110.295" x2="221.332" y2="111.896" gradientUnits="userSpaceOnUse">
<stop stop-color="#FF9C33"/>
<stop offset="0.159" stop-color="#FF9E37"/>
<stop offset="0.353" stop-color="#FFA443"/>
<stop offset="0.568" stop-color="#FFA749"/>
<stop offset="0.794" stop-color="#FF9626"/>
<stop offset="1" stop-color="#FF8400"/>
</linearGradient>
<linearGradient id="paint28_linear_373_1007" x1="227.823" y1="115.695" x2="224.687" y2="117.122" gradientUnits="userSpaceOnUse">
<stop stop-color="#FF9C33"/>
<stop offset="0.159" stop-color="#FF9E37"/>
<stop offset="0.353" stop-color="#FFA443"/>
<stop offset="0.568" stop-color="#FFA749"/>
<stop offset="0.794" stop-color="#FF9626"/>
<stop offset="1" stop-color="#FF8400"/>
</linearGradient>
<linearGradient id="paint29_linear_373_1007" x1="234.657" y1="112.661" x2="230.204" y2="114.687" gradientUnits="userSpaceOnUse">
<stop stop-color="#FF9C33"/>
<stop offset="0.159" stop-color="#FF9E37"/>
<stop offset="0.353" stop-color="#FFA443"/>
<stop offset="0.568" stop-color="#FFA749"/>
<stop offset="0.794" stop-color="#FF9626"/>
<stop offset="1" stop-color="#FF8400"/>
</linearGradient>
<linearGradient id="paint30_linear_373_1007" x1="241.451" y1="123.192" x2="236.247" y2="125.561" gradientUnits="userSpaceOnUse">
<stop stop-color="#FF9C33"/>
<stop offset="0.159" stop-color="#FF9E37"/>
<stop offset="0.353" stop-color="#FFA443"/>
<stop offset="0.568" stop-color="#FFA749"/>
<stop offset="0.794" stop-color="#FF9626"/>
<stop offset="1" stop-color="#FF8400"/>
</linearGradient>
<linearGradient id="paint31_linear_373_1007" x1="238.596" y1="116.884" x2="234.394" y2="118.796" gradientUnits="userSpaceOnUse">
<stop stop-color="#FF9C33"/>
<stop offset="0.159" stop-color="#FF9E37"/>
<stop offset="0.353" stop-color="#FFA443"/>
<stop offset="0.568" stop-color="#FFA749"/>
<stop offset="0.794" stop-color="#FF9626"/>
<stop offset="1" stop-color="#FF8400"/>
</linearGradient>
<linearGradient id="paint32_linear_373_1007" x1="188.007" y1="278.817" x2="188.007" y2="246.938" gradientUnits="userSpaceOnUse">
<stop stop-color="#BB6100"/>
<stop offset="0.118" stop-color="#B35C00"/>
<stop offset="0.393" stop-color="#A25400"/>
<stop offset="0.641" stop-color="#954D00"/>
<stop offset="0.852" stop-color="#8E4900"/>
<stop offset="1"/>
</linearGradient>
<linearGradient id="paint33_linear_373_1007" x1="190.548" y1="148.905" x2="176.848" y2="92.6847" gradientUnits="userSpaceOnUse">
<stop stop-color="white"/>
<stop offset="0.122" stop-color="#FFFDFB"/>
<stop offset="0.248" stop-color="#FFF7EF"/>
<stop offset="0.374" stop-color="#FFEDDA"/>
<stop offset="0.501" stop-color="#FFDFBD"/>
<stop offset="0.629" stop-color="#FFCD98"/>
<stop offset="0.758" stop-color="#FFB76B"/>
<stop offset="0.885" stop-color="#FF9E37"/>
<stop offset="1" stop-color="#FF8400"/>
</linearGradient>
<linearGradient id="paint34_linear_373_1007" x1="187.146" y1="119.717" x2="187.146" y2="62.4163" gradientUnits="userSpaceOnUse">
<stop stop-color="white"/>
<stop offset="0.122" stop-color="#FFFDFB"/>
<stop offset="0.248" stop-color="#FFF7EF"/>
<stop offset="0.374" stop-color="#FFEDDA"/>
<stop offset="0.501" stop-color="#FFDFBD"/>
<stop offset="0.629" stop-color="#FFCD98"/>
<stop offset="0.758" stop-color="#FFB76B"/>
<stop offset="0.885" stop-color="#FF9E37"/>
<stop offset="1" stop-color="#FF8400"/>
</linearGradient>
<linearGradient id="paint35_linear_373_1007" x1="155.24" y1="138.068" x2="149.15" y2="197.337" gradientUnits="userSpaceOnUse">
<stop stop-color="white"/>
<stop offset="0.122" stop-color="#FFFDFB"/>
<stop offset="0.248" stop-color="#FFF7EF"/>
<stop offset="0.374" stop-color="#FFEDDA"/>
<stop offset="0.501" stop-color="#FFDFBD"/>
<stop offset="0.629" stop-color="#FFCD98"/>
<stop offset="0.758" stop-color="#FFB76B"/>
<stop offset="0.885" stop-color="#FF9E37"/>
<stop offset="1" stop-color="#FF8400"/>
</linearGradient>
<linearGradient id="paint36_linear_373_1007" x1="205.372" y1="141.131" x2="224.65" y2="195.314" gradientUnits="userSpaceOnUse">
<stop stop-color="white"/>
<stop offset="0.122" stop-color="#FFFDFB"/>
<stop offset="0.248" stop-color="#FFF7EF"/>
<stop offset="0.374" stop-color="#FFEDDA"/>
<stop offset="0.501" stop-color="#FFDFBD"/>
<stop offset="0.629" stop-color="#FFCD98"/>
<stop offset="0.758" stop-color="#FFB76B"/>
<stop offset="0.885" stop-color="#FF9E37"/>
<stop offset="1" stop-color="#FF8400"/>
</linearGradient>
<linearGradient id="paint37_linear_373_1007" x1="186.837" y1="145.046" x2="186.837" y2="210.414" gradientUnits="userSpaceOnUse">
<stop stop-color="#FF921D"/>
<stop offset="0.114" stop-color="#EF891B"/>
<stop offset="0.337" stop-color="#C67015"/>
<stop offset="0.647" stop-color="#82490C"/>
<stop offset="1" stop-color="#2E1800"/>
</linearGradient>
<linearGradient id="paint38_linear_373_1007" x1="187.527" y1="232.349" x2="187.527" y2="165.637" gradientUnits="userSpaceOnUse">
<stop/>
<stop offset="0.101" stop-color="#050402"/>
<stop offset="0.224" stop-color="#140F0A"/>
<stop offset="0.36" stop-color="#2D2115"/>
<stop offset="0.505" stop-color="#503B25"/>
<stop offset="0.657" stop-color="#7D5D3A"/>
<stop offset="0.814" stop-color="#B48654"/>
<stop offset="0.974" stop-color="#F4B572"/>
<stop offset="1" stop-color="#FFBD77"/>
</linearGradient>
<linearGradient id="paint39_linear_373_1007" x1="113.868" y1="228.82" x2="197.207" y2="228.82" gradientUnits="userSpaceOnUse">
<stop stop-color="#422E18"/>
<stop offset="0.461" stop-color="#4B2D0C"/>
<stop offset="1" stop-color="#542B00"/>
</linearGradient>
<linearGradient id="paint40_linear_373_1007" x1="191.687" y1="255.053" x2="236.857" y2="255.053" gradientUnits="userSpaceOnUse">
<stop stop-color="white"/>
<stop offset="0.122" stop-color="#FFFDFB"/>
<stop offset="0.248" stop-color="#FFF7EF"/>
<stop offset="0.374" stop-color="#FFEDDA"/>
<stop offset="0.501" stop-color="#FFDFBD"/>
<stop offset="0.629" stop-color="#FFCD98"/>
<stop offset="0.758" stop-color="#FFB76B"/>
<stop offset="0.885" stop-color="#FF9E37"/>
<stop offset="1" stop-color="#FF8400"/>
</linearGradient>
<linearGradient id="paint41_linear_373_1007" x1="179.931" y1="229.326" x2="263.27" y2="229.326" gradientUnits="userSpaceOnUse">
<stop stop-color="#422E18"/>
<stop offset="0.461" stop-color="#4B2D0C"/>
<stop offset="1" stop-color="#542B00"/>
</linearGradient>
<linearGradient id="paint42_linear_373_1007" x1="184.505" y1="242.726" x2="118.98" y2="267.699" gradientUnits="userSpaceOnUse">
<stop stop-color="white"/>
<stop offset="0.122" stop-color="#FFFDFB"/>
<stop offset="0.248" stop-color="#FFF7EF"/>
<stop offset="0.374" stop-color="#FFEDDA"/>
<stop offset="0.501" stop-color="#FFDFBD"/>
<stop offset="0.629" stop-color="#FFCD98"/>
<stop offset="0.758" stop-color="#FFB76B"/>
<stop offset="0.885" stop-color="#FF9E37"/>
<stop offset="1" stop-color="#FF8400"/>
</linearGradient>
<linearGradient id="paint43_linear_373_1007" x1="255.237" y1="176.697" x2="276.207" y2="212.797" gradientUnits="userSpaceOnUse">
<stop stop-color="#FF8400"/>
<stop offset="0.067" stop-color="#DE8628"/>
<stop offset="0.162" stop-color="#B5895A"/>
<stop offset="0.262" stop-color="#907A62"/>
<stop offset="0.365" stop-color="#AB8863"/>
<stop offset="0.472" stop-color="#CA9358"/>
<stop offset="0.584" stop-color="#E19645"/>
<stop offset="0.703" stop-color="#F29837"/>
<stop offset="0.834" stop-color="#FC992F"/>
<stop offset="1" stop-color="#FF992C"/>
</linearGradient>
<linearGradient id="paint44_linear_373_1007" x1="262.875" y1="206.139" x2="261.625" y2="228.194" gradientUnits="userSpaceOnUse">
<stop stop-color="#725433"/>
<stop offset="0.143" stop-color="#775836"/>
<stop offset="0.318" stop-color="#866037"/>
<stop offset="0.511" stop-color="#9F672B"/>
<stop offset="0.716" stop-color="#C2721C"/>
<stop offset="0.929" stop-color="#EE7F08"/>
<stop offset="1" stop-color="#FF8400"/>
</linearGradient>
<linearGradient id="paint45_linear_373_1007" x1="247.463" y1="174.987" x2="268.434" y2="211.087" gradientUnits="userSpaceOnUse">
<stop stop-color="#FF8400"/>
<stop offset="0.151" stop-color="#FC8403"/>
<stop offset="0.28" stop-color="#F4850E"/>
<stop offset="0.401" stop-color="#E58620"/>
<stop offset="0.517" stop-color="#D08738"/>
<stop offset="0.63" stop-color="#B68959"/>
<stop offset="0.74" stop-color="#957C62"/>
<stop offset="0.847" stop-color="#AF8A63"/>
<stop offset="0.951" stop-color="#E39643"/>
<stop offset="1" stop-color="#FF992C"/>
</linearGradient>
<linearGradient id="paint46_linear_373_1007" x1="245.241" y1="167.926" x2="260.775" y2="167.926" gradientUnits="userSpaceOnUse">
<stop stop-color="#DAB288"/>
<stop offset="0.008" stop-color="#D9B289"/>
<stop offset="0.478" stop-color="#D9CABB"/>
<stop offset="0.822" stop-color="#F0CDA7"/>
<stop offset="1" stop-color="#FFD1A0"/>
</linearGradient>
<linearGradient id="paint47_linear_373_1007" x1="253.117" y1="204.568" x2="261.01" y2="189.45" gradientUnits="userSpaceOnUse">
<stop stop-color="#FF8400"/>
<stop offset="0.118" stop-color="#FB8404"/>
<stop offset="0.242" stop-color="#F18511"/>
<stop offset="0.37" stop-color="#DF8626"/>
<stop offset="0.5" stop-color="#C78844"/>
<stop offset="0.632" stop-color="#A78561"/>
<stop offset="0.765" stop-color="#997F63"/>
<stop offset="0.897" stop-color="#CF9454"/>
<stop offset="1" stop-color="#FF992C"/>
</linearGradient>
<linearGradient id="paint48_linear_373_1007" x1="262.78" y1="215.404" x2="264.053" y2="215.404" gradientUnits="userSpaceOnUse">
<stop offset="0.041" stop-color="#603200"/>
<stop offset="1" stop-color="#965209"/>
</linearGradient>
<linearGradient id="paint49_linear_373_1007" x1="128.008" y1="166.509" x2="139.274" y2="145.625" gradientUnits="userSpaceOnUse">
<stop stop-color="#DAB288"/>
<stop offset="0.008" stop-color="#D9B289"/>
<stop offset="0.478" stop-color="#D9CABB"/>
<stop offset="0.822" stop-color="#F0CDA7"/>
<stop offset="1" stop-color="#FFD1A0"/>
</linearGradient>
<linearGradient id="paint50_linear_373_1007" x1="124.186" y1="186.821" x2="125.555" y2="172.375" gradientUnits="userSpaceOnUse">
<stop offset="0.041" stop-color="#EB7900"/>
<stop offset="1" stop-color="#EE7B00"/>
</linearGradient>
<linearGradient id="paint51_linear_373_1007" x1="122.752" y1="171.552" x2="126.435" y2="158.772" gradientUnits="userSpaceOnUse">
<stop offset="0.193" stop-color="#2F1D09"/>
<stop offset="0.681" stop-color="#7A5125"/>
</linearGradient>
<linearGradient id="paint52_linear_373_1007" x1="294.351" y1="225.402" x2="274.5" y2="206.648" gradientUnits="userSpaceOnUse">
<stop stop-color="#DAB288"/>
<stop offset="0.008" stop-color="#D9B289"/>
<stop offset="0.478" stop-color="#D9CABB"/>
<stop offset="0.822" stop-color="#F0CDA7"/>
<stop offset="1" stop-color="#FFD1A0"/>
</linearGradient>
<linearGradient id="paint53_linear_373_1007" x1="299.373" y1="226.839" x2="301.828" y2="207.005" gradientUnits="userSpaceOnUse">
<stop stop-color="#FF9C33"/>
<stop offset="0.159" stop-color="#FF9E37"/>
<stop offset="0.353" stop-color="#FFA443"/>
<stop offset="0.568" stop-color="#FFA749"/>
<stop offset="0.794" stop-color="#FF9626"/>
<stop offset="1" stop-color="#FF8400"/>
</linearGradient>
<linearGradient id="paint54_linear_373_1007" x1="301.54" y1="208.782" x2="301.991" y2="215.287" gradientUnits="userSpaceOnUse">
<stop stop-color="#FF9C33"/>
<stop offset="0.159" stop-color="#FF9E37"/>
<stop offset="0.353" stop-color="#FFA443"/>
<stop offset="0.568" stop-color="#FFA749"/>
<stop offset="0.794" stop-color="#FF9626"/>
<stop offset="1" stop-color="#FF8400"/>
</linearGradient>
<linearGradient id="paint55_linear_373_1007" x1="99.2486" y1="220.035" x2="118.628" y2="199.175" gradientUnits="userSpaceOnUse">
<stop stop-color="#DAB288"/>
<stop offset="0.008" stop-color="#D9B289"/>
<stop offset="0.478" stop-color="#D9CABB"/>
<stop offset="0.822" stop-color="#F0CDA7"/>
<stop offset="1" stop-color="#FFD1A0"/>
</linearGradient>
<linearGradient id="paint56_linear_373_1007" x1="98.0038" y1="238.437" x2="77.7875" y2="238.437" gradientUnits="userSpaceOnUse">
<stop stop-color="#412B13"/>
<stop offset="0.23" stop-color="#C26D13"/>
<stop offset="0.348" stop-color="#C57118"/>
<stop offset="0.493" stop-color="#CC7C27"/>
<stop offset="0.652" stop-color="#D87F1F"/>
<stop offset="0.822" stop-color="#E98112"/>
<stop offset="0.998" stop-color="#FF8400"/>
<stop offset="1" stop-color="#FF8400"/>
</linearGradient>
<linearGradient id="paint57_linear_373_1007" x1="91.5141" y1="214.919" x2="96.9757" y2="243.007" gradientUnits="userSpaceOnUse">
<stop stop-color="#FF9C33"/>
<stop offset="0.159" stop-color="#FF9E37"/>
<stop offset="0.353" stop-color="#FFA443"/>
<stop offset="0.568" stop-color="#FFA749"/>
<stop offset="0.794" stop-color="#FF9626"/>
<stop offset="1" stop-color="#FF8400"/>
</linearGradient>
<linearGradient id="paint58_linear_373_1007" x1="94.9825" y1="223.639" x2="92.2177" y2="201.297" gradientUnits="userSpaceOnUse">
<stop offset="0.041" stop-color="#EB7900"/>
<stop offset="1" stop-color="#EE7B00"/>
</linearGradient>
<linearGradient id="paint59_linear_373_1007" x1="92.5413" y1="203.299" x2="92.034" y2="210.628" gradientUnits="userSpaceOnUse">
<stop stop-color="#FF8400"/>
<stop offset="0.151" stop-color="#FC8403"/>
<stop offset="0.28" stop-color="#F4850E"/>
<stop offset="0.401" stop-color="#E58620"/>
<stop offset="0.517" stop-color="#D08738"/>
<stop offset="0.63" stop-color="#B68959"/>
<stop offset="0.74" stop-color="#957C62"/>
<stop offset="0.847" stop-color="#AF8A63"/>
<stop offset="0.951" stop-color="#E39643"/>
<stop offset="1" stop-color="#FF992C"/>
</linearGradient>
</defs>
</svg>
