<svg width="362" height="271" viewBox="0 0 362 271" fill="none" xmlns="http://www.w3.org/2000/svg">
<path d="M334.565 161.449C261.812 224.852 314.135 274.075 140.94 261.164C59.8567 255.112 19.6973 193.368 10.3985 136.951C-1.13123 67.0059 42.983 17.3523 164.429 17.3523C219.214 17.3523 268.64 0.791995 303.148 23.0869C351.249 54.1765 370.358 130.259 334.565 161.449Z" fill="url(#paint0_linear_373_3842)"/>
<path d="M115.564 32.0085H302.578V219.367H115.564V32.0085Z" fill="url(#paint1_radial_373_3842)"/>
<path d="M313.135 82.0928C314.562 82.0928 315.718 80.9339 315.718 79.5043C315.718 78.0747 314.562 76.9158 313.135 76.9158C311.708 76.9158 310.551 78.0747 310.551 79.5043C310.551 80.9339 311.708 82.0928 313.135 82.0928Z" fill="#FFDAB3"/>
<path d="M81.1739 63.4608C82.6008 63.4608 83.7576 62.3018 83.7576 60.8722C83.7576 59.4426 82.6008 58.2837 81.1739 58.2837C79.7469 58.2837 78.5901 59.4426 78.5901 60.8722C78.5901 62.3018 79.7469 63.4608 81.1739 63.4608Z" fill="#FFDAB3"/>
<path d="M248.332 59.748C257.165 68.6379 271.509 68.6742 280.383 59.8296C289.256 50.9851 289.292 36.6099 280.464 27.72C271.636 18.8302 257.287 18.7939 248.413 27.6384C239.544 36.483 239.508 50.8582 248.332 59.748Z" fill="url(#paint2_linear_373_3842)"/>
<path d="M120.953 40.6853C124.092 40.6853 126.637 38.1361 126.637 34.9915C126.637 31.8468 124.092 29.2976 120.953 29.2976C117.814 29.2976 115.27 31.8468 115.27 34.9915C115.27 38.1361 117.814 40.6853 120.953 40.6853Z" fill="url(#paint3_linear_373_3842)"/>
<path opacity="0.6" d="M29.7112 96.663C32.0653 96.663 33.9737 94.7511 33.9737 92.3926C33.9737 90.0341 32.0653 88.1222 29.7112 88.1222C27.357 88.1222 25.4486 90.0341 25.4486 92.3926C25.4486 94.7511 27.357 96.663 29.7112 96.663Z" fill="url(#paint4_linear_373_3842)"/>
<path d="M194.828 40.6853C196.255 40.6853 197.412 39.5264 197.412 38.0968C197.412 36.6672 196.255 35.5082 194.828 35.5082C193.401 35.5082 192.245 36.6672 192.245 38.0968C192.245 39.5264 193.401 40.6853 194.828 40.6853Z" fill="#AE6312"/>
<path d="M156.601 36.6506L157.144 37.7568L158.362 37.9336L157.479 38.7904L157.687 40.0053L156.601 39.4341L155.515 40.0053L155.719 38.7904L154.841 37.9336L156.058 37.7568L156.601 36.6506Z" fill="white"/>
<path opacity="0.4" d="M46.7614 64.7618L47.3044 65.868L48.5217 66.0448L47.6393 66.9061L47.8474 68.1165L46.7614 67.5453L45.6709 68.1165L45.8791 66.9061L45.0012 66.0448L46.2184 65.868L46.7614 64.7618Z" fill="white"/>
<path d="M27.3853 130.758L27.9283 131.864L29.1456 132.041L28.2677 132.902L28.4713 134.113L27.3853 133.542L26.2993 134.113L26.5075 132.902L25.6251 132.041L26.8423 131.864L27.3853 130.758ZM337.072 108.445L337.615 109.551L338.832 109.728L337.954 110.589L338.158 111.8L337.072 111.229L335.986 111.8L336.194 110.589L335.312 109.728L336.529 109.551L337.072 108.445ZM320.004 49.412L320.547 50.5181L321.764 50.6949L320.886 51.5563L321.094 52.7667L320.004 52.1955L318.918 52.7667L319.126 51.5563L318.243 50.6949L319.461 50.5181L320.004 49.412Z" fill="white"/>
<path d="M141.379 165.86L287.844 91.9937L158.203 200.164" fill="url(#paint5_linear_373_3842)"/>
<path d="M220.951 135.704L287.844 91.9937L207.173 132.839L220.951 135.704Z" fill="url(#paint6_linear_373_3842)"/>
<path d="M82.9885 244.264C76.1829 249.332 60.0785 253.979 60.0785 253.979C60.0785 253.979 61.3681 253.24 63.4858 252.192C65.6035 251.141 67.3592 248.919 67.3592 248.919C67.3592 248.919 63.0333 251.562 57.0196 253.598C51.0104 255.633 42.9694 257.111 42.9694 257.111C42.9694 257.111 44.603 256.318 47.4673 254.441C50.3361 252.564 55.2639 249.296 55.2639 249.296C55.2639 249.296 42.9649 256.046 24.1636 257.342C16.8059 257.85 4.77393 260.489 4.77393 260.489C4.77393 260.489 10.5886 255.466 13.3533 252.569C17.7471 247.972 22.8558 240.578 26.8605 235.909C32.8244 228.955 45.069 216.724 45.069 216.724L42.6074 217.83C40.1459 218.936 37.1684 220.124 37.1684 220.124C37.1684 220.124 49.4809 208.364 58.6441 204.819C68.9701 200.825 82.7487 202.648 82.7487 202.648C82.7487 202.648 83.9614 208.55 88.4683 216.193C93.1291 224.09 96.9617 227.309 96.9617 227.309C96.9617 227.309 93.4141 236.503 82.9885 244.264Z" fill="url(#paint7_linear_373_3842)"/>
<path d="M84.6311 237.436C79.5178 241.244 67.4134 244.74 67.4134 244.74C67.4134 244.74 68.3818 244.187 69.9746 243.398C71.5674 242.609 72.8842 240.936 72.8842 240.936C72.8842 240.936 69.6307 242.922 65.1147 244.45C60.5988 245.977 54.5579 247.092 54.5579 247.092C54.5579 247.092 55.7842 246.494 57.9381 245.084C60.092 243.674 63.798 241.217 63.798 241.217C63.798 241.217 54.5534 246.29 40.4218 247.265C34.8923 247.646 25.8513 249.627 25.8513 249.627C25.8513 249.627 30.2225 245.85 32.2994 243.674C35.6027 240.22 39.4399 234.667 42.4535 231.153C46.9378 225.926 56.1371 216.737 56.1371 216.737L54.2864 217.567C52.4357 218.396 50.1958 219.29 50.1958 219.29C50.1958 219.29 59.4494 210.454 66.3365 207.788C74.0969 204.787 84.4546 206.156 84.4546 206.156C84.4546 206.156 85.3641 210.595 88.7533 216.334C92.2557 222.272 95.1381 224.684 95.1381 224.684C95.1381 224.684 92.4638 231.602 84.6311 237.436Z" fill="url(#paint8_linear_373_3842)"/>
<path d="M92.378 189.356C93.1563 188.182 114.867 164.872 141.257 151.194C167.647 137.517 179.606 136.348 179.606 136.348C179.606 136.348 186.236 141.035 192.865 153.28C199.494 165.524 201.444 170.47 200.924 172.034C200.403 173.598 174.665 201.469 146.452 213.061C118.243 224.653 114.994 225.305 114.994 225.305C114.994 225.305 111.483 224.916 107.455 218.796C103.428 212.676 94.0658 197.434 93.025 194.048C91.9843 190.662 92.378 189.356 92.378 189.356Z" fill="url(#paint9_linear_373_3842)"/>
<path d="M222.245 134.915C220.684 132.703 218.607 132.309 205.996 132.44C193.385 132.572 180.258 136.738 180.258 136.738L180.407 136.982C182.362 138.619 187.611 143.574 192.869 153.28C197.86 162.496 200.195 167.578 200.828 170.194L201.322 170.992L203.53 168.906C205.738 166.821 214.838 153.407 218.218 147.155C221.598 140.908 223.806 137.128 222.245 134.915Z" fill="url(#paint10_linear_373_3842)"/>
<path d="M116.039 224.911L101.609 255.389C101.609 255.389 115.777 249.527 132.288 238.588C148.8 227.649 150.099 225.954 150.099 225.954L154.52 209.285C154.515 209.285 127.999 221.525 116.039 224.911Z" fill="url(#paint11_linear_373_3842)"/>
<path d="M124.745 161.354L109.537 158.23C109.537 158.23 96.1471 163.829 84.9658 171.123C73.7846 178.417 62.8657 186.622 62.8657 186.622L93.414 188.186C93.4185 188.182 114.998 166.041 124.745 161.354Z" fill="url(#paint12_linear_373_3842)"/>
<path d="M107.455 218.791C103.423 212.671 94.0657 197.43 93.025 194.043C92.7399 193.123 92.5679 192.362 92.4593 191.731L84.5768 197.557C84.5768 197.557 84.0564 203.287 91.0747 213.967C98.093 224.648 101.736 228.293 103.423 228.161C105.111 228.03 112.392 224.254 112.392 224.254L112.243 224.009C110.926 223.089 109.243 221.502 107.455 218.791Z" fill="url(#paint13_linear_373_3842)"/>
<path d="M85.0971 200.948L82.7576 202.639C82.7576 202.639 82.4997 206.283 87.8256 215.142C93.1561 224 96.405 227.255 97.8349 227.386C99.2648 227.518 100.306 226.212 100.306 226.212C100.306 226.212 87.8256 212.277 85.0971 200.948Z" fill="url(#paint14_linear_373_3842)"/>
<path d="M134.239 181.672L122.537 185.711C122.537 185.711 104.396 195.793 98.4865 199.388C91.0746 203.894 69.3682 218.274 69.3682 218.274L70.2777 220.228L124.098 188.059L135.926 183.499L134.239 181.672Z" fill="url(#paint15_linear_373_3842)"/>
<path d="M70.2778 220.223L99.9166 206.546C99.9166 206.546 111.301 200.027 114.998 197.688C120.342 194.311 135.927 183.494 135.927 183.494L123.578 188.182L70.2778 220.223Z" fill="url(#paint16_linear_373_3842)"/>
<path d="M187.539 71.3578L190.398 70.1837C190.398 70.1837 191.118 70.5146 191.828 72.1376C192.738 74.2229 192.869 75.6555 192.869 75.6555L190.009 77.2195C190.005 77.2195 188.575 73.3117 187.539 71.3578Z" fill="black"/>
<path d="M161.276 97.148L190.525 79.4363C190.525 79.4363 190.874 76.6574 189.833 74.2275C188.792 71.7976 187.579 71.0995 187.579 71.0995L149.968 88.163" fill="url(#paint17_linear_373_3842)"/>
<path d="M148.058 88.0722C148.058 88.0722 142.424 94.2783 141.126 101.051C139.827 107.824 139.954 119.153 139.564 122.934C139.175 126.71 137.225 133.746 136.053 137C134.881 140.255 134.492 144.816 134.492 144.816C134.492 144.816 142.682 145.727 151.782 144.684C160.882 143.642 164.131 142.472 164.131 142.472C164.131 142.472 163.61 131.792 162.656 128.319C161.701 124.847 161.443 123.632 161.443 123.632C161.443 123.632 161.791 122.331 162.656 119.987C163.524 117.643 167.855 109.306 167.162 106.097C166.47 102.883 164.737 98.1951 163.262 96.6311C161.787 95.0671 161.18 94.8087 161.18 94.8087C161.18 94.8087 157.8 89.9445 155.461 87.6869C153.121 85.4293 150.262 85.6877 150.262 85.6877L148.058 88.0722Z" fill="url(#paint18_linear_373_3842)"/>
<path opacity="0.5" d="M150.23 108.79C150.23 108.79 151.746 113.219 154.262 116.17C156.773 119.121 161.932 122.163 161.932 122.163L162.665 119.987L150.578 108.794" fill="url(#paint19_linear_373_3842)"/>
<path d="M159.972 93.1088C158.778 91.4858 156.922 89.0832 155.47 87.6824C153.13 85.4248 150.271 85.6832 150.271 85.6832L148.09 88.0405C149.655 89.0016 153.52 89.7133 155.99 91.1549C157.493 92.0298 158.864 92.6645 159.972 93.1088Z" fill="url(#paint20_linear_373_3842)"/>
<path d="M149.578 127.277C149.578 127.277 152.352 127.19 156.339 126.234C160.325 125.277 161.018 124.67 161.018 124.67L160.149 128.229C160.149 128.229 158.153 129.616 155.294 129.879C152.434 130.137 149.312 130.228 149.312 130.228L149.578 127.277Z" fill="url(#paint21_linear_373_3842)"/>
<path d="M137.098 144.988C137.098 144.988 137.877 149.154 140.565 150.718C143.252 152.282 145.85 153.497 145.85 153.497L158.158 162.877L138.66 170.778C138.66 170.778 141.171 176.681 143.252 179.636C145.334 182.588 146.805 183.979 146.805 183.716C146.805 183.454 159.113 177.723 165.696 175.207C172.285 172.691 175.574 171.214 176.792 168.698C178.004 166.182 175.407 163.317 174.19 161.059C172.977 158.801 164.742 147.169 163.271 145.519C161.8 143.869 160.583 143.347 160.583 143.347C160.583 143.347 147.062 145.945 137.098 144.988Z" fill="black"/>
<path d="M138.655 170.774L133.37 170.688L127.216 173.467L129.818 179.546L131.03 178.766C131.03 178.766 131.637 184.582 133.37 188.49C135.103 192.398 138.917 195.698 139.782 195.612C140.651 195.526 141.343 194.134 141.343 194.134C141.343 194.134 138.311 189.011 138.917 186.146C139.524 183.281 140.822 178.68 140.822 178.68L141.777 177.637C141.777 177.633 138.831 172.252 138.655 170.774Z" fill="url(#paint22_linear_373_3842)"/>
<path d="M138.655 170.774L134.664 170.71C134.863 171.694 135.225 173.217 135.623 173.73C136.166 174.432 139.361 175.552 141.013 178.472L141.777 177.637C141.777 177.633 138.832 172.252 138.655 170.774Z" fill="white"/>
<path d="M139.782 195.607C140.017 195.585 140.239 195.462 140.438 195.304C138.777 194.211 137.031 192.171 135.361 189.963C132.935 186.749 132.759 180.153 132.415 178.762C132.125 177.606 130.338 173.625 129.745 172.32L127.216 173.462L129.818 179.541L131.03 178.762C131.03 178.762 131.637 184.578 133.37 188.486C135.103 192.393 138.917 195.694 139.782 195.607ZM153.931 85.9462C153.931 85.9462 153.673 83.7339 153.542 82.8182C153.411 81.9069 153.931 77.2195 156.465 75.3291C158.999 73.4387 163.42 73.2438 166.086 74.5494C168.751 75.8504 171.154 77.351 171.674 78.2622C172.194 79.1734 172.452 80.8688 172.258 81.3902C172.063 81.9115 171.737 81.9115 171.737 81.9115L169.009 79.6312C169.009 79.6312 166.995 81.7166 166.927 82.2379C166.864 82.7592 166.212 85.6878 166.212 85.6878C166.212 85.6878 164.977 85.6243 164.977 85.4294C164.977 85.2344 163.742 81.7846 162.832 81.9115C161.923 82.043 160.71 81.78 160.167 83.8654C160.013 84.4638 159.71 85.9507 159.71 85.9507L155.678 87.5781L153.931 85.9462Z" fill="black"/>
<path d="M169.013 79.6312C169.013 79.6312 167 81.7166 166.932 82.2379C166.868 82.7592 166.217 85.6878 166.217 85.6878C166.217 85.6878 164.982 85.6243 164.982 85.4294C164.982 85.2344 163.746 81.7846 162.837 81.9115C161.927 82.043 160.714 81.78 160.171 83.8654C160.018 84.4638 159.714 85.9507 159.714 85.9507L155.683 87.5782L161.013 94.7635L162.054 94.3283C162.054 94.3283 166.298 95.7608 166.692 95.7155C167.081 95.6702 167.516 93.8478 167.516 93.6755C167.516 93.5032 168.253 93.3264 168.556 93.2403C168.859 93.1542 168.47 92.5014 168.47 92.5014L169.208 92.3699L169.466 90.8059C169.466 90.8059 170.027 91.0643 170.203 91.0643C170.375 91.0643 171.072 90.7606 171.072 90.7606L170.38 85.8102L171.158 85.0712L171.461 81.771L171.384 81.5987L169.013 79.6312Z" fill="url(#paint23_linear_373_3842)"/>
<path d="M150.271 108.345C150.271 108.345 151.397 112.511 161.538 119.37C171.678 126.229 178.439 130.309 180.778 131.615C183.118 132.916 186.67 136.13 186.67 136.13C186.67 136.13 188.665 133.872 189.787 131.787C190.914 129.702 191.172 128.659 191.172 128.659C191.172 128.659 178.692 120.064 174.964 117.113C171.235 114.162 166.212 108.168 165.692 106.954C165.171 105.739 165.085 97.6648 161.357 95.5794C157.628 93.4941 153.47 95.5794 151.651 100.008C149.832 104.438 150.271 108.345 150.271 108.345Z" fill="url(#paint24_linear_373_3842)"/>
<path d="M187.86 134.462L190.982 135.763C190.982 135.763 192.217 134.657 192.869 132.766C193.521 130.876 193.779 130.033 193.779 130.033L191.177 128.664C191.177 128.664 189.032 133.483 187.86 134.462Z" fill="black"/>
<path d="M193.779 130.554C193.779 130.554 198.199 130.033 199.304 130.033C200.408 130.033 202.553 130.686 204.439 131.529C206.326 132.372 207.756 133.678 207.756 134.004C207.756 134.33 207.43 134.852 206.39 134.657C205.349 134.462 201.123 133.551 200.408 133.614C199.693 133.678 196.249 135.505 195.141 135.505C194.032 135.505 192.018 134.725 192.018 134.725C192.018 134.725 193.779 131.529 193.779 130.554Z" fill="url(#paint25_linear_373_3842)"/>
<path d="M190.398 70.1882C190.398 70.1882 192.48 69.1909 193.607 68.5834C194.733 67.9759 197.245 66.6749 199.154 65.8906C201.059 65.1109 203.575 63.7191 203.833 64.4127C204.091 65.1063 198.892 68.1482 198.892 68.1482C198.892 68.1482 200.625 70.2335 200.625 70.5781C200.625 70.9271 198.806 73.9645 198.806 73.9645C198.806 73.9645 197.381 74.4813 196.901 74.3997C196.421 74.3181 195.254 73.357 195.254 73.357L192.652 74.1367C192.652 74.1367 191.263 70.9226 190.398 70.1882Z" fill="url(#paint26_linear_373_3842)"/>
<path d="M106.184 55.9037C106.678 55.9037 107.08 55.5019 107.08 55.0061C107.08 54.5104 106.678 54.1085 106.184 54.1085C105.689 54.1085 105.288 54.5104 105.288 55.0061C105.288 55.5019 105.689 55.9037 106.184 55.9037Z" fill="white"/>
<path d="M138.696 81.925C138.696 82.1698 138.497 82.3693 138.252 82.3693C138.008 82.3693 137.809 82.1698 137.809 81.925C137.809 81.6802 138.008 81.4807 138.252 81.4807C138.497 81.4807 138.696 81.6802 138.696 81.925ZM86.0384 89.5047C86.0415 89.6656 86.0126 89.8255 85.9533 89.9751C85.894 90.1247 85.8056 90.2609 85.6931 90.3758C85.5807 90.4907 85.4465 90.582 85.2984 90.6443C85.1503 90.7066 84.9913 90.7388 84.8307 90.7388C84.67 90.7388 84.511 90.7068 84.3629 90.6445C84.2148 90.5822 84.0806 90.491 83.9681 90.3761C83.8556 90.2613 83.767 90.1251 83.7077 89.9755C83.6484 89.826 83.6194 89.6661 83.6225 89.5052C83.6285 89.1883 83.7584 88.8864 83.9843 88.6644C84.2101 88.4424 84.5138 88.3181 84.8302 88.318C85.1466 88.3179 85.4504 88.4422 85.6763 88.6641C85.9022 88.886 86.0322 89.1878 86.0384 89.5047ZM53.5443 83.8698C53.5443 84.1169 53.4464 84.3538 53.272 84.5286C53.0976 84.7033 52.8611 84.8014 52.6145 84.8014C52.3678 84.8014 52.1313 84.7033 51.9569 84.5286C51.7825 84.3538 51.6846 84.1169 51.6846 83.8698C51.6846 83.353 52.1009 82.9359 52.6167 82.9359C53.128 82.9405 53.5443 83.3575 53.5443 83.8698ZM134.773 57.3815C134.773 57.8485 134.393 58.2293 133.926 58.2293C133.46 58.2293 133.08 57.8485 133.08 57.3815C133.08 56.9146 133.46 56.5338 133.926 56.5338C134.397 56.5338 134.773 56.9146 134.773 57.3815Z" fill="white"/>
<path d="M295.926 49.1672C296.538 49.1672 297.035 48.6699 297.035 48.0565C297.035 47.4431 296.538 46.9459 295.926 46.9459C295.314 46.9459 294.817 47.4431 294.817 48.0565C294.817 48.6699 295.314 49.1672 295.926 49.1672Z" fill="white"/>
<path d="M336.198 81.4038C336.198 81.7075 335.954 81.9523 335.651 81.9523C335.348 81.9523 335.103 81.7075 335.103 81.4038C335.103 81.1 335.348 80.8552 335.651 80.8552C335.954 80.8552 336.198 81.1 336.198 81.4038ZM270.966 90.7923C270.966 91.6219 270.296 92.2928 269.468 92.2928C268.64 92.2928 267.971 91.6219 267.971 90.7923C267.971 89.9627 268.64 89.2918 269.468 89.2918C270.296 89.2918 270.966 89.9627 270.966 90.7923ZM230.716 83.811C230.716 84.4502 230.2 84.967 229.562 84.967C228.924 84.967 228.408 84.4502 228.408 83.811C228.408 83.1718 228.924 82.655 229.562 82.655C229.868 82.6562 230.161 82.7783 230.377 82.9949C230.593 83.2114 230.715 83.5047 230.716 83.811ZM331.343 50.9987C331.343 51.579 330.873 52.0504 330.293 52.0504C329.714 52.0504 329.244 51.579 329.244 50.9987C329.244 50.4184 329.714 49.947 330.293 49.947C330.873 49.947 331.343 50.4184 331.343 50.9987Z" fill="white"/>
<path d="M247.486 182.787C248.098 182.787 248.594 182.29 248.594 181.677C248.594 181.063 248.098 180.566 247.486 180.566C246.874 180.566 246.377 181.063 246.377 181.677C246.377 182.29 246.874 182.787 247.486 182.787Z" fill="white"/>
<path d="M287.763 215.024C287.763 215.327 287.519 215.572 287.215 215.572C286.912 215.572 286.668 215.327 286.668 215.024C286.668 214.72 286.912 214.475 287.215 214.475C287.519 214.471 287.763 214.72 287.763 215.024ZM222.531 224.412C222.531 225.242 221.861 225.913 221.033 225.913C220.205 225.913 219.535 225.242 219.535 224.412C219.535 223.583 220.205 222.912 221.033 222.912C221.861 222.912 222.531 223.583 222.531 224.412ZM182.281 217.431C182.281 218.07 181.765 218.587 181.127 218.587C180.489 218.587 179.973 218.07 179.973 217.431C179.973 216.792 180.489 216.275 181.127 216.275C181.765 216.275 182.281 216.792 182.281 217.431ZM282.908 184.619C282.908 185.199 282.437 185.67 281.858 185.67C281.279 185.67 280.808 185.199 280.808 184.619C280.808 184.038 281.279 183.567 281.858 183.567C282.437 183.567 282.908 184.038 282.908 184.619Z" fill="white"/>
<path d="M202.236 233.701C202.568 233.701 202.838 233.431 202.838 233.098C202.838 232.765 202.568 232.495 202.236 232.495C201.903 232.495 201.634 232.765 201.634 233.098C201.634 233.431 201.903 233.701 202.236 233.701Z" fill="white"/>
<path d="M224.132 251.231C224.132 251.311 224.101 251.387 224.045 251.443C223.989 251.499 223.913 251.531 223.834 251.531C223.754 251.531 223.679 251.499 223.622 251.443C223.566 251.387 223.535 251.311 223.535 251.231C223.535 251.064 223.666 250.932 223.834 250.932C224.001 250.932 224.132 251.064 224.132 251.231ZM188.665 256.336C188.665 256.552 188.58 256.76 188.427 256.913C188.274 257.066 188.067 257.152 187.851 257.152C187.635 257.152 187.428 257.066 187.275 256.913C187.122 256.76 187.036 256.552 187.036 256.336C187.036 255.883 187.403 255.52 187.851 255.52C188.299 255.52 188.665 255.883 188.665 256.336ZM166.778 252.537C166.778 252.882 166.497 253.163 166.154 253.163C165.81 253.163 165.529 252.882 165.529 252.537C165.529 252.193 165.81 251.911 166.154 251.911C166.497 251.911 166.778 252.193 166.778 252.537ZM221.494 234.698C221.494 235.016 221.241 235.27 220.924 235.27C220.607 235.27 220.354 235.016 220.354 234.698C220.354 234.381 220.607 234.127 220.924 234.127C221.236 234.127 221.494 234.381 221.494 234.698Z" fill="white"/>
<path d="M73.9068 134.489C74.2391 134.489 74.5086 134.219 74.5086 133.886C74.5086 133.553 74.2391 133.283 73.9068 133.283C73.5744 133.283 73.3049 133.553 73.3049 133.886C73.3049 134.219 73.5744 134.489 73.9068 134.489Z" fill="white"/>
<path d="M95.8079 152.019C95.8095 152.06 95.8029 152.1 95.7887 152.137C95.7744 152.175 95.7527 152.209 95.7249 152.239C95.697 152.268 95.6636 152.291 95.6266 152.307C95.5897 152.322 95.5499 152.33 95.5097 152.331C95.4695 152.331 95.4297 152.322 95.3927 152.307C95.3557 152.291 95.3223 152.268 95.2944 152.239C95.2665 152.21 95.2447 152.176 95.2304 152.138C95.2161 152.1 95.2095 152.06 95.211 152.02C95.214 151.943 95.2467 151.869 95.3023 151.816C95.3579 151.762 95.432 151.732 95.5092 151.732C95.5864 151.732 95.6606 151.762 95.7163 151.815C95.772 151.869 95.8048 151.942 95.8079 152.019ZM60.3364 157.124C60.3364 157.34 60.2506 157.548 60.0978 157.701C59.9451 157.854 59.7379 157.94 59.5219 157.94C59.3059 157.94 59.0987 157.854 58.946 157.701C58.7932 157.548 58.7074 157.34 58.7074 157.124C58.7074 156.908 58.7932 156.7 58.946 156.547C59.0987 156.394 59.3059 156.308 59.5219 156.308C59.7379 156.308 59.9451 156.394 60.0978 156.547C60.2506 156.7 60.3364 156.908 60.3364 157.124ZM38.4535 153.33C38.4535 153.674 38.1729 153.955 37.829 153.955C37.4851 153.955 37.2046 153.674 37.2046 153.33C37.2046 152.985 37.4851 152.704 37.829 152.704C38.1729 152.704 38.4535 152.98 38.4535 153.33ZM93.1653 135.486C93.1653 135.804 92.9119 136.058 92.5951 136.058C92.2784 136.058 92.025 135.804 92.025 135.486C92.025 135.169 92.2784 134.915 92.5951 134.915C92.9119 134.915 93.1653 135.174 93.1653 135.486Z" fill="white"/>
<path d="M301.754 120.631C302.087 120.631 302.356 120.361 302.356 120.028C302.356 119.695 302.087 119.425 301.754 119.425C301.422 119.425 301.152 119.695 301.152 120.028C301.152 120.361 301.422 120.631 301.754 120.631Z" fill="white"/>
<path d="M323.655 138.161C323.655 138.324 323.524 138.46 323.356 138.46C323.189 138.46 323.058 138.329 323.058 138.161C323.058 137.998 323.189 137.862 323.356 137.862C323.524 137.862 323.655 137.993 323.655 138.161ZM288.184 143.266C288.184 143.482 288.098 143.69 287.945 143.843C287.792 143.996 287.585 144.082 287.369 144.082C287.153 144.082 286.946 143.996 286.793 143.843C286.64 143.69 286.555 143.482 286.555 143.266C286.555 143.049 286.64 142.842 286.793 142.689C286.946 142.536 287.153 142.45 287.369 142.45C287.585 142.45 287.792 142.536 287.945 142.689C288.098 142.842 288.184 143.049 288.184 143.266ZM266.301 139.471C266.301 139.816 266.02 140.097 265.676 140.097C265.332 140.097 265.052 139.816 265.052 139.471C265.052 139.127 265.332 138.846 265.676 138.846C266.02 138.841 266.301 139.122 266.301 139.471ZM321.012 121.628C321.012 121.945 320.759 122.199 320.442 122.199C320.126 122.199 319.872 121.945 319.872 121.628C319.872 121.311 320.126 121.057 320.442 121.057C320.759 121.057 321.012 121.315 321.012 121.628Z" fill="white"/>
<path d="M235.816 80.6512C236.148 80.6512 236.418 80.3812 236.418 80.0482C236.418 79.7152 236.148 79.4453 235.816 79.4453C235.484 79.4453 235.214 79.7152 235.214 80.0482C235.214 80.3812 235.484 80.6512 235.816 80.6512Z" fill="white"/>
<path d="M257.717 98.1817C257.717 98.3449 257.586 98.4809 257.418 98.4809C257.251 98.4809 257.119 98.3494 257.119 98.1817C257.119 98.0185 257.251 97.8825 257.418 97.8825C257.586 97.8825 257.717 98.0139 257.717 98.1817ZM222.245 103.286C222.245 103.503 222.16 103.71 222.007 103.863C221.854 104.016 221.647 104.102 221.431 104.102C221.215 104.102 221.008 104.016 220.855 103.863C220.702 103.71 220.616 103.503 220.616 103.286C220.616 103.07 220.702 102.862 220.855 102.709C221.008 102.556 221.215 102.47 221.431 102.47C221.647 102.47 221.854 102.556 222.007 102.709C222.16 102.862 222.245 103.07 222.245 103.286ZM200.362 99.4918C200.362 99.8363 200.082 100.117 199.738 100.117C199.394 100.117 199.114 99.8363 199.114 99.4918C199.114 99.1473 199.394 98.8662 199.738 98.8662C200.082 98.8617 200.362 99.1427 200.362 99.4918ZM255.074 81.6486C255.074 81.9659 254.821 82.2198 254.504 82.2198C254.187 82.2198 253.934 81.9659 253.934 81.6486C253.934 81.3313 254.187 81.0774 254.504 81.0774C254.821 81.0774 255.074 81.3313 255.074 81.6486Z" fill="white"/>
<path opacity="0.6" d="M290.433 33.4365C292.166 33.4365 293.786 33.9125 295.175 34.7421C295.505 29.9005 299.528 26.0789 304.442 26.0789C305.641 26.0789 306.786 26.3101 307.836 26.7227C309.175 22.2347 313.325 18.9616 318.239 18.9616C324.239 18.9616 329.099 23.8349 329.099 29.8416C329.099 29.9957 329.094 30.1499 329.085 30.2995H329.099C335.094 30.2995 339.959 35.1728 339.959 41.1795C339.959 47.1907 335.094 52.0595 329.099 52.0595C328.723 52.0595 328.352 52.0413 327.99 52.0051H291.442C291.107 52.0413 290.772 52.0595 290.428 52.0595C285.297 52.0595 281.134 47.8888 281.134 42.748C281.138 37.6072 285.301 33.4365 290.433 33.4365Z" fill="url(#paint27_linear_373_3842)"/>
<path opacity="0.3" d="M244.228 45.7626C243.237 45.7626 242.305 46.0346 241.513 46.5106C241.323 43.7362 239.019 41.5466 236.205 41.5466C235.599 41.5466 235.015 41.6554 234.472 41.8458C233.689 39.3072 231.322 37.4576 228.531 37.4576C228.322 37.4576 228.114 37.4712 227.911 37.4893C225.3 37.6525 223.128 39.425 222.372 41.8322C221.824 41.6418 221.241 41.533 220.63 41.533C217.815 41.533 215.512 43.7226 215.322 46.497C214.501 46.0061 213.563 45.7475 212.607 45.749C209.666 45.749 207.286 48.1381 207.286 51.0802C207.286 54.0269 209.67 56.4114 212.607 56.4114C212.802 56.4114 212.996 56.3978 213.186 56.3797H221.358C221.598 56.4069 221.838 56.425 222.087 56.425C222.3 56.425 222.512 56.416 222.72 56.3933H234.39C234.508 56.3978 234.626 56.4114 234.748 56.4114C234.87 56.4114 234.988 56.3978 235.105 56.3933H243.649C243.839 56.416 244.033 56.425 244.228 56.425C247.169 56.425 249.549 54.036 249.549 51.0938C249.549 48.1517 247.164 45.7626 244.228 45.7626Z" fill="url(#paint28_linear_373_3842)"/>
<defs>
<linearGradient id="paint0_linear_373_3842" x1="105.364" y1="13.5946" x2="263.605" y2="240.219" gradientUnits="userSpaceOnUse">
<stop stop-color="#361C00"/>
<stop offset="0.594" stop-color="#8B4800"/>
<stop offset="1" stop-color="#B16D24"/>
</linearGradient>
<radialGradient id="paint1_radial_373_3842" cx="0" cy="0" r="1" gradientUnits="userSpaceOnUse" gradientTransform="translate(209.074 125.69) scale(93.5073 93.6795)">
<stop stop-color="#BF813E"/>
<stop offset="1" stop-color="#BF813E" stop-opacity="0"/>
</radialGradient>
<linearGradient id="paint2_linear_373_3842" x1="268.678" y1="22.4372" x2="259.709" y2="66.9525" gradientUnits="userSpaceOnUse">
<stop stop-color="#DAB288"/>
<stop offset="0.008" stop-color="#D9B289"/>
<stop offset="0.478" stop-color="#D9CABB"/>
<stop offset="0.822" stop-color="#F0CDA7"/>
<stop offset="1" stop-color="#FFD1A0"/>
</linearGradient>
<linearGradient id="paint3_linear_373_3842" x1="115.272" y1="34.9924" x2="126.637" y2="34.9924" gradientUnits="userSpaceOnUse">
<stop stop-color="#FF9C33"/>
<stop offset="0.159" stop-color="#FF9E37"/>
<stop offset="0.353" stop-color="#FFA443"/>
<stop offset="0.568" stop-color="#FFA749"/>
<stop offset="0.794" stop-color="#FF9626"/>
<stop offset="1" stop-color="#FF8400"/>
</linearGradient>
<linearGradient id="paint4_linear_373_3842" x1="25.4482" y1="92.3908" x2="33.9724" y2="92.3908" gradientUnits="userSpaceOnUse">
<stop stop-color="#FF9C33"/>
<stop offset="0.159" stop-color="#FF9E37"/>
<stop offset="0.353" stop-color="#FFA443"/>
<stop offset="0.568" stop-color="#FFA749"/>
<stop offset="0.794" stop-color="#FF9626"/>
<stop offset="1" stop-color="#FF8400"/>
</linearGradient>
<linearGradient id="paint5_linear_373_3842" x1="311.691" y1="84.957" x2="139.905" y2="188.618" gradientUnits="userSpaceOnUse">
<stop stop-color="#FF921D"/>
<stop offset="0.136" stop-color="#FB8F1C"/>
<stop offset="0.274" stop-color="#EF891B"/>
<stop offset="0.414" stop-color="#DA7C18"/>
<stop offset="0.555" stop-color="#BD6B14"/>
<stop offset="0.696" stop-color="#98560F"/>
<stop offset="0.839" stop-color="#6B3B08"/>
<stop offset="0.979" stop-color="#371D01"/>
<stop offset="1" stop-color="#2E1800"/>
</linearGradient>
<linearGradient id="paint6_linear_373_3842" x1="293.558" y1="86.2331" x2="195.172" y2="145.468" gradientUnits="userSpaceOnUse">
<stop stop-color="#FF921D"/>
<stop offset="0.136" stop-color="#FB8F1C"/>
<stop offset="0.274" stop-color="#EF891B"/>
<stop offset="0.414" stop-color="#DA7C18"/>
<stop offset="0.555" stop-color="#BD6B14"/>
<stop offset="0.696" stop-color="#98560F"/>
<stop offset="0.839" stop-color="#6B3B08"/>
<stop offset="0.979" stop-color="#371D01"/>
<stop offset="1" stop-color="#2E1800"/>
</linearGradient>
<linearGradient id="paint7_linear_373_3842" x1="4.78117" y1="231.353" x2="96.9685" y2="231.353" gradientUnits="userSpaceOnUse">
<stop stop-color="#DAB288"/>
<stop offset="0.042" stop-color="#D4B28E"/>
<stop offset="0.496" stop-color="#CBB195"/>
<stop offset="0.828" stop-color="#F1B16D"/>
<stop offset="1" stop-color="#EE7B00"/>
</linearGradient>
<linearGradient id="paint8_linear_373_3842" x1="25.8531" y1="227.732" x2="95.1345" y2="227.732" gradientUnits="userSpaceOnUse">
<stop stop-color="#DAB288"/>
<stop offset="0.042" stop-color="#D4B28E"/>
<stop offset="0.496" stop-color="#D9B895"/>
<stop offset="0.828" stop-color="#F1B16D"/>
<stop offset="1" stop-color="#FFB15E"/>
</linearGradient>
<linearGradient id="paint9_linear_373_3842" x1="165.401" y1="205.229" x2="82.2738" y2="97.1435" gradientUnits="userSpaceOnUse">
<stop stop-color="#FFD2A1"/>
<stop offset="0.488" stop-color="white"/>
</linearGradient>
<linearGradient id="paint10_linear_373_3842" x1="216.131" y1="160.143" x2="200.094" y2="134.025" gradientUnits="userSpaceOnUse">
<stop stop-color="#BA6000"/>
<stop offset="0.745" stop-color="#FF8400"/>
</linearGradient>
<linearGradient id="paint11_linear_373_3842" x1="101.607" y1="232.335" x2="154.517" y2="232.335" gradientUnits="userSpaceOnUse">
<stop stop-color="#BA6000"/>
<stop offset="0.745" stop-color="#FF8400"/>
</linearGradient>
<linearGradient id="paint12_linear_373_3842" x1="113.638" y1="181.804" x2="81.9022" y2="169.341" gradientUnits="userSpaceOnUse">
<stop stop-color="#BA6000"/>
<stop offset="0.745" stop-color="#FF8400"/>
</linearGradient>
<linearGradient id="paint13_linear_373_3842" x1="108.598" y1="228.442" x2="86.7027" y2="195.27" gradientUnits="userSpaceOnUse">
<stop stop-color="#361C00"/>
<stop offset="0.438" stop-color="#8B4800"/>
<stop offset="1" stop-color="#B16D24"/>
</linearGradient>
<linearGradient id="paint14_linear_373_3842" x1="82.9468" y1="201.203" x2="98.5896" y2="228.527" gradientUnits="userSpaceOnUse">
<stop stop-color="#FF9C33"/>
<stop offset="0.159" stop-color="#FF9E37"/>
<stop offset="0.353" stop-color="#FFA443"/>
<stop offset="0.568" stop-color="#FFA749"/>
<stop offset="0.794" stop-color="#FF9626"/>
<stop offset="1" stop-color="#FF8400"/>
</linearGradient>
<linearGradient id="paint15_linear_373_3842" x1="140.003" y1="179.622" x2="72.0915" y2="215.852" gradientUnits="userSpaceOnUse">
<stop stop-color="#FF9C33"/>
<stop offset="0.132" stop-color="#FFA442"/>
<stop offset="0.534" stop-color="#FF9A2E"/>
<stop offset="0.835" stop-color="#FF8A0D"/>
<stop offset="1" stop-color="#FF8400"/>
</linearGradient>
<linearGradient id="paint16_linear_373_3842" x1="70.2769" y1="201.859" x2="135.927" y2="201.859" gradientUnits="userSpaceOnUse">
<stop stop-color="#BA6000"/>
<stop offset="0.745" stop-color="#FF8400"/>
</linearGradient>
<linearGradient id="paint17_linear_373_3842" x1="149.967" y1="84.1224" x2="190.582" y2="84.1224" gradientUnits="userSpaceOnUse">
<stop stop-color="#FF9C33"/>
<stop offset="0.159" stop-color="#FF9E37"/>
<stop offset="0.353" stop-color="#FFA443"/>
<stop offset="0.568" stop-color="#FFA749"/>
<stop offset="0.794" stop-color="#FF9626"/>
<stop offset="1" stop-color="#FF8400"/>
</linearGradient>
<linearGradient id="paint18_linear_373_3842" x1="144.184" y1="149.148" x2="164.532" y2="83.0077" gradientUnits="userSpaceOnUse">
<stop stop-color="#FF9C33"/>
<stop offset="0.111" stop-color="#FFA340"/>
<stop offset="0.524" stop-color="#FF9A2F"/>
<stop offset="0.833" stop-color="#FF8A0D"/>
<stop offset="1" stop-color="#FF8400"/>
</linearGradient>
<linearGradient id="paint19_linear_373_3842" x1="150.232" y1="115.474" x2="162.663" y2="115.474" gradientUnits="userSpaceOnUse">
<stop stop-color="#BB6100"/>
<stop offset="1"/>
</linearGradient>
<linearGradient id="paint20_linear_373_3842" x1="148.089" y1="89.3932" x2="159.972" y2="89.3932" gradientUnits="userSpaceOnUse">
<stop stop-color="#FF9C33"/>
<stop offset="0.159" stop-color="#FF9E37"/>
<stop offset="0.353" stop-color="#FFA443"/>
<stop offset="0.568" stop-color="#FFA749"/>
<stop offset="0.794" stop-color="#FF9626"/>
<stop offset="1" stop-color="#FF8400"/>
</linearGradient>
<linearGradient id="paint21_linear_373_3842" x1="149.317" y1="127.449" x2="161.017" y2="127.449" gradientUnits="userSpaceOnUse">
<stop stop-color="#BB6100"/>
<stop offset="1"/>
</linearGradient>
<linearGradient id="paint22_linear_373_3842" x1="127.217" y1="183.149" x2="141.777" y2="183.149" gradientUnits="userSpaceOnUse">
<stop stop-color="#361C00"/>
<stop offset="0.594" stop-color="#8B4800"/>
<stop offset="1" stop-color="#B16D24"/>
</linearGradient>
<linearGradient id="paint23_linear_373_3842" x1="155.687" y1="87.672" x2="171.46" y2="87.672" gradientUnits="userSpaceOnUse">
<stop stop-color="#FFD2A1"/>
<stop offset="0.488" stop-color="white"/>
</linearGradient>
<linearGradient id="paint24_linear_373_3842" x1="150.225" y1="115.451" x2="191.177" y2="115.451" gradientUnits="userSpaceOnUse">
<stop stop-color="#FF9C33"/>
<stop offset="0.159" stop-color="#FF9E37"/>
<stop offset="0.353" stop-color="#FFA443"/>
<stop offset="0.568" stop-color="#FFA749"/>
<stop offset="0.794" stop-color="#FF9626"/>
<stop offset="1" stop-color="#FF8400"/>
</linearGradient>
<linearGradient id="paint25_linear_373_3842" x1="192.021" y1="132.767" x2="207.752" y2="132.767" gradientUnits="userSpaceOnUse">
<stop stop-color="#FFD2A1"/>
<stop offset="0.488" stop-color="white"/>
</linearGradient>
<linearGradient id="paint26_linear_373_3842" x1="190.397" y1="69.3155" x2="203.839" y2="69.3155" gradientUnits="userSpaceOnUse">
<stop stop-color="#FFD2A1"/>
<stop offset="0.488" stop-color="white"/>
</linearGradient>
<linearGradient id="paint27_linear_373_3842" x1="281.139" y1="35.5101" x2="339.965" y2="35.5101" gradientUnits="userSpaceOnUse">
<stop stop-color="#FFD2A1"/>
<stop offset="0.089" stop-color="#FFD7AC"/>
<stop offset="0.499" stop-color="#FFEDD9"/>
<stop offset="0.816" stop-color="#FFFAF5"/>
<stop offset="1" stop-color="white"/>
</linearGradient>
<linearGradient id="paint28_linear_373_3842" x1="207.277" y1="46.9431" x2="249.549" y2="46.9431" gradientUnits="userSpaceOnUse">
<stop stop-color="#FFD2A1"/>
<stop offset="0.089" stop-color="#FFD7AC"/>
<stop offset="0.499" stop-color="#FFEDD9"/>
<stop offset="0.816" stop-color="#FFFAF5"/>
<stop offset="1" stop-color="white"/>
</linearGradient>
</defs>
</svg>
